%TF.GenerationSoftware,KiCad,Pcbnew,(6.0.1)*%
%TF.CreationDate,2022-01-26T23:07:26+10:00*%
%TF.ProjectId,blinker,626c696e-6b65-4722-9e6b-696361645f70,rev?*%
%TF.SameCoordinates,Original*%
%TF.FileFunction,Copper,L1,Top*%
%TF.FilePolarity,Positive*%
%FSLAX46Y46*%
G04 Gerber Fmt 4.6, Leading zero omitted, Abs format (unit mm)*
G04 Created by KiCad (PCBNEW (6.0.1)) date 2022-01-26 23:07:26*
%MOMM*%
%LPD*%
G01*
G04 APERTURE LIST*
G04 Aperture macros list*
%AMRoundRect*
0 Rectangle with rounded corners*
0 $1 Rounding radius*
0 $2 $3 $4 $5 $6 $7 $8 $9 X,Y pos of 4 corners*
0 Add a 4 corners polygon primitive as box body*
4,1,4,$2,$3,$4,$5,$6,$7,$8,$9,$2,$3,0*
0 Add four circle primitives for the rounded corners*
1,1,$1+$1,$2,$3*
1,1,$1+$1,$4,$5*
1,1,$1+$1,$6,$7*
1,1,$1+$1,$8,$9*
0 Add four rect primitives between the rounded corners*
20,1,$1+$1,$2,$3,$4,$5,0*
20,1,$1+$1,$4,$5,$6,$7,0*
20,1,$1+$1,$6,$7,$8,$9,0*
20,1,$1+$1,$8,$9,$2,$3,0*%
%AMRotRect*
0 Rectangle, with rotation*
0 The origin of the aperture is its center*
0 $1 length*
0 $2 width*
0 $3 Rotation angle, in degrees counterclockwise*
0 Add horizontal line*
21,1,$1,$2,0,0,$3*%
G04 Aperture macros list end*
%TA.AperFunction,NonConductor*%
%ADD10C,0.200000*%
%TD*%
%TA.AperFunction,SMDPad,CuDef*%
%ADD11R,1.100000X1.100000*%
%TD*%
%TA.AperFunction,SMDPad,CuDef*%
%ADD12RoundRect,0.243750X-0.243750X-0.456250X0.243750X-0.456250X0.243750X0.456250X-0.243750X0.456250X0*%
%TD*%
%TA.AperFunction,SMDPad,CuDef*%
%ADD13RoundRect,0.200000X0.275000X-0.200000X0.275000X0.200000X-0.275000X0.200000X-0.275000X-0.200000X0*%
%TD*%
%TA.AperFunction,SMDPad,CuDef*%
%ADD14R,0.450000X0.600000*%
%TD*%
%TA.AperFunction,SMDPad,CuDef*%
%ADD15RoundRect,0.150000X0.512500X0.150000X-0.512500X0.150000X-0.512500X-0.150000X0.512500X-0.150000X0*%
%TD*%
%TA.AperFunction,ComponentPad*%
%ADD16RotRect,2.400000X2.400000X240.000000*%
%TD*%
%TA.AperFunction,ComponentPad*%
%ADD17C,2.400000*%
%TD*%
%TA.AperFunction,ComponentPad*%
%ADD18R,2.400000X2.400000*%
%TD*%
%TA.AperFunction,ComponentPad*%
%ADD19RotRect,2.400000X2.400000X60.000000*%
%TD*%
%TA.AperFunction,ComponentPad*%
%ADD20RotRect,2.400000X2.400000X300.000000*%
%TD*%
%TA.AperFunction,ComponentPad*%
%ADD21R,1.700000X1.700000*%
%TD*%
%TA.AperFunction,ComponentPad*%
%ADD22O,1.700000X1.700000*%
%TD*%
%TA.AperFunction,ComponentPad*%
%ADD23RotRect,2.400000X2.400000X120.000000*%
%TD*%
%TA.AperFunction,ViaPad*%
%ADD24C,0.800000*%
%TD*%
%TA.AperFunction,Conductor*%
%ADD25C,0.250000*%
%TD*%
G04 APERTURE END LIST*
D10*
X125660001Y-42170000D02*
G75*
G03*
X125660001Y-42170000I-1J0D01*
G01*
D11*
%TO.P,D2,1,K*%
%TO.N,2.7VCC*%
X148100000Y-105520000D03*
%TO.P,D2,2,A*%
%TO.N,GND*%
X145300000Y-105520000D03*
%TD*%
D12*
%TO.P,D3,2,A*%
%TO.N,5VCC*%
X166037500Y-76200000D03*
%TO.P,D3,1,K*%
%TO.N,/LED_R*%
X164162500Y-76200000D03*
%TD*%
D13*
%TO.P,R1,1*%
%TO.N,LED*%
X164485000Y-94905000D03*
%TO.P,R1,2*%
%TO.N,/LED_R*%
X164485000Y-93255000D03*
%TD*%
D14*
%TO.P,D1,1,K*%
%TO.N,2.7VCC*%
X158050000Y-91690000D03*
%TO.P,D1,2,A*%
%TO.N,/SLR_IN*%
X158050000Y-93790000D03*
%TD*%
D15*
%TO.P,U1,1,PB0*%
%TO.N,TPIDATA*%
X165880000Y-100820000D03*
%TO.P,U1,2,GND*%
%TO.N,GND*%
X165880000Y-99870000D03*
%TO.P,U1,3,PB1*%
%TO.N,TPICLK*%
X165880000Y-98920000D03*
%TO.P,U1,4,PB2*%
%TO.N,LED*%
X163605000Y-98920000D03*
%TO.P,U1,5,VCC*%
%TO.N,5VCC*%
X163605000Y-99870000D03*
%TO.P,U1,6,~{RESET}/PB3*%
%TO.N,RESET*%
X163605000Y-100820000D03*
%TD*%
D16*
%TO.P,C3,1*%
%TO.N,2.7VCC*%
X157480000Y-114798227D03*
D17*
%TO.P,C3,2*%
%TO.N,GND*%
X153730000Y-121293418D03*
%TD*%
%TO.P,C1,2*%
%TO.N,GND*%
X187840000Y-101600000D03*
D18*
%TO.P,C1,1*%
%TO.N,2.7VCC*%
X180340000Y-101600000D03*
%TD*%
D19*
%TO.P,C6,1*%
%TO.N,2.7VCC*%
X172720000Y-88401773D03*
D17*
%TO.P,C6,2*%
%TO.N,GND*%
X176470000Y-81906582D03*
%TD*%
D20*
%TO.P,C2,1*%
%TO.N,2.7VCC*%
X172720000Y-114798227D03*
D17*
%TO.P,C2,2*%
%TO.N,GND*%
X176470000Y-121293418D03*
%TD*%
D21*
%TO.P,J1,1,Pin_1*%
%TO.N,TPIDATA*%
X170840000Y-106900000D03*
D22*
%TO.P,J1,2,Pin_2*%
%TO.N,5VCC*%
X173380000Y-106900000D03*
%TO.P,J1,3,Pin_3*%
%TO.N,GND*%
X170840000Y-104360000D03*
%TO.P,J1,4,Pin_4*%
%TO.N,unconnected-(J1-Pad4)*%
X173380000Y-104360000D03*
%TO.P,J1,5,Pin_5*%
%TO.N,RESET*%
X170840000Y-101820000D03*
%TO.P,J1,6,Pin_6*%
%TO.N,unconnected-(J1-Pad6)*%
X173380000Y-101820000D03*
%TO.P,J1,7,Pin_7*%
%TO.N,TPICLK*%
X170840000Y-99280000D03*
%TO.P,J1,8,Pin_8*%
%TO.N,GND*%
X173380000Y-99280000D03*
%TO.P,J1,9,Pin_9*%
%TO.N,unconnected-(J1-Pad9)*%
X170840000Y-96740000D03*
%TO.P,J1,10,Pin_10*%
%TO.N,GND*%
X173380000Y-96740000D03*
%TD*%
D21*
%TO.P,JP1,1,A*%
%TO.N,2.7VCC*%
X163210000Y-107390000D03*
D22*
%TO.P,JP1,2,B*%
%TO.N,5VCC*%
X165750000Y-107390000D03*
%TD*%
D23*
%TO.P,C5,1*%
%TO.N,2.7VCC*%
X157480000Y-88401773D03*
D17*
%TO.P,C5,2*%
%TO.N,GND*%
X153730000Y-81906582D03*
%TD*%
D21*
%TO.P,SC1,1,+*%
%TO.N,/SLR_IN*%
X158050000Y-97560000D03*
D22*
%TO.P,SC1,2,-*%
%TO.N,GND*%
X158050000Y-100100000D03*
%TD*%
D18*
%TO.P,C4,1*%
%TO.N,2.7VCC*%
X149860000Y-101600000D03*
D17*
%TO.P,C4,2*%
%TO.N,GND*%
X142360000Y-101600000D03*
%TD*%
D24*
%TO.N,RESET*%
X165800000Y-103300000D03*
%TO.N,5VCC*%
X167000000Y-91590000D03*
%TD*%
D25*
%TO.N,/LED_R*%
X164485000Y-76522500D02*
X164162500Y-76200000D01*
X164485000Y-93255000D02*
X164485000Y-76522500D01*
%TO.N,5VCC*%
X167000000Y-77162500D02*
X166037500Y-76200000D01*
X167000000Y-91590000D02*
X167000000Y-77162500D01*
%TO.N,GND*%
X168330000Y-99870000D02*
X165880000Y-99870000D01*
X172205489Y-100454511D02*
X168914511Y-100454511D01*
X173380000Y-99280000D02*
X172205489Y-100454511D01*
X168914511Y-100454511D02*
X168330000Y-99870000D01*
%TO.N,/SLR_IN*%
X158050000Y-93790000D02*
X158050000Y-97560000D01*
%TO.N,TPIDATA*%
X165880000Y-101940000D02*
X170840000Y-106900000D01*
X165880000Y-100820000D02*
X165880000Y-101940000D01*
%TO.N,RESET*%
X163605000Y-101105000D02*
X165800000Y-103300000D01*
X163605000Y-100820000D02*
X163605000Y-101105000D01*
%TO.N,TPICLK*%
X165880000Y-98920000D02*
X170480000Y-98920000D01*
X170480000Y-98920000D02*
X170840000Y-99280000D01*
%TO.N,2.7VCC*%
X148100000Y-105520000D02*
X148100000Y-103360000D01*
X157480000Y-113120000D02*
X163210000Y-107390000D01*
X158050000Y-91690000D02*
X158050000Y-88971773D01*
X149860000Y-107178227D02*
X157480000Y-114798227D01*
X157480000Y-114798227D02*
X157480000Y-113120000D01*
X148100000Y-103360000D02*
X149860000Y-101600000D01*
X158050000Y-88971773D02*
X157480000Y-88401773D01*
X149860000Y-101600000D02*
X149860000Y-107178227D01*
%TO.N,5VCC*%
X166600000Y-108240000D02*
X172040000Y-108240000D01*
X163605000Y-99870000D02*
X163221428Y-99870000D01*
X162617980Y-100473448D02*
X162617980Y-104257980D01*
X166600000Y-108240000D02*
X165750000Y-107390000D01*
X162617980Y-104257980D02*
X165750000Y-107390000D01*
X172040000Y-108240000D02*
X173380000Y-106900000D01*
X163221428Y-99870000D02*
X162617980Y-100473448D01*
%TO.N,LED*%
X163605000Y-98920000D02*
X163605000Y-95785000D01*
X163605000Y-95785000D02*
X164485000Y-94905000D01*
%TD*%
%TA.AperFunction,Conductor*%
%TO.N,GND*%
G36*
X165495099Y-74175428D02*
G01*
X165959349Y-74181506D01*
X165963965Y-74181651D01*
X166676771Y-74217136D01*
X166963492Y-74231410D01*
X166968088Y-74231724D01*
X167965148Y-74318078D01*
X167969707Y-74318557D01*
X168598635Y-74396337D01*
X168962897Y-74441386D01*
X168967468Y-74442036D01*
X169955515Y-74601180D01*
X169960060Y-74601998D01*
X170941591Y-74797237D01*
X170946103Y-74798221D01*
X171919802Y-75029291D01*
X171924275Y-75030439D01*
X172141994Y-75090613D01*
X172888905Y-75297048D01*
X172893308Y-75298352D01*
X173847498Y-75600123D01*
X173851868Y-75601594D01*
X174740130Y-75918763D01*
X174794338Y-75938119D01*
X174798650Y-75939748D01*
X175728195Y-76310599D01*
X175732451Y-76312389D01*
X176647751Y-76717039D01*
X176651901Y-76718965D01*
X177152531Y-76962598D01*
X177551787Y-77156897D01*
X177555901Y-77158993D01*
X177801140Y-77289663D01*
X178439118Y-77629596D01*
X178443128Y-77631828D01*
X178765014Y-77818794D01*
X179308529Y-78134493D01*
X179312466Y-78136878D01*
X179740884Y-78407189D01*
X180158849Y-78670905D01*
X180162709Y-78673441D01*
X180988936Y-79238112D01*
X180992700Y-79240787D01*
X181797678Y-79835353D01*
X181801342Y-79838164D01*
X182018757Y-80011414D01*
X182542453Y-80428727D01*
X182584002Y-80461836D01*
X182587551Y-80464771D01*
X183078903Y-80886655D01*
X183346846Y-81116716D01*
X183350294Y-81119788D01*
X184085187Y-81799116D01*
X184088520Y-81802313D01*
X184202967Y-81916162D01*
X184798012Y-82508099D01*
X184801194Y-82511383D01*
X185172181Y-82908522D01*
X185484375Y-83242724D01*
X185487464Y-83246155D01*
X185786879Y-83591200D01*
X186143355Y-84002003D01*
X186146305Y-84005531D01*
X186774105Y-84784962D01*
X186776905Y-84788572D01*
X187375707Y-85590465D01*
X187378367Y-85594166D01*
X187866066Y-86299809D01*
X187947386Y-86417469D01*
X187949940Y-86421313D01*
X188149120Y-86733361D01*
X188488385Y-87264876D01*
X188490793Y-87268806D01*
X188989938Y-88117879D01*
X188997965Y-88131534D01*
X189000227Y-88135548D01*
X189369803Y-88820491D01*
X189475454Y-89016297D01*
X189477567Y-89020391D01*
X189805002Y-89684362D01*
X189920195Y-89917951D01*
X189922161Y-89922129D01*
X190331597Y-90835299D01*
X190333409Y-90839547D01*
X190489424Y-91224729D01*
X190640034Y-91596565D01*
X190709110Y-91767106D01*
X190710757Y-91771397D01*
X191035477Y-92665981D01*
X191052225Y-92712122D01*
X191053713Y-92716468D01*
X191226073Y-93251703D01*
X191360484Y-93669094D01*
X191361818Y-93673514D01*
X191633461Y-94636687D01*
X191634633Y-94641154D01*
X191870800Y-95613636D01*
X191871808Y-95618143D01*
X192072189Y-96598664D01*
X192073030Y-96603204D01*
X192237338Y-97590363D01*
X192238013Y-97594932D01*
X192366044Y-98587498D01*
X192366550Y-98592088D01*
X192370332Y-98633247D01*
X192456676Y-99572910D01*
X192458118Y-99588608D01*
X192458456Y-99593194D01*
X192479621Y-99977785D01*
X192513449Y-100592490D01*
X192513618Y-100597105D01*
X192531970Y-101598361D01*
X192531987Y-101601660D01*
X192528629Y-102029230D01*
X192528560Y-102032528D01*
X192494483Y-103033382D01*
X192494241Y-103037993D01*
X192423563Y-104036230D01*
X192423153Y-104040830D01*
X192409654Y-104166109D01*
X192316064Y-105034678D01*
X192315937Y-105035853D01*
X192315361Y-105040409D01*
X192238413Y-105571114D01*
X192171758Y-106030824D01*
X192171012Y-106035381D01*
X191991213Y-107019869D01*
X191990300Y-107024396D01*
X191788700Y-107937529D01*
X191774550Y-108001619D01*
X191773476Y-108006091D01*
X191547311Y-108877474D01*
X191522056Y-108974776D01*
X191520820Y-108979203D01*
X191439365Y-109251569D01*
X191234071Y-109938025D01*
X191232668Y-109942421D01*
X190955421Y-110759165D01*
X190910986Y-110890065D01*
X190909426Y-110894399D01*
X190553231Y-111829630D01*
X190551509Y-111833915D01*
X190161274Y-112755486D01*
X190159395Y-112759705D01*
X190056652Y-112979537D01*
X189795054Y-113539260D01*
X189735671Y-113666317D01*
X189733658Y-113670428D01*
X189297175Y-114521558D01*
X189276973Y-114560952D01*
X189274791Y-114565021D01*
X188785793Y-115438191D01*
X188783463Y-115442178D01*
X188262798Y-116296841D01*
X188260323Y-116300740D01*
X187708713Y-117135714D01*
X187706099Y-117139519D01*
X187204141Y-117841941D01*
X187124220Y-117953779D01*
X187121466Y-117957486D01*
X186510182Y-118749823D01*
X186507295Y-118753427D01*
X185867373Y-119522848D01*
X185864356Y-119526344D01*
X185196654Y-120271819D01*
X185193510Y-120275202D01*
X184498933Y-120995714D01*
X184495714Y-120998933D01*
X183978550Y-121497482D01*
X183775202Y-121693510D01*
X183771819Y-121696654D01*
X183026344Y-122364356D01*
X183022848Y-122367373D01*
X182253427Y-123007295D01*
X182249826Y-123010180D01*
X181457472Y-123621477D01*
X181453793Y-123624210D01*
X180753819Y-124124419D01*
X180639520Y-124206098D01*
X180635714Y-124208713D01*
X179800740Y-124760323D01*
X179796841Y-124762798D01*
X178942178Y-125283463D01*
X178938191Y-125285793D01*
X178065021Y-125774791D01*
X178060955Y-125776972D01*
X177170428Y-126233658D01*
X177166331Y-126235664D01*
X176587004Y-126506425D01*
X176259705Y-126659395D01*
X176255486Y-126661274D01*
X175457152Y-126999325D01*
X175333915Y-127051509D01*
X175329637Y-127053228D01*
X174394399Y-127409426D01*
X174390077Y-127410982D01*
X173853616Y-127593086D01*
X173442424Y-127732667D01*
X173438028Y-127734070D01*
X172479203Y-128020820D01*
X172474798Y-128022050D01*
X171506091Y-128273476D01*
X171501638Y-128274545D01*
X170654721Y-128461527D01*
X170524396Y-128490300D01*
X170519869Y-128491213D01*
X169535381Y-128671012D01*
X169530824Y-128671758D01*
X169126398Y-128730397D01*
X168540409Y-128815361D01*
X168535878Y-128815934D01*
X167729514Y-128902822D01*
X167540830Y-128923153D01*
X167536230Y-128923563D01*
X166537993Y-128994241D01*
X166533382Y-128994483D01*
X165625818Y-129025384D01*
X165533203Y-129028537D01*
X165528587Y-129028610D01*
X165192546Y-129027730D01*
X164527810Y-129025990D01*
X164523193Y-129025893D01*
X163523206Y-128986603D01*
X163518596Y-128986337D01*
X162520711Y-128910430D01*
X162516114Y-128909995D01*
X161679004Y-128815358D01*
X161521719Y-128797577D01*
X161517147Y-128796976D01*
X160527469Y-128648184D01*
X160522949Y-128647420D01*
X159539394Y-128462464D01*
X159534872Y-128461527D01*
X158909521Y-128320025D01*
X158558804Y-128240666D01*
X158554336Y-128239569D01*
X157586945Y-127983070D01*
X157582547Y-127981816D01*
X156625244Y-127690052D01*
X156620880Y-127688634D01*
X155674888Y-127361979D01*
X155670573Y-127360401D01*
X154737212Y-126999310D01*
X154732973Y-126997580D01*
X153813447Y-126602521D01*
X153809238Y-126600620D01*
X152904858Y-126172155D01*
X152900722Y-126170102D01*
X152012637Y-125708779D01*
X152008579Y-125706576D01*
X151720903Y-125543485D01*
X151137968Y-125213004D01*
X151134019Y-125210669D01*
X150282080Y-124685527D01*
X150278203Y-124683038D01*
X149568326Y-124208713D01*
X149446111Y-124127052D01*
X149442322Y-124124419D01*
X148631130Y-123538293D01*
X148627447Y-123535527D01*
X147838266Y-122920059D01*
X147834762Y-122917221D01*
X147536823Y-122666777D01*
X152721386Y-122666777D01*
X152730099Y-122678297D01*
X152818586Y-122743178D01*
X152826505Y-122748126D01*
X153042877Y-122861965D01*
X153051451Y-122865693D01*
X153282282Y-122946303D01*
X153291291Y-122948717D01*
X153531518Y-122994326D01*
X153540775Y-122995380D01*
X153785107Y-123004981D01*
X153794420Y-123004655D01*
X154037478Y-122978036D01*
X154046655Y-122976335D01*
X154283107Y-122914083D01*
X154291926Y-122911046D01*
X154516584Y-122814525D01*
X154524856Y-122810218D01*
X154732777Y-122681553D01*
X154734620Y-122680214D01*
X154742038Y-122668959D01*
X154740760Y-122666777D01*
X175461386Y-122666777D01*
X175470099Y-122678297D01*
X175558586Y-122743178D01*
X175566505Y-122748126D01*
X175782877Y-122861965D01*
X175791451Y-122865693D01*
X176022282Y-122946303D01*
X176031291Y-122948717D01*
X176271518Y-122994326D01*
X176280775Y-122995380D01*
X176525107Y-123004981D01*
X176534420Y-123004655D01*
X176777478Y-122978036D01*
X176786655Y-122976335D01*
X177023107Y-122914083D01*
X177031926Y-122911046D01*
X177256584Y-122814525D01*
X177264856Y-122810218D01*
X177472777Y-122681553D01*
X177474620Y-122680214D01*
X177482038Y-122668959D01*
X177475974Y-122658602D01*
X176482812Y-121665440D01*
X176468868Y-121657826D01*
X176467035Y-121657957D01*
X176460420Y-121662208D01*
X175468044Y-122654584D01*
X175461386Y-122666777D01*
X154740760Y-122666777D01*
X154735974Y-122658602D01*
X153742812Y-121665440D01*
X153728868Y-121657826D01*
X153727035Y-121657957D01*
X153720420Y-121662208D01*
X152728044Y-122654584D01*
X152721386Y-122666777D01*
X147536823Y-122666777D01*
X147068640Y-122273228D01*
X147065167Y-122270198D01*
X146628245Y-121874716D01*
X146323213Y-121598614D01*
X146319876Y-121595481D01*
X145968569Y-121253253D01*
X152018022Y-121253253D01*
X152029754Y-121497482D01*
X152030891Y-121506742D01*
X152078593Y-121746561D01*
X152081082Y-121755536D01*
X152163708Y-121985668D01*
X152167505Y-121994196D01*
X152283234Y-122209578D01*
X152288245Y-122217445D01*
X152345173Y-122293681D01*
X152356431Y-122302130D01*
X152368850Y-122295358D01*
X153357978Y-121306230D01*
X153364356Y-121294550D01*
X154094408Y-121294550D01*
X154094539Y-121296383D01*
X154098790Y-121302998D01*
X155093732Y-122297940D01*
X155106112Y-122304700D01*
X155114453Y-122298456D01*
X155232700Y-122114620D01*
X155237147Y-122106429D01*
X155337572Y-121883494D01*
X155340767Y-121874716D01*
X155407135Y-121639391D01*
X155408993Y-121630262D01*
X155440044Y-121386188D01*
X155440525Y-121379901D01*
X155442706Y-121296578D01*
X155442555Y-121290269D01*
X155439804Y-121253253D01*
X174758022Y-121253253D01*
X174769754Y-121497482D01*
X174770891Y-121506742D01*
X174818593Y-121746561D01*
X174821082Y-121755536D01*
X174903708Y-121985668D01*
X174907505Y-121994196D01*
X175023234Y-122209578D01*
X175028245Y-122217445D01*
X175085173Y-122293681D01*
X175096431Y-122302130D01*
X175108850Y-122295358D01*
X176097978Y-121306230D01*
X176104356Y-121294550D01*
X176834408Y-121294550D01*
X176834539Y-121296383D01*
X176838790Y-121302998D01*
X177833732Y-122297940D01*
X177846112Y-122304700D01*
X177854453Y-122298456D01*
X177972700Y-122114620D01*
X177977147Y-122106429D01*
X178077572Y-121883494D01*
X178080767Y-121874716D01*
X178147135Y-121639391D01*
X178148993Y-121630262D01*
X178180044Y-121386188D01*
X178180525Y-121379901D01*
X178182706Y-121296578D01*
X178182555Y-121290269D01*
X178164321Y-121044904D01*
X178162944Y-121035698D01*
X178108979Y-120797204D01*
X178106255Y-120788293D01*
X178017633Y-120560401D01*
X178013619Y-120551985D01*
X177892284Y-120339694D01*
X177887074Y-120331971D01*
X177855787Y-120292283D01*
X177843863Y-120283813D01*
X177832328Y-120290300D01*
X176842022Y-121280606D01*
X176834408Y-121294550D01*
X176104356Y-121294550D01*
X176105592Y-121292286D01*
X176105461Y-121290453D01*
X176101210Y-121283838D01*
X175106828Y-120289456D01*
X175093520Y-120282189D01*
X175083481Y-120289311D01*
X175078581Y-120295202D01*
X175073168Y-120302791D01*
X174946322Y-120511827D01*
X174942084Y-120520144D01*
X174847529Y-120745632D01*
X174844572Y-120754470D01*
X174784384Y-120991460D01*
X174782763Y-121000650D01*
X174758267Y-121243928D01*
X174758022Y-121253253D01*
X155439804Y-121253253D01*
X155424321Y-121044904D01*
X155422944Y-121035698D01*
X155368979Y-120797204D01*
X155366255Y-120788293D01*
X155277633Y-120560401D01*
X155273619Y-120551985D01*
X155152284Y-120339694D01*
X155147074Y-120331971D01*
X155115787Y-120292283D01*
X155103863Y-120283813D01*
X155092328Y-120290300D01*
X154102022Y-121280606D01*
X154094408Y-121294550D01*
X153364356Y-121294550D01*
X153365592Y-121292286D01*
X153365461Y-121290453D01*
X153361210Y-121283838D01*
X152366828Y-120289456D01*
X152353520Y-120282189D01*
X152343481Y-120289311D01*
X152338581Y-120295202D01*
X152333168Y-120302791D01*
X152206322Y-120511827D01*
X152202084Y-120520144D01*
X152107529Y-120745632D01*
X152104572Y-120754470D01*
X152044384Y-120991460D01*
X152042763Y-121000650D01*
X152018267Y-121243928D01*
X152018022Y-121253253D01*
X145968569Y-121253253D01*
X145676297Y-120968534D01*
X145603006Y-120897137D01*
X145599758Y-120893855D01*
X145071114Y-120339694D01*
X144908964Y-120169717D01*
X144905847Y-120166327D01*
X144686057Y-119918335D01*
X152719330Y-119918335D01*
X152723903Y-119928111D01*
X153717188Y-120921396D01*
X153731132Y-120929010D01*
X153732965Y-120928879D01*
X153739580Y-120924628D01*
X154732488Y-119931720D01*
X154738872Y-119920030D01*
X154737555Y-119918335D01*
X175459330Y-119918335D01*
X175463903Y-119928111D01*
X176457188Y-120921396D01*
X176471132Y-120929010D01*
X176472965Y-120928879D01*
X176479580Y-120924628D01*
X177472488Y-119931720D01*
X177478872Y-119920030D01*
X177469460Y-119907920D01*
X177343144Y-119820291D01*
X177335116Y-119815563D01*
X177115810Y-119707413D01*
X177107177Y-119703925D01*
X176874288Y-119629376D01*
X176865238Y-119627203D01*
X176623891Y-119587898D01*
X176614602Y-119587086D01*
X176370114Y-119583885D01*
X176360803Y-119584455D01*
X176118522Y-119617428D01*
X176109403Y-119619366D01*
X175874668Y-119687785D01*
X175865915Y-119691057D01*
X175643869Y-119793422D01*
X175635714Y-119797942D01*
X175468468Y-119907593D01*
X175459330Y-119918335D01*
X154737555Y-119918335D01*
X154729460Y-119907920D01*
X154603144Y-119820291D01*
X154595116Y-119815563D01*
X154375810Y-119707413D01*
X154367177Y-119703925D01*
X154134288Y-119629376D01*
X154125238Y-119627203D01*
X153883891Y-119587898D01*
X153874602Y-119587086D01*
X153630114Y-119583885D01*
X153620803Y-119584455D01*
X153378522Y-119617428D01*
X153369403Y-119619366D01*
X153134668Y-119687785D01*
X153125915Y-119691057D01*
X152903869Y-119793422D01*
X152895714Y-119797942D01*
X152728468Y-119907593D01*
X152719330Y-119918335D01*
X144686057Y-119918335D01*
X144242080Y-119417392D01*
X144239081Y-119413881D01*
X144101992Y-119247283D01*
X143603177Y-118641095D01*
X143600315Y-118637484D01*
X143453062Y-118444536D01*
X142993164Y-117841926D01*
X142990441Y-117838219D01*
X142817099Y-117592944D01*
X142496651Y-117139520D01*
X142412854Y-117020949D01*
X142410259Y-117017130D01*
X141863014Y-116179260D01*
X141860560Y-116175348D01*
X141520626Y-115610719D01*
X141344378Y-115317971D01*
X141342075Y-115313983D01*
X141209820Y-115074896D01*
X140857657Y-114438269D01*
X140855500Y-114434195D01*
X140818820Y-114361737D01*
X140678814Y-114085173D01*
X140403498Y-113541319D01*
X140401488Y-113537161D01*
X140027418Y-112725740D01*
X139982507Y-112628320D01*
X139980655Y-112624101D01*
X139595259Y-111700522D01*
X139593559Y-111696228D01*
X139421818Y-111238102D01*
X139242268Y-110759147D01*
X139240732Y-110754812D01*
X138969699Y-109942424D01*
X138924004Y-109805461D01*
X138922628Y-109801069D01*
X138640908Y-108840770D01*
X138639690Y-108836316D01*
X138393356Y-107866372D01*
X138392301Y-107861877D01*
X138340309Y-107620385D01*
X138181660Y-106883493D01*
X138180777Y-106878991D01*
X138156409Y-106741492D01*
X138045318Y-106114669D01*
X144242001Y-106114669D01*
X144242371Y-106121490D01*
X144247895Y-106172352D01*
X144251521Y-106187604D01*
X144296676Y-106308054D01*
X144305214Y-106323649D01*
X144381715Y-106425724D01*
X144394276Y-106438285D01*
X144496351Y-106514786D01*
X144511946Y-106523324D01*
X144632394Y-106568478D01*
X144647649Y-106572105D01*
X144698514Y-106577631D01*
X144705328Y-106578000D01*
X145027885Y-106578000D01*
X145043124Y-106573525D01*
X145044329Y-106572135D01*
X145046000Y-106564452D01*
X145046000Y-106559884D01*
X145554000Y-106559884D01*
X145558475Y-106575123D01*
X145559865Y-106576328D01*
X145567548Y-106577999D01*
X145894669Y-106577999D01*
X145901490Y-106577629D01*
X145952352Y-106572105D01*
X145967604Y-106568479D01*
X146088054Y-106523324D01*
X146103649Y-106514786D01*
X146205724Y-106438285D01*
X146218285Y-106425724D01*
X146294786Y-106323649D01*
X146303324Y-106308054D01*
X146348478Y-106187606D01*
X146352105Y-106172351D01*
X146357631Y-106121486D01*
X146357813Y-106118134D01*
X147041500Y-106118134D01*
X147048255Y-106180316D01*
X147099385Y-106316705D01*
X147186739Y-106433261D01*
X147303295Y-106520615D01*
X147439684Y-106571745D01*
X147501866Y-106578500D01*
X148698134Y-106578500D01*
X148760316Y-106571745D01*
X148896705Y-106520615D01*
X149013261Y-106433261D01*
X149014474Y-106431642D01*
X149073717Y-106399292D01*
X149144532Y-106404357D01*
X149201368Y-106446904D01*
X149226179Y-106513424D01*
X149226500Y-106522413D01*
X149226500Y-107099460D01*
X149225973Y-107110643D01*
X149224298Y-107118136D01*
X149224547Y-107126062D01*
X149224547Y-107126063D01*
X149226438Y-107186213D01*
X149226500Y-107190172D01*
X149226500Y-107218083D01*
X149226997Y-107222017D01*
X149226997Y-107222018D01*
X149227005Y-107222083D01*
X149227938Y-107233920D01*
X149229327Y-107278116D01*
X149234978Y-107297566D01*
X149238987Y-107316927D01*
X149241526Y-107337024D01*
X149244445Y-107344395D01*
X149244445Y-107344397D01*
X149257804Y-107378139D01*
X149261649Y-107389369D01*
X149265264Y-107401811D01*
X149273982Y-107431820D01*
X149278015Y-107438639D01*
X149278017Y-107438644D01*
X149284293Y-107449255D01*
X149292988Y-107467003D01*
X149300448Y-107485844D01*
X149305110Y-107492260D01*
X149305110Y-107492261D01*
X149326436Y-107521614D01*
X149332952Y-107531534D01*
X149355458Y-107569589D01*
X149369779Y-107583910D01*
X149382619Y-107598943D01*
X149394528Y-107615334D01*
X149400634Y-107620385D01*
X149428605Y-107643525D01*
X149437384Y-107651515D01*
X155833003Y-114047134D01*
X155867029Y-114109446D01*
X155861964Y-114180261D01*
X155853029Y-114199224D01*
X155376329Y-115024893D01*
X155374953Y-115028013D01*
X155354274Y-115074896D01*
X155354273Y-115074901D01*
X155351088Y-115082121D01*
X155327173Y-115225803D01*
X155328244Y-115234717D01*
X155338247Y-115317982D01*
X155344546Y-115370420D01*
X155401809Y-115504349D01*
X155494361Y-115616823D01*
X155500735Y-115621488D01*
X155500737Y-115621490D01*
X155542087Y-115651754D01*
X155542093Y-115651758D01*
X155544834Y-115653764D01*
X155547777Y-115655463D01*
X155547786Y-115655469D01*
X156954214Y-116467469D01*
X157706666Y-116901898D01*
X157709786Y-116903274D01*
X157756669Y-116923953D01*
X157756674Y-116923954D01*
X157763894Y-116927139D01*
X157771683Y-116928435D01*
X157771685Y-116928436D01*
X157898718Y-116949580D01*
X157898721Y-116949580D01*
X157907576Y-116951054D01*
X157951831Y-116945738D01*
X158043281Y-116934752D01*
X158043284Y-116934751D01*
X158052193Y-116933681D01*
X158186122Y-116876418D01*
X158193054Y-116870714D01*
X158292492Y-116788889D01*
X158292493Y-116788888D01*
X158298596Y-116783866D01*
X158303263Y-116777490D01*
X158333527Y-116736140D01*
X158333531Y-116736134D01*
X158335537Y-116733393D01*
X158337236Y-116730450D01*
X158337242Y-116730441D01*
X159323646Y-115021937D01*
X159583671Y-114571561D01*
X159588350Y-114560952D01*
X159605726Y-114521558D01*
X159605727Y-114521553D01*
X159608912Y-114514333D01*
X159610209Y-114506542D01*
X159631353Y-114379509D01*
X159631353Y-114379506D01*
X159632827Y-114370651D01*
X170567173Y-114370651D01*
X170568647Y-114379506D01*
X170568647Y-114379509D01*
X170589791Y-114506542D01*
X170591088Y-114514333D01*
X170594273Y-114521553D01*
X170594274Y-114521558D01*
X170611650Y-114560952D01*
X170616329Y-114571561D01*
X170876354Y-115021937D01*
X171862758Y-116730441D01*
X171862764Y-116730450D01*
X171864463Y-116733393D01*
X171866469Y-116736134D01*
X171866473Y-116736140D01*
X171896737Y-116777490D01*
X171901404Y-116783866D01*
X171907507Y-116788888D01*
X171907508Y-116788889D01*
X172006946Y-116870714D01*
X172013878Y-116876418D01*
X172147807Y-116933681D01*
X172156716Y-116934751D01*
X172156719Y-116934752D01*
X172248169Y-116945738D01*
X172292424Y-116951054D01*
X172301279Y-116949580D01*
X172301282Y-116949580D01*
X172428315Y-116928436D01*
X172428317Y-116928435D01*
X172436106Y-116927139D01*
X172443326Y-116923954D01*
X172443331Y-116923953D01*
X172490214Y-116903274D01*
X172493334Y-116901898D01*
X173245786Y-116467469D01*
X174652214Y-115655469D01*
X174652223Y-115655463D01*
X174655166Y-115653764D01*
X174657907Y-115651758D01*
X174657913Y-115651754D01*
X174699263Y-115621490D01*
X174699265Y-115621488D01*
X174705639Y-115616823D01*
X174798191Y-115504349D01*
X174855454Y-115370420D01*
X174861754Y-115317982D01*
X174871756Y-115234717D01*
X174872827Y-115225803D01*
X174848912Y-115082121D01*
X174845727Y-115074901D01*
X174845726Y-115074896D01*
X174825047Y-115028013D01*
X174823671Y-115024893D01*
X174217494Y-113974964D01*
X173577242Y-112866013D01*
X173577236Y-112866004D01*
X173575537Y-112863061D01*
X173573531Y-112860320D01*
X173573527Y-112860314D01*
X173543263Y-112818964D01*
X173543261Y-112818962D01*
X173538596Y-112812588D01*
X173426122Y-112720036D01*
X173292193Y-112662773D01*
X173283284Y-112661703D01*
X173283281Y-112661702D01*
X173183695Y-112649739D01*
X173147576Y-112645400D01*
X173138721Y-112646874D01*
X173138718Y-112646874D01*
X173011685Y-112668018D01*
X173011683Y-112668019D01*
X173003894Y-112669315D01*
X172996674Y-112672500D01*
X172996669Y-112672501D01*
X172956382Y-112690270D01*
X172946666Y-112694556D01*
X172354211Y-113036610D01*
X170787786Y-113940985D01*
X170787777Y-113940991D01*
X170784834Y-113942690D01*
X170782093Y-113944696D01*
X170782087Y-113944700D01*
X170740737Y-113974964D01*
X170740735Y-113974966D01*
X170734361Y-113979631D01*
X170641809Y-114092105D01*
X170584546Y-114226034D01*
X170567173Y-114370651D01*
X159632827Y-114370651D01*
X159615454Y-114226034D01*
X159558191Y-114092105D01*
X159465639Y-113979631D01*
X159459265Y-113974966D01*
X159459263Y-113974964D01*
X159417913Y-113944700D01*
X159417907Y-113944696D01*
X159415166Y-113942690D01*
X159412223Y-113940991D01*
X159412214Y-113940985D01*
X158376942Y-113343271D01*
X158327949Y-113291889D01*
X158314513Y-113222175D01*
X158340899Y-113156264D01*
X158350847Y-113145057D01*
X162710499Y-108785405D01*
X162772811Y-108751379D01*
X162799594Y-108748500D01*
X164108134Y-108748500D01*
X164170316Y-108741745D01*
X164306705Y-108690615D01*
X164423261Y-108603261D01*
X164510615Y-108486705D01*
X164515346Y-108474086D01*
X164554598Y-108369382D01*
X164597240Y-108312618D01*
X164663802Y-108287918D01*
X164733150Y-108303126D01*
X164767817Y-108331114D01*
X164796250Y-108363938D01*
X164968126Y-108506632D01*
X165161000Y-108619338D01*
X165369692Y-108699030D01*
X165374760Y-108700061D01*
X165374763Y-108700062D01*
X165482008Y-108721881D01*
X165588597Y-108743567D01*
X165593772Y-108743757D01*
X165593774Y-108743757D01*
X165806673Y-108751564D01*
X165806677Y-108751564D01*
X165811837Y-108751753D01*
X165816957Y-108751097D01*
X165816959Y-108751097D01*
X166028288Y-108724025D01*
X166028289Y-108724025D01*
X166033416Y-108723368D01*
X166038369Y-108721882D01*
X166038374Y-108721881D01*
X166082021Y-108708786D01*
X166153017Y-108708368D01*
X166204481Y-108737620D01*
X166224679Y-108756586D01*
X166231627Y-108760405D01*
X166231629Y-108760407D01*
X166242432Y-108766346D01*
X166258959Y-108777202D01*
X166268698Y-108784757D01*
X166268700Y-108784758D01*
X166274960Y-108789614D01*
X166315540Y-108807174D01*
X166326188Y-108812391D01*
X166350976Y-108826018D01*
X166364940Y-108833695D01*
X166372616Y-108835666D01*
X166372619Y-108835667D01*
X166384562Y-108838733D01*
X166403267Y-108845137D01*
X166421855Y-108853181D01*
X166429678Y-108854420D01*
X166429688Y-108854423D01*
X166465524Y-108860099D01*
X166477144Y-108862505D01*
X166508959Y-108870673D01*
X166519970Y-108873500D01*
X166540224Y-108873500D01*
X166559934Y-108875051D01*
X166579943Y-108878220D01*
X166587835Y-108877474D01*
X166606580Y-108875702D01*
X166623962Y-108874059D01*
X166635819Y-108873500D01*
X171961233Y-108873500D01*
X171972416Y-108874027D01*
X171979909Y-108875702D01*
X171987835Y-108875453D01*
X171987836Y-108875453D01*
X172047986Y-108873562D01*
X172051945Y-108873500D01*
X172079856Y-108873500D01*
X172083791Y-108873003D01*
X172083856Y-108872995D01*
X172095693Y-108872062D01*
X172127951Y-108871048D01*
X172131970Y-108870922D01*
X172139889Y-108870673D01*
X172159343Y-108865021D01*
X172178700Y-108861013D01*
X172190930Y-108859468D01*
X172190931Y-108859468D01*
X172198797Y-108858474D01*
X172206168Y-108855555D01*
X172206170Y-108855555D01*
X172239912Y-108842196D01*
X172251142Y-108838351D01*
X172285983Y-108828229D01*
X172285984Y-108828229D01*
X172293593Y-108826018D01*
X172300412Y-108821985D01*
X172300417Y-108821983D01*
X172311028Y-108815707D01*
X172328776Y-108807012D01*
X172347617Y-108799552D01*
X172383387Y-108773564D01*
X172393307Y-108767048D01*
X172424535Y-108748580D01*
X172424538Y-108748578D01*
X172431362Y-108744542D01*
X172445683Y-108730221D01*
X172460717Y-108717380D01*
X172470694Y-108710131D01*
X172477107Y-108705472D01*
X172505298Y-108671395D01*
X172513288Y-108662616D01*
X172924549Y-108251355D01*
X172986861Y-108217329D01*
X173038762Y-108216979D01*
X173218597Y-108253567D01*
X173223772Y-108253757D01*
X173223774Y-108253757D01*
X173436673Y-108261564D01*
X173436677Y-108261564D01*
X173441837Y-108261753D01*
X173446957Y-108261097D01*
X173446959Y-108261097D01*
X173658288Y-108234025D01*
X173658289Y-108234025D01*
X173663416Y-108233368D01*
X173668366Y-108231883D01*
X173872429Y-108170661D01*
X173872434Y-108170659D01*
X173877384Y-108169174D01*
X174077994Y-108070896D01*
X174259860Y-107941173D01*
X174418096Y-107783489D01*
X174548453Y-107602077D01*
X174551895Y-107595114D01*
X174645136Y-107406453D01*
X174645137Y-107406451D01*
X174647430Y-107401811D01*
X174702036Y-107222083D01*
X174710865Y-107193023D01*
X174710865Y-107193021D01*
X174712370Y-107188069D01*
X174741529Y-106966590D01*
X174742033Y-106945954D01*
X174743074Y-106903365D01*
X174743074Y-106903361D01*
X174743156Y-106900000D01*
X174724852Y-106677361D01*
X174670431Y-106460702D01*
X174581354Y-106255840D01*
X174510708Y-106146638D01*
X174462822Y-106072617D01*
X174462820Y-106072614D01*
X174460014Y-106068277D01*
X174309670Y-105903051D01*
X174305619Y-105899852D01*
X174305615Y-105899848D01*
X174138414Y-105767800D01*
X174138410Y-105767798D01*
X174134359Y-105764598D01*
X174093053Y-105741796D01*
X174043084Y-105691364D01*
X174028312Y-105621921D01*
X174053428Y-105555516D01*
X174080780Y-105528909D01*
X174124603Y-105497650D01*
X174259860Y-105401173D01*
X174284906Y-105376215D01*
X174401392Y-105260135D01*
X174418096Y-105243489D01*
X174548453Y-105062077D01*
X174561995Y-105034678D01*
X174645136Y-104866453D01*
X174645137Y-104866451D01*
X174647430Y-104861811D01*
X174700033Y-104688674D01*
X174710865Y-104653023D01*
X174710865Y-104653021D01*
X174712370Y-104648069D01*
X174741529Y-104426590D01*
X174742733Y-104377319D01*
X174743074Y-104363365D01*
X174743074Y-104363361D01*
X174743156Y-104360000D01*
X174724852Y-104137361D01*
X174670431Y-103920702D01*
X174581354Y-103715840D01*
X174460014Y-103528277D01*
X174309670Y-103363051D01*
X174305619Y-103359852D01*
X174305615Y-103359848D01*
X174138414Y-103227800D01*
X174138410Y-103227798D01*
X174134359Y-103224598D01*
X174093053Y-103201796D01*
X174043084Y-103151364D01*
X174028312Y-103081921D01*
X174053428Y-103015516D01*
X174080780Y-102988909D01*
X174148901Y-102940319D01*
X174259860Y-102861173D01*
X174272945Y-102848134D01*
X178631500Y-102848134D01*
X178638255Y-102910316D01*
X178689385Y-103046705D01*
X178776739Y-103163261D01*
X178893295Y-103250615D01*
X179029684Y-103301745D01*
X179091866Y-103308500D01*
X181588134Y-103308500D01*
X181650316Y-103301745D01*
X181786705Y-103250615D01*
X181903261Y-103163261D01*
X181990615Y-103046705D01*
X182018111Y-102973359D01*
X186831386Y-102973359D01*
X186840099Y-102984879D01*
X186928586Y-103049760D01*
X186936505Y-103054708D01*
X187152877Y-103168547D01*
X187161451Y-103172275D01*
X187392282Y-103252885D01*
X187401291Y-103255299D01*
X187641518Y-103300908D01*
X187650775Y-103301962D01*
X187895107Y-103311563D01*
X187904420Y-103311237D01*
X188147478Y-103284618D01*
X188156655Y-103282917D01*
X188393107Y-103220665D01*
X188401926Y-103217628D01*
X188626584Y-103121107D01*
X188634856Y-103116800D01*
X188842777Y-102988135D01*
X188844620Y-102986796D01*
X188852038Y-102975541D01*
X188845974Y-102965184D01*
X187852812Y-101972022D01*
X187838868Y-101964408D01*
X187837035Y-101964539D01*
X187830420Y-101968790D01*
X186838044Y-102961166D01*
X186831386Y-102973359D01*
X182018111Y-102973359D01*
X182041745Y-102910316D01*
X182048500Y-102848134D01*
X182048500Y-101559835D01*
X186128022Y-101559835D01*
X186139754Y-101804064D01*
X186140891Y-101813324D01*
X186188593Y-102053143D01*
X186191082Y-102062118D01*
X186273708Y-102292250D01*
X186277505Y-102300778D01*
X186393234Y-102516160D01*
X186398245Y-102524027D01*
X186455173Y-102600263D01*
X186466431Y-102608712D01*
X186478850Y-102601940D01*
X187467978Y-101612812D01*
X187474356Y-101601132D01*
X188204408Y-101601132D01*
X188204539Y-101602965D01*
X188208790Y-101609580D01*
X189203732Y-102604522D01*
X189216112Y-102611282D01*
X189224453Y-102605038D01*
X189342700Y-102421202D01*
X189347147Y-102413011D01*
X189447572Y-102190076D01*
X189450767Y-102181298D01*
X189517135Y-101945973D01*
X189518993Y-101936844D01*
X189550044Y-101692770D01*
X189550525Y-101686483D01*
X189552706Y-101603160D01*
X189552555Y-101596851D01*
X189534321Y-101351486D01*
X189532944Y-101342280D01*
X189478979Y-101103786D01*
X189476255Y-101094875D01*
X189387633Y-100866983D01*
X189383619Y-100858567D01*
X189262284Y-100646276D01*
X189257074Y-100638553D01*
X189225787Y-100598865D01*
X189213863Y-100590395D01*
X189202328Y-100596882D01*
X188212022Y-101587188D01*
X188204408Y-101601132D01*
X187474356Y-101601132D01*
X187475592Y-101598868D01*
X187475461Y-101597035D01*
X187471210Y-101590420D01*
X186476828Y-100596038D01*
X186463520Y-100588771D01*
X186453481Y-100595893D01*
X186448581Y-100601784D01*
X186443168Y-100609373D01*
X186316322Y-100818409D01*
X186312084Y-100826726D01*
X186217529Y-101052214D01*
X186214572Y-101061052D01*
X186154384Y-101298042D01*
X186152763Y-101307232D01*
X186128267Y-101550510D01*
X186128022Y-101559835D01*
X182048500Y-101559835D01*
X182048500Y-100351866D01*
X182041745Y-100289684D01*
X182017465Y-100224917D01*
X186829330Y-100224917D01*
X186833903Y-100234693D01*
X187827188Y-101227978D01*
X187841132Y-101235592D01*
X187842965Y-101235461D01*
X187849580Y-101231210D01*
X188842488Y-100238302D01*
X188848872Y-100226612D01*
X188839460Y-100214502D01*
X188713144Y-100126873D01*
X188705116Y-100122145D01*
X188485810Y-100013995D01*
X188477177Y-100010507D01*
X188244288Y-99935958D01*
X188235238Y-99933785D01*
X187993891Y-99894480D01*
X187984602Y-99893668D01*
X187740114Y-99890467D01*
X187730803Y-99891037D01*
X187488522Y-99924010D01*
X187479403Y-99925948D01*
X187244668Y-99994367D01*
X187235915Y-99997639D01*
X187013869Y-100100004D01*
X187005714Y-100104524D01*
X186838468Y-100214175D01*
X186829330Y-100224917D01*
X182017465Y-100224917D01*
X181990615Y-100153295D01*
X181903261Y-100036739D01*
X181786705Y-99949385D01*
X181650316Y-99898255D01*
X181588134Y-99891500D01*
X179091866Y-99891500D01*
X179029684Y-99898255D01*
X178893295Y-99949385D01*
X178776739Y-100036739D01*
X178689385Y-100153295D01*
X178638255Y-100289684D01*
X178631500Y-100351866D01*
X178631500Y-102848134D01*
X174272945Y-102848134D01*
X174418096Y-102703489D01*
X174477594Y-102620689D01*
X174545435Y-102526277D01*
X174548453Y-102522077D01*
X174551378Y-102516160D01*
X174645136Y-102326453D01*
X174645137Y-102326451D01*
X174647430Y-102321811D01*
X174712370Y-102108069D01*
X174741529Y-101886590D01*
X174742268Y-101856350D01*
X174743074Y-101823365D01*
X174743074Y-101823361D01*
X174743156Y-101820000D01*
X174724852Y-101597361D01*
X174670431Y-101380702D01*
X174581354Y-101175840D01*
X174528975Y-101094875D01*
X174462822Y-100992617D01*
X174462820Y-100992614D01*
X174460014Y-100988277D01*
X174309670Y-100823051D01*
X174305619Y-100819852D01*
X174305615Y-100819848D01*
X174138414Y-100687800D01*
X174138410Y-100687798D01*
X174134359Y-100684598D01*
X174092569Y-100661529D01*
X174042598Y-100611097D01*
X174027826Y-100541654D01*
X174052942Y-100475248D01*
X174080294Y-100448641D01*
X174255328Y-100323792D01*
X174263200Y-100317139D01*
X174414052Y-100166812D01*
X174420730Y-100158965D01*
X174545003Y-99986020D01*
X174550313Y-99977183D01*
X174644670Y-99786267D01*
X174648469Y-99776672D01*
X174710377Y-99572910D01*
X174712555Y-99562837D01*
X174713986Y-99551962D01*
X174711775Y-99537778D01*
X174698617Y-99534000D01*
X173252000Y-99534000D01*
X173183879Y-99513998D01*
X173137386Y-99460342D01*
X173126000Y-99408000D01*
X173126000Y-99007885D01*
X173634000Y-99007885D01*
X173638475Y-99023124D01*
X173639865Y-99024329D01*
X173647548Y-99026000D01*
X174698344Y-99026000D01*
X174711875Y-99022027D01*
X174713180Y-99012947D01*
X174671214Y-98845875D01*
X174667894Y-98836124D01*
X174582972Y-98640814D01*
X174578105Y-98631739D01*
X174462426Y-98452926D01*
X174456136Y-98444757D01*
X174312806Y-98287240D01*
X174305273Y-98280215D01*
X174138139Y-98148222D01*
X174129552Y-98142517D01*
X174092116Y-98121851D01*
X174042146Y-98071419D01*
X174027374Y-98001976D01*
X174052490Y-97935571D01*
X174079842Y-97908964D01*
X174255327Y-97783792D01*
X174263200Y-97777139D01*
X174414052Y-97626812D01*
X174420730Y-97618965D01*
X174545003Y-97446020D01*
X174550313Y-97437183D01*
X174644670Y-97246267D01*
X174648469Y-97236672D01*
X174710377Y-97032910D01*
X174712555Y-97022837D01*
X174713986Y-97011962D01*
X174711775Y-96997778D01*
X174698617Y-96994000D01*
X173652115Y-96994000D01*
X173636876Y-96998475D01*
X173635671Y-96999865D01*
X173634000Y-97007548D01*
X173634000Y-99007885D01*
X173126000Y-99007885D01*
X173126000Y-96467885D01*
X173634000Y-96467885D01*
X173638475Y-96483124D01*
X173639865Y-96484329D01*
X173647548Y-96486000D01*
X174698344Y-96486000D01*
X174711875Y-96482027D01*
X174713180Y-96472947D01*
X174671214Y-96305875D01*
X174667894Y-96296124D01*
X174582972Y-96100814D01*
X174578105Y-96091739D01*
X174462426Y-95912926D01*
X174456136Y-95904757D01*
X174312806Y-95747240D01*
X174305273Y-95740215D01*
X174138139Y-95608222D01*
X174129552Y-95602517D01*
X173943117Y-95499599D01*
X173933705Y-95495369D01*
X173732959Y-95424280D01*
X173722988Y-95421646D01*
X173651837Y-95408972D01*
X173638540Y-95410432D01*
X173634000Y-95424989D01*
X173634000Y-96467885D01*
X173126000Y-96467885D01*
X173126000Y-95423102D01*
X173122082Y-95409758D01*
X173107806Y-95407771D01*
X173069324Y-95413660D01*
X173059288Y-95416051D01*
X172856868Y-95482212D01*
X172847359Y-95486209D01*
X172658463Y-95584542D01*
X172649738Y-95590036D01*
X172479433Y-95717905D01*
X172471726Y-95724748D01*
X172324590Y-95878717D01*
X172318109Y-95886722D01*
X172213498Y-96040074D01*
X172158587Y-96085076D01*
X172088062Y-96093247D01*
X172024315Y-96061993D01*
X172003618Y-96037509D01*
X171922822Y-95912617D01*
X171922820Y-95912614D01*
X171920014Y-95908277D01*
X171769670Y-95743051D01*
X171765619Y-95739852D01*
X171765615Y-95739848D01*
X171598414Y-95607800D01*
X171598410Y-95607798D01*
X171594359Y-95604598D01*
X171558028Y-95584542D01*
X171509251Y-95557616D01*
X171398789Y-95496638D01*
X171393920Y-95494914D01*
X171393916Y-95494912D01*
X171193087Y-95423795D01*
X171193083Y-95423794D01*
X171188212Y-95422069D01*
X171183119Y-95421162D01*
X171183116Y-95421161D01*
X170973373Y-95383800D01*
X170973367Y-95383799D01*
X170968284Y-95382894D01*
X170894452Y-95381992D01*
X170750081Y-95380228D01*
X170750079Y-95380228D01*
X170744911Y-95380165D01*
X170524091Y-95413955D01*
X170311756Y-95483357D01*
X170113607Y-95586507D01*
X170109474Y-95589610D01*
X170109471Y-95589612D01*
X169945268Y-95712899D01*
X169934965Y-95720635D01*
X169780629Y-95882138D01*
X169654743Y-96066680D01*
X169638899Y-96100814D01*
X169565293Y-96259385D01*
X169560688Y-96269305D01*
X169500989Y-96484570D01*
X169477251Y-96706695D01*
X169490110Y-96929715D01*
X169491247Y-96934761D01*
X169491248Y-96934767D01*
X169504597Y-96994000D01*
X169539222Y-97147639D01*
X169623266Y-97354616D01*
X169739987Y-97545088D01*
X169886250Y-97713938D01*
X170058126Y-97856632D01*
X170096978Y-97879335D01*
X170131445Y-97899476D01*
X170180169Y-97951114D01*
X170193240Y-98020897D01*
X170166509Y-98086669D01*
X170126055Y-98120027D01*
X170113607Y-98126507D01*
X170109474Y-98129610D01*
X170109471Y-98129612D01*
X169934965Y-98260635D01*
X169933594Y-98258809D01*
X169878038Y-98284993D01*
X169858608Y-98286500D01*
X166892450Y-98286500D01*
X166824329Y-98266498D01*
X166811229Y-98255941D01*
X166811175Y-98256011D01*
X166804915Y-98251155D01*
X166799307Y-98245547D01*
X166792483Y-98241511D01*
X166792480Y-98241509D01*
X166662927Y-98164892D01*
X166662928Y-98164892D01*
X166656101Y-98160855D01*
X166648490Y-98158644D01*
X166648488Y-98158643D01*
X166596269Y-98143472D01*
X166496331Y-98114438D01*
X166489926Y-98113934D01*
X166489921Y-98113933D01*
X166461458Y-98111693D01*
X166461450Y-98111693D01*
X166459002Y-98111500D01*
X165300998Y-98111500D01*
X165298550Y-98111693D01*
X165298542Y-98111693D01*
X165270079Y-98113933D01*
X165270074Y-98113934D01*
X165263669Y-98114438D01*
X165163731Y-98143472D01*
X165111512Y-98158643D01*
X165111510Y-98158644D01*
X165103899Y-98160855D01*
X165097072Y-98164892D01*
X165097073Y-98164892D01*
X164967520Y-98241509D01*
X164967517Y-98241511D01*
X164960693Y-98245547D01*
X164843047Y-98363193D01*
X164840794Y-98367002D01*
X164784504Y-98407655D01*
X164713612Y-98411506D01*
X164651891Y-98376418D01*
X164645224Y-98368724D01*
X164641953Y-98363193D01*
X164524307Y-98245547D01*
X164517483Y-98241511D01*
X164517480Y-98241509D01*
X164387927Y-98164892D01*
X164387928Y-98164892D01*
X164381101Y-98160855D01*
X164373490Y-98158644D01*
X164373488Y-98158643D01*
X164329347Y-98145819D01*
X164269511Y-98107606D01*
X164239834Y-98043110D01*
X164238500Y-98024822D01*
X164238500Y-96099595D01*
X164258502Y-96031474D01*
X164275405Y-96010499D01*
X164435501Y-95850404D01*
X164497813Y-95816379D01*
X164524596Y-95813500D01*
X164798614Y-95813499D01*
X164816634Y-95813499D01*
X164819492Y-95813236D01*
X164819501Y-95813236D01*
X164855004Y-95809974D01*
X164890062Y-95806753D01*
X164896441Y-95804754D01*
X165046450Y-95757744D01*
X165046452Y-95757743D01*
X165053699Y-95755472D01*
X165200381Y-95666639D01*
X165321639Y-95545381D01*
X165410472Y-95398699D01*
X165416261Y-95380228D01*
X165433517Y-95325164D01*
X165461753Y-95235062D01*
X165468500Y-95161635D01*
X165468499Y-94648366D01*
X165468234Y-94645474D01*
X165462364Y-94581592D01*
X165461753Y-94574938D01*
X165459752Y-94568554D01*
X165412744Y-94418550D01*
X165412743Y-94418548D01*
X165410472Y-94411301D01*
X165321639Y-94264619D01*
X165226115Y-94169095D01*
X165192089Y-94106783D01*
X165197154Y-94035968D01*
X165226115Y-93990905D01*
X165321639Y-93895381D01*
X165410472Y-93748699D01*
X165461753Y-93585062D01*
X165468500Y-93511635D01*
X165468499Y-92998366D01*
X165468234Y-92995474D01*
X165462364Y-92931592D01*
X165461753Y-92924938D01*
X165410472Y-92761301D01*
X165321639Y-92614619D01*
X165200381Y-92493361D01*
X165179229Y-92480551D01*
X165131322Y-92428154D01*
X165118500Y-92372775D01*
X165118500Y-77347033D01*
X165138502Y-77278912D01*
X165192158Y-77232419D01*
X165262432Y-77222315D01*
X165321337Y-77247612D01*
X165324347Y-77250617D01*
X165473671Y-77342661D01*
X165480619Y-77344966D01*
X165480620Y-77344966D01*
X165633634Y-77395719D01*
X165633636Y-77395719D01*
X165640165Y-77397885D01*
X165743769Y-77408500D01*
X165763885Y-77408500D01*
X166240501Y-77408499D01*
X166308621Y-77428501D01*
X166355114Y-77482156D01*
X166366500Y-77534499D01*
X166366500Y-90887476D01*
X166346498Y-90955597D01*
X166334142Y-90971779D01*
X166260960Y-91053056D01*
X166165473Y-91218444D01*
X166106458Y-91400072D01*
X166086496Y-91590000D01*
X166106458Y-91779928D01*
X166165473Y-91961556D01*
X166260960Y-92126944D01*
X166265378Y-92131851D01*
X166265379Y-92131852D01*
X166359789Y-92236705D01*
X166388747Y-92268866D01*
X166487843Y-92340864D01*
X166512313Y-92358642D01*
X166543248Y-92381118D01*
X166549276Y-92383802D01*
X166549278Y-92383803D01*
X166683974Y-92443773D01*
X166717712Y-92458794D01*
X166811112Y-92478647D01*
X166898056Y-92497128D01*
X166898061Y-92497128D01*
X166904513Y-92498500D01*
X167095487Y-92498500D01*
X167101939Y-92497128D01*
X167101944Y-92497128D01*
X167188888Y-92478647D01*
X167282288Y-92458794D01*
X167316026Y-92443773D01*
X167450722Y-92383803D01*
X167450724Y-92383802D01*
X167456752Y-92381118D01*
X167487688Y-92358642D01*
X167512157Y-92340864D01*
X167611253Y-92268866D01*
X167640211Y-92236705D01*
X167734621Y-92131852D01*
X167734622Y-92131851D01*
X167739040Y-92126944D01*
X167834527Y-91961556D01*
X167893542Y-91779928D01*
X167913504Y-91590000D01*
X167893542Y-91400072D01*
X167834527Y-91218444D01*
X167739040Y-91053056D01*
X167665863Y-90971785D01*
X167635147Y-90907779D01*
X167633500Y-90887476D01*
X167633500Y-88829349D01*
X170567173Y-88829349D01*
X170584546Y-88973966D01*
X170641809Y-89107895D01*
X170734361Y-89220369D01*
X170740735Y-89225034D01*
X170740737Y-89225036D01*
X170782087Y-89255300D01*
X170782093Y-89255304D01*
X170784834Y-89257310D01*
X170787777Y-89259009D01*
X170787786Y-89259015D01*
X172194214Y-90071015D01*
X172946666Y-90505444D01*
X172949786Y-90506820D01*
X172996669Y-90527499D01*
X172996674Y-90527500D01*
X173003894Y-90530685D01*
X173011683Y-90531981D01*
X173011685Y-90531982D01*
X173138718Y-90553126D01*
X173138721Y-90553126D01*
X173147576Y-90554600D01*
X173191831Y-90549284D01*
X173283281Y-90538298D01*
X173283284Y-90538297D01*
X173292193Y-90537227D01*
X173426122Y-90479964D01*
X173538596Y-90387412D01*
X173543263Y-90381036D01*
X173573527Y-90339686D01*
X173573531Y-90339680D01*
X173575537Y-90336939D01*
X173577236Y-90333996D01*
X173577242Y-90333987D01*
X174821964Y-88178063D01*
X174823671Y-88175107D01*
X174842010Y-88133528D01*
X174845726Y-88125104D01*
X174845727Y-88125099D01*
X174848912Y-88117879D01*
X174872827Y-87974197D01*
X174855454Y-87829580D01*
X174798191Y-87695651D01*
X174705639Y-87583177D01*
X174699265Y-87578512D01*
X174699263Y-87578510D01*
X174657913Y-87548246D01*
X174657907Y-87548242D01*
X174655166Y-87546236D01*
X174652223Y-87544537D01*
X174652214Y-87544531D01*
X173245786Y-86732531D01*
X172493334Y-86298102D01*
X172483618Y-86293816D01*
X172443331Y-86276047D01*
X172443326Y-86276046D01*
X172436106Y-86272861D01*
X172428317Y-86271565D01*
X172428315Y-86271564D01*
X172301282Y-86250420D01*
X172301279Y-86250420D01*
X172292424Y-86248946D01*
X172248169Y-86254262D01*
X172156719Y-86265248D01*
X172156716Y-86265249D01*
X172147807Y-86266319D01*
X172013878Y-86323582D01*
X171901404Y-86416134D01*
X171896739Y-86422508D01*
X171896737Y-86422510D01*
X171866473Y-86463860D01*
X171866469Y-86463866D01*
X171864463Y-86466607D01*
X171862764Y-86469550D01*
X171862758Y-86469559D01*
X171222506Y-87578510D01*
X170616329Y-88628439D01*
X170614953Y-88631559D01*
X170594274Y-88678442D01*
X170594273Y-88678447D01*
X170591088Y-88685667D01*
X170589792Y-88693456D01*
X170589791Y-88693458D01*
X170569472Y-88815538D01*
X170567173Y-88829349D01*
X167633500Y-88829349D01*
X167633500Y-83279941D01*
X175461386Y-83279941D01*
X175470099Y-83291461D01*
X175558586Y-83356342D01*
X175566505Y-83361290D01*
X175782877Y-83475129D01*
X175791451Y-83478857D01*
X176022282Y-83559467D01*
X176031291Y-83561881D01*
X176271518Y-83607490D01*
X176280775Y-83608544D01*
X176525107Y-83618145D01*
X176534420Y-83617819D01*
X176777478Y-83591200D01*
X176786655Y-83589499D01*
X177023107Y-83527247D01*
X177031926Y-83524210D01*
X177256584Y-83427689D01*
X177264856Y-83423382D01*
X177472777Y-83294717D01*
X177474620Y-83293378D01*
X177482038Y-83282123D01*
X177475974Y-83271766D01*
X176482812Y-82278604D01*
X176468868Y-82270990D01*
X176467035Y-82271121D01*
X176460420Y-82275372D01*
X175468044Y-83267748D01*
X175461386Y-83279941D01*
X167633500Y-83279941D01*
X167633500Y-81866417D01*
X174758022Y-81866417D01*
X174769754Y-82110646D01*
X174770891Y-82119906D01*
X174818593Y-82359725D01*
X174821082Y-82368700D01*
X174903708Y-82598832D01*
X174907505Y-82607360D01*
X175023234Y-82822742D01*
X175028245Y-82830609D01*
X175085173Y-82906845D01*
X175096431Y-82915294D01*
X175108850Y-82908522D01*
X176097978Y-81919394D01*
X176104356Y-81907714D01*
X176834408Y-81907714D01*
X176834539Y-81909547D01*
X176838790Y-81916162D01*
X177833732Y-82911104D01*
X177846112Y-82917864D01*
X177854453Y-82911620D01*
X177972700Y-82727784D01*
X177977147Y-82719593D01*
X178077572Y-82496658D01*
X178080767Y-82487880D01*
X178147135Y-82252555D01*
X178148993Y-82243426D01*
X178180044Y-81999352D01*
X178180525Y-81993065D01*
X178182706Y-81909742D01*
X178182555Y-81903433D01*
X178164321Y-81658068D01*
X178162944Y-81648862D01*
X178108979Y-81410368D01*
X178106255Y-81401457D01*
X178017633Y-81173565D01*
X178013619Y-81165149D01*
X177892284Y-80952858D01*
X177887074Y-80945135D01*
X177855787Y-80905447D01*
X177843863Y-80896977D01*
X177832328Y-80903464D01*
X176842022Y-81893770D01*
X176834408Y-81907714D01*
X176104356Y-81907714D01*
X176105592Y-81905450D01*
X176105461Y-81903617D01*
X176101210Y-81897002D01*
X175106828Y-80902620D01*
X175093520Y-80895353D01*
X175083481Y-80902475D01*
X175078581Y-80908366D01*
X175073168Y-80915955D01*
X174946322Y-81124991D01*
X174942084Y-81133308D01*
X174847529Y-81358796D01*
X174844572Y-81367634D01*
X174784384Y-81604624D01*
X174782763Y-81613814D01*
X174758267Y-81857092D01*
X174758022Y-81866417D01*
X167633500Y-81866417D01*
X167633500Y-80531499D01*
X175459330Y-80531499D01*
X175463903Y-80541275D01*
X176457188Y-81534560D01*
X176471132Y-81542174D01*
X176472965Y-81542043D01*
X176479580Y-81537792D01*
X177472488Y-80544884D01*
X177478872Y-80533194D01*
X177469460Y-80521084D01*
X177343144Y-80433455D01*
X177335116Y-80428727D01*
X177115810Y-80320577D01*
X177107177Y-80317089D01*
X176874288Y-80242540D01*
X176865238Y-80240367D01*
X176623891Y-80201062D01*
X176614602Y-80200250D01*
X176370114Y-80197049D01*
X176360803Y-80197619D01*
X176118522Y-80230592D01*
X176109403Y-80232530D01*
X175874668Y-80300949D01*
X175865915Y-80304221D01*
X175643869Y-80406586D01*
X175635714Y-80411106D01*
X175468468Y-80520757D01*
X175459330Y-80531499D01*
X167633500Y-80531499D01*
X167633500Y-77241268D01*
X167634027Y-77230085D01*
X167635702Y-77222592D01*
X167633562Y-77154501D01*
X167633500Y-77150544D01*
X167633500Y-77122644D01*
X167632996Y-77118653D01*
X167632063Y-77106811D01*
X167630923Y-77070536D01*
X167630674Y-77062611D01*
X167625021Y-77043152D01*
X167621012Y-77023793D01*
X167620846Y-77022483D01*
X167618474Y-77003703D01*
X167615558Y-76996337D01*
X167615556Y-76996331D01*
X167602200Y-76962598D01*
X167598355Y-76951368D01*
X167588230Y-76916517D01*
X167588230Y-76916516D01*
X167586019Y-76908907D01*
X167575705Y-76891466D01*
X167567008Y-76873713D01*
X167562472Y-76862258D01*
X167559552Y-76854883D01*
X167533563Y-76819112D01*
X167527047Y-76809192D01*
X167508578Y-76777963D01*
X167504542Y-76771138D01*
X167490221Y-76756817D01*
X167477380Y-76741783D01*
X167470131Y-76731806D01*
X167465472Y-76725393D01*
X167459368Y-76720343D01*
X167459363Y-76720338D01*
X167431402Y-76697207D01*
X167422621Y-76689217D01*
X167070404Y-76336999D01*
X167036379Y-76274687D01*
X167033500Y-76247904D01*
X167033499Y-75697037D01*
X167033499Y-75693770D01*
X167022616Y-75588871D01*
X167020437Y-75582340D01*
X167020436Y-75582335D01*
X166969420Y-75429422D01*
X166967102Y-75422474D01*
X166874797Y-75273311D01*
X166750653Y-75149383D01*
X166601329Y-75057339D01*
X166520229Y-75030439D01*
X166441366Y-75004281D01*
X166441364Y-75004281D01*
X166434835Y-75002115D01*
X166331231Y-74991500D01*
X166039766Y-74991500D01*
X165743770Y-74991501D01*
X165638871Y-75002384D01*
X165632340Y-75004563D01*
X165632335Y-75004564D01*
X165484189Y-75053990D01*
X165472474Y-75057898D01*
X165323311Y-75150203D01*
X165199383Y-75274347D01*
X165197581Y-75277270D01*
X165140971Y-75317408D01*
X165070048Y-75320642D01*
X165008636Y-75285018D01*
X165003084Y-75278622D01*
X164999797Y-75273311D01*
X164875653Y-75149383D01*
X164726329Y-75057339D01*
X164645229Y-75030439D01*
X164566366Y-75004281D01*
X164566364Y-75004281D01*
X164559835Y-75002115D01*
X164456231Y-74991500D01*
X164164766Y-74991500D01*
X163868770Y-74991501D01*
X163763871Y-75002384D01*
X163757340Y-75004563D01*
X163757335Y-75004564D01*
X163609189Y-75053990D01*
X163597474Y-75057898D01*
X163448311Y-75150203D01*
X163324383Y-75274347D01*
X163232339Y-75423671D01*
X163177115Y-75590165D01*
X163166500Y-75693769D01*
X163166501Y-76706230D01*
X163177384Y-76811129D01*
X163179563Y-76817660D01*
X163179564Y-76817665D01*
X163204186Y-76891466D01*
X163232898Y-76977526D01*
X163325203Y-77126689D01*
X163449347Y-77250617D01*
X163455577Y-77254457D01*
X163455578Y-77254458D01*
X163488986Y-77275051D01*
X163598671Y-77342661D01*
X163605619Y-77344966D01*
X163605620Y-77344966D01*
X163765165Y-77397885D01*
X163765345Y-77397945D01*
X163823645Y-77438462D01*
X163850784Y-77504067D01*
X163851500Y-77517479D01*
X163851500Y-92372775D01*
X163831498Y-92440896D01*
X163790771Y-92480551D01*
X163769619Y-92493361D01*
X163648361Y-92614619D01*
X163559528Y-92761301D01*
X163508247Y-92924938D01*
X163501500Y-92998365D01*
X163501501Y-93511634D01*
X163501764Y-93514492D01*
X163501764Y-93514501D01*
X163505026Y-93550004D01*
X163508247Y-93585062D01*
X163559528Y-93748699D01*
X163648361Y-93895381D01*
X163743885Y-93990905D01*
X163777911Y-94053217D01*
X163772846Y-94124032D01*
X163743885Y-94169095D01*
X163648361Y-94264619D01*
X163559528Y-94411301D01*
X163557257Y-94418548D01*
X163557256Y-94418550D01*
X163536483Y-94484836D01*
X163508247Y-94574938D01*
X163501500Y-94648365D01*
X163501500Y-94651263D01*
X163501501Y-94940404D01*
X163481499Y-95008524D01*
X163464596Y-95029500D01*
X163212742Y-95281353D01*
X163204463Y-95288887D01*
X163197982Y-95293000D01*
X163151357Y-95342651D01*
X163148602Y-95345493D01*
X163128865Y-95365230D01*
X163126385Y-95368427D01*
X163118682Y-95377447D01*
X163088414Y-95409679D01*
X163084595Y-95416625D01*
X163084593Y-95416628D01*
X163078652Y-95427434D01*
X163067801Y-95443953D01*
X163055386Y-95459959D01*
X163052241Y-95467228D01*
X163052238Y-95467232D01*
X163037826Y-95500537D01*
X163032609Y-95511187D01*
X163011305Y-95549940D01*
X163009334Y-95557615D01*
X163009334Y-95557616D01*
X163006267Y-95569562D01*
X162999863Y-95588266D01*
X162991819Y-95606855D01*
X162990580Y-95614678D01*
X162990577Y-95614688D01*
X162984901Y-95650524D01*
X162982495Y-95662144D01*
X162976808Y-95684294D01*
X162971500Y-95704970D01*
X162971500Y-95725224D01*
X162969949Y-95744934D01*
X162966780Y-95764943D01*
X162967526Y-95772835D01*
X162970941Y-95808961D01*
X162971500Y-95820819D01*
X162971500Y-98024822D01*
X162951498Y-98092943D01*
X162897842Y-98139436D01*
X162880653Y-98145819D01*
X162836512Y-98158643D01*
X162836510Y-98158644D01*
X162828899Y-98160855D01*
X162822072Y-98164892D01*
X162822073Y-98164892D01*
X162692520Y-98241509D01*
X162692517Y-98241511D01*
X162685693Y-98245547D01*
X162568047Y-98363193D01*
X162564011Y-98370017D01*
X162564009Y-98370020D01*
X162535210Y-98418717D01*
X162483355Y-98506399D01*
X162436938Y-98666169D01*
X162434000Y-98703498D01*
X162434000Y-99136502D01*
X162436938Y-99173831D01*
X162438733Y-99180008D01*
X162467783Y-99280000D01*
X162483355Y-99333601D01*
X162487387Y-99340419D01*
X162489353Y-99344962D01*
X162498049Y-99415424D01*
X162489353Y-99445038D01*
X162487387Y-99449581D01*
X162483355Y-99456399D01*
X162436938Y-99616169D01*
X162436434Y-99622574D01*
X162436433Y-99622579D01*
X162434193Y-99651042D01*
X162434000Y-99653498D01*
X162434000Y-99709333D01*
X162413998Y-99777454D01*
X162397095Y-99798428D01*
X162225727Y-99969796D01*
X162217441Y-99977336D01*
X162210962Y-99981448D01*
X162205537Y-99987225D01*
X162164337Y-100031099D01*
X162161582Y-100033941D01*
X162141845Y-100053678D01*
X162139365Y-100056875D01*
X162131662Y-100065895D01*
X162101394Y-100098127D01*
X162097575Y-100105073D01*
X162097573Y-100105076D01*
X162091632Y-100115882D01*
X162080781Y-100132401D01*
X162068366Y-100148407D01*
X162065221Y-100155676D01*
X162065218Y-100155680D01*
X162050806Y-100188985D01*
X162045589Y-100199635D01*
X162024285Y-100238388D01*
X162022314Y-100246063D01*
X162022314Y-100246064D01*
X162019247Y-100258010D01*
X162012843Y-100276714D01*
X162004799Y-100295303D01*
X162003560Y-100303126D01*
X162003557Y-100303136D01*
X161997881Y-100338972D01*
X161995475Y-100350592D01*
X161989989Y-100371962D01*
X161984480Y-100393418D01*
X161984480Y-100413672D01*
X161982929Y-100433382D01*
X161979760Y-100453391D01*
X161980506Y-100461283D01*
X161983921Y-100497409D01*
X161984480Y-100509267D01*
X161984480Y-104179213D01*
X161983953Y-104190396D01*
X161982278Y-104197889D01*
X161982527Y-104205815D01*
X161982527Y-104205816D01*
X161984418Y-104265966D01*
X161984480Y-104269925D01*
X161984480Y-104297836D01*
X161984977Y-104301770D01*
X161984977Y-104301771D01*
X161984985Y-104301836D01*
X161985918Y-104313673D01*
X161987307Y-104357869D01*
X161992958Y-104377319D01*
X161996967Y-104396680D01*
X161999506Y-104416777D01*
X162002425Y-104424148D01*
X162002425Y-104424150D01*
X162015784Y-104457892D01*
X162019629Y-104469122D01*
X162025362Y-104488856D01*
X162031962Y-104511573D01*
X162035995Y-104518392D01*
X162035997Y-104518397D01*
X162042273Y-104529008D01*
X162050968Y-104546756D01*
X162058428Y-104565597D01*
X162063090Y-104572013D01*
X162063090Y-104572014D01*
X162084416Y-104601367D01*
X162090932Y-104611287D01*
X162103301Y-104632201D01*
X162113438Y-104649342D01*
X162127759Y-104663663D01*
X162140599Y-104678696D01*
X162152508Y-104695087D01*
X162158614Y-104700138D01*
X162186585Y-104723278D01*
X162195364Y-104731268D01*
X163280501Y-105816405D01*
X163314527Y-105878717D01*
X163309462Y-105949532D01*
X163266915Y-106006368D01*
X163200395Y-106031179D01*
X163191406Y-106031500D01*
X162311866Y-106031500D01*
X162249684Y-106038255D01*
X162113295Y-106089385D01*
X161996739Y-106176739D01*
X161909385Y-106293295D01*
X161858255Y-106429684D01*
X161851500Y-106491866D01*
X161851500Y-107800406D01*
X161831498Y-107868527D01*
X161814595Y-107889501D01*
X158949283Y-110754812D01*
X157090361Y-112613734D01*
X157028049Y-112647760D01*
X157016295Y-112649739D01*
X156916725Y-112661701D01*
X156916720Y-112661702D01*
X156907807Y-112662773D01*
X156773878Y-112720036D01*
X156661404Y-112812588D01*
X156656736Y-112818966D01*
X156633643Y-112850517D01*
X156577269Y-112893673D01*
X156506512Y-112899501D01*
X156442872Y-112865194D01*
X150530405Y-106952727D01*
X150496379Y-106890415D01*
X150493500Y-106863632D01*
X150493500Y-103434500D01*
X150513502Y-103366379D01*
X150567158Y-103319886D01*
X150619500Y-103308500D01*
X151108134Y-103308500D01*
X151170316Y-103301745D01*
X151306705Y-103250615D01*
X151423261Y-103163261D01*
X151510615Y-103046705D01*
X151561745Y-102910316D01*
X151568500Y-102848134D01*
X151568500Y-100367966D01*
X156718257Y-100367966D01*
X156748565Y-100502446D01*
X156751645Y-100512275D01*
X156831770Y-100709603D01*
X156836413Y-100718794D01*
X156947694Y-100900388D01*
X156953777Y-100908699D01*
X157093213Y-101069667D01*
X157100580Y-101076883D01*
X157264434Y-101212916D01*
X157272881Y-101218831D01*
X157456756Y-101326279D01*
X157466042Y-101330729D01*
X157665001Y-101406703D01*
X157674899Y-101409579D01*
X157778250Y-101430606D01*
X157792299Y-101429410D01*
X157796000Y-101419065D01*
X157796000Y-101418517D01*
X158304000Y-101418517D01*
X158308064Y-101432359D01*
X158321478Y-101434393D01*
X158328184Y-101433534D01*
X158338262Y-101431392D01*
X158542255Y-101370191D01*
X158551842Y-101366433D01*
X158743095Y-101272739D01*
X158751945Y-101267464D01*
X158925328Y-101143792D01*
X158933200Y-101137139D01*
X159084052Y-100986812D01*
X159090730Y-100978965D01*
X159215003Y-100806020D01*
X159220313Y-100797183D01*
X159314670Y-100606267D01*
X159318469Y-100596672D01*
X159380377Y-100392910D01*
X159382555Y-100382837D01*
X159383986Y-100371962D01*
X159381775Y-100357778D01*
X159368617Y-100354000D01*
X158322115Y-100354000D01*
X158306876Y-100358475D01*
X158305671Y-100359865D01*
X158304000Y-100367548D01*
X158304000Y-101418517D01*
X157796000Y-101418517D01*
X157796000Y-100372115D01*
X157791525Y-100356876D01*
X157790135Y-100355671D01*
X157782452Y-100354000D01*
X156733225Y-100354000D01*
X156719694Y-100357973D01*
X156718257Y-100367966D01*
X151568500Y-100367966D01*
X151568500Y-100351866D01*
X151561745Y-100289684D01*
X151510615Y-100153295D01*
X151423261Y-100036739D01*
X151306705Y-99949385D01*
X151170316Y-99898255D01*
X151108134Y-99891500D01*
X148611866Y-99891500D01*
X148549684Y-99898255D01*
X148413295Y-99949385D01*
X148296739Y-100036739D01*
X148209385Y-100153295D01*
X148158255Y-100289684D01*
X148151500Y-100351866D01*
X148151500Y-102360405D01*
X148131498Y-102428526D01*
X148114595Y-102449500D01*
X147707747Y-102856348D01*
X147699461Y-102863888D01*
X147692982Y-102868000D01*
X147687557Y-102873777D01*
X147646357Y-102917651D01*
X147643602Y-102920493D01*
X147623865Y-102940230D01*
X147621385Y-102943427D01*
X147613682Y-102952447D01*
X147583414Y-102984679D01*
X147579595Y-102991625D01*
X147579593Y-102991628D01*
X147573652Y-103002434D01*
X147562801Y-103018953D01*
X147550386Y-103034959D01*
X147547241Y-103042228D01*
X147547238Y-103042232D01*
X147532826Y-103075537D01*
X147527609Y-103086187D01*
X147506305Y-103124940D01*
X147504334Y-103132615D01*
X147504334Y-103132616D01*
X147501267Y-103144562D01*
X147494863Y-103163266D01*
X147490406Y-103173567D01*
X147486819Y-103181855D01*
X147485580Y-103189678D01*
X147485577Y-103189688D01*
X147479901Y-103225524D01*
X147477495Y-103237144D01*
X147472834Y-103255299D01*
X147466500Y-103279970D01*
X147466500Y-103300224D01*
X147464949Y-103319934D01*
X147461780Y-103339943D01*
X147462526Y-103347835D01*
X147465941Y-103383961D01*
X147466500Y-103395819D01*
X147466500Y-104370874D01*
X147446498Y-104438995D01*
X147392842Y-104485488D01*
X147384730Y-104488856D01*
X147344433Y-104503963D01*
X147303295Y-104519385D01*
X147186739Y-104606739D01*
X147099385Y-104723295D01*
X147048255Y-104859684D01*
X147041500Y-104921866D01*
X147041500Y-106118134D01*
X146357813Y-106118134D01*
X146358000Y-106114672D01*
X146358000Y-105792115D01*
X146353525Y-105776876D01*
X146352135Y-105775671D01*
X146344452Y-105774000D01*
X145572115Y-105774000D01*
X145556876Y-105778475D01*
X145555671Y-105779865D01*
X145554000Y-105787548D01*
X145554000Y-106559884D01*
X145046000Y-106559884D01*
X145046000Y-105792115D01*
X145041525Y-105776876D01*
X145040135Y-105775671D01*
X145032452Y-105774000D01*
X144260116Y-105774000D01*
X144244877Y-105778475D01*
X144243672Y-105779865D01*
X144242001Y-105787548D01*
X144242001Y-106114669D01*
X138045318Y-106114669D01*
X138006133Y-105893570D01*
X138005412Y-105889012D01*
X137991880Y-105792115D01*
X137915879Y-105247885D01*
X144242000Y-105247885D01*
X144246475Y-105263124D01*
X144247865Y-105264329D01*
X144255548Y-105266000D01*
X145027885Y-105266000D01*
X145043124Y-105261525D01*
X145044329Y-105260135D01*
X145046000Y-105252452D01*
X145046000Y-105247885D01*
X145554000Y-105247885D01*
X145558475Y-105263124D01*
X145559865Y-105264329D01*
X145567548Y-105266000D01*
X146339884Y-105266000D01*
X146355123Y-105261525D01*
X146356328Y-105260135D01*
X146357999Y-105252452D01*
X146357999Y-104925331D01*
X146357629Y-104918510D01*
X146352105Y-104867648D01*
X146348479Y-104852396D01*
X146303324Y-104731946D01*
X146294786Y-104716351D01*
X146218285Y-104614276D01*
X146205724Y-104601715D01*
X146103649Y-104525214D01*
X146088054Y-104516676D01*
X145967606Y-104471522D01*
X145952351Y-104467895D01*
X145901486Y-104462369D01*
X145894672Y-104462000D01*
X145572115Y-104462000D01*
X145556876Y-104466475D01*
X145555671Y-104467865D01*
X145554000Y-104475548D01*
X145554000Y-105247885D01*
X145046000Y-105247885D01*
X145046000Y-104480116D01*
X145041525Y-104464877D01*
X145040135Y-104463672D01*
X145032452Y-104462001D01*
X144705331Y-104462001D01*
X144698510Y-104462371D01*
X144647648Y-104467895D01*
X144632396Y-104471521D01*
X144511946Y-104516676D01*
X144496351Y-104525214D01*
X144394276Y-104601715D01*
X144381715Y-104614276D01*
X144305214Y-104716351D01*
X144296676Y-104731946D01*
X144251522Y-104852394D01*
X144247895Y-104867649D01*
X144242369Y-104918514D01*
X144242000Y-104925328D01*
X144242000Y-105247885D01*
X137915879Y-105247885D01*
X137866999Y-104897869D01*
X137866446Y-104893303D01*
X137863818Y-104867648D01*
X137764442Y-103897734D01*
X137764056Y-103893134D01*
X137746312Y-103622404D01*
X137727798Y-103339943D01*
X137703771Y-102973359D01*
X141351386Y-102973359D01*
X141360099Y-102984879D01*
X141448586Y-103049760D01*
X141456505Y-103054708D01*
X141672877Y-103168547D01*
X141681451Y-103172275D01*
X141912282Y-103252885D01*
X141921291Y-103255299D01*
X142161518Y-103300908D01*
X142170775Y-103301962D01*
X142415107Y-103311563D01*
X142424420Y-103311237D01*
X142667478Y-103284618D01*
X142676655Y-103282917D01*
X142913107Y-103220665D01*
X142921926Y-103217628D01*
X143146584Y-103121107D01*
X143154856Y-103116800D01*
X143362777Y-102988135D01*
X143364620Y-102986796D01*
X143372038Y-102975541D01*
X143365974Y-102965184D01*
X142372812Y-101972022D01*
X142358868Y-101964408D01*
X142357035Y-101964539D01*
X142350420Y-101968790D01*
X141358044Y-102961166D01*
X141351386Y-102973359D01*
X137703771Y-102973359D01*
X137698605Y-102894541D01*
X137698387Y-102889928D01*
X137676007Y-102113023D01*
X137669570Y-101889549D01*
X137669522Y-101884943D01*
X137669536Y-101883240D01*
X137672076Y-101559835D01*
X140648022Y-101559835D01*
X140659754Y-101804064D01*
X140660891Y-101813324D01*
X140708593Y-102053143D01*
X140711082Y-102062118D01*
X140793708Y-102292250D01*
X140797505Y-102300778D01*
X140913234Y-102516160D01*
X140918245Y-102524027D01*
X140975173Y-102600263D01*
X140986431Y-102608712D01*
X140998850Y-102601940D01*
X141987978Y-101612812D01*
X141994356Y-101601132D01*
X142724408Y-101601132D01*
X142724539Y-101602965D01*
X142728790Y-101609580D01*
X143723732Y-102604522D01*
X143736112Y-102611282D01*
X143744453Y-102605038D01*
X143862700Y-102421202D01*
X143867147Y-102413011D01*
X143967572Y-102190076D01*
X143970767Y-102181298D01*
X144037135Y-101945973D01*
X144038993Y-101936844D01*
X144070044Y-101692770D01*
X144070525Y-101686483D01*
X144072706Y-101603160D01*
X144072555Y-101596851D01*
X144054321Y-101351486D01*
X144052944Y-101342280D01*
X143998979Y-101103786D01*
X143996255Y-101094875D01*
X143907633Y-100866983D01*
X143903619Y-100858567D01*
X143782284Y-100646276D01*
X143777074Y-100638553D01*
X143745787Y-100598865D01*
X143733863Y-100590395D01*
X143722328Y-100596882D01*
X142732022Y-101587188D01*
X142724408Y-101601132D01*
X141994356Y-101601132D01*
X141995592Y-101598868D01*
X141995461Y-101597035D01*
X141991210Y-101590420D01*
X140996828Y-100596038D01*
X140983520Y-100588771D01*
X140973481Y-100595893D01*
X140968581Y-100601784D01*
X140963168Y-100609373D01*
X140836322Y-100818409D01*
X140832084Y-100826726D01*
X140737529Y-101052214D01*
X140734572Y-101061052D01*
X140674384Y-101298042D01*
X140672763Y-101307232D01*
X140648267Y-101550510D01*
X140648022Y-101559835D01*
X137672076Y-101559835D01*
X137675993Y-101061052D01*
X137677382Y-100884220D01*
X137677503Y-100879604D01*
X137691737Y-100559992D01*
X137706660Y-100224917D01*
X141349330Y-100224917D01*
X141353903Y-100234693D01*
X142347188Y-101227978D01*
X142361132Y-101235592D01*
X142362965Y-101235461D01*
X142369580Y-101231210D01*
X143362488Y-100238302D01*
X143368872Y-100226612D01*
X143359460Y-100214502D01*
X143233144Y-100126873D01*
X143225116Y-100122145D01*
X143005810Y-100013995D01*
X142997177Y-100010507D01*
X142764288Y-99935958D01*
X142755238Y-99933785D01*
X142513891Y-99894480D01*
X142504602Y-99893668D01*
X142260114Y-99890467D01*
X142250803Y-99891037D01*
X142008522Y-99924010D01*
X141999403Y-99925948D01*
X141764668Y-99994367D01*
X141755915Y-99997639D01*
X141533869Y-100100004D01*
X141525714Y-100104524D01*
X141358468Y-100214175D01*
X141349330Y-100224917D01*
X137706660Y-100224917D01*
X137722029Y-99879820D01*
X137722318Y-99875227D01*
X137724004Y-99854500D01*
X137803449Y-98877759D01*
X137803905Y-98873185D01*
X137806031Y-98855229D01*
X137853030Y-98458134D01*
X156691500Y-98458134D01*
X156698255Y-98520316D01*
X156749385Y-98656705D01*
X156836739Y-98773261D01*
X156953295Y-98860615D01*
X156961704Y-98863767D01*
X156961705Y-98863768D01*
X157070960Y-98904726D01*
X157127725Y-98947367D01*
X157152425Y-99013929D01*
X157137218Y-99083278D01*
X157117825Y-99109759D01*
X156994590Y-99238717D01*
X156988104Y-99246727D01*
X156868098Y-99422649D01*
X156863000Y-99431623D01*
X156773338Y-99624783D01*
X156769775Y-99634470D01*
X156714389Y-99834183D01*
X156715912Y-99842607D01*
X156728292Y-99846000D01*
X159368344Y-99846000D01*
X159381875Y-99842027D01*
X159383180Y-99832947D01*
X159341214Y-99665875D01*
X159337894Y-99656124D01*
X159252972Y-99460814D01*
X159248105Y-99451739D01*
X159132426Y-99272926D01*
X159126136Y-99264757D01*
X158982293Y-99106677D01*
X158951241Y-99042831D01*
X158959635Y-98972333D01*
X159004812Y-98917564D01*
X159031256Y-98903895D01*
X159138297Y-98863767D01*
X159146705Y-98860615D01*
X159263261Y-98773261D01*
X159350615Y-98656705D01*
X159401745Y-98520316D01*
X159408500Y-98458134D01*
X159408500Y-96661866D01*
X159401745Y-96599684D01*
X159350615Y-96463295D01*
X159263261Y-96346739D01*
X159146705Y-96259385D01*
X159010316Y-96208255D01*
X158948134Y-96201500D01*
X158809500Y-96201500D01*
X158741379Y-96181498D01*
X158694886Y-96127842D01*
X158683500Y-96075500D01*
X158683500Y-94434874D01*
X158703502Y-94366753D01*
X158708661Y-94359327D01*
X158725615Y-94336705D01*
X158776745Y-94200316D01*
X158783500Y-94138134D01*
X158783500Y-93441866D01*
X158776745Y-93379684D01*
X158725615Y-93243295D01*
X158638261Y-93126739D01*
X158521705Y-93039385D01*
X158385316Y-92988255D01*
X158323134Y-92981500D01*
X157776866Y-92981500D01*
X157714684Y-92988255D01*
X157578295Y-93039385D01*
X157461739Y-93126739D01*
X157374385Y-93243295D01*
X157323255Y-93379684D01*
X157316500Y-93441866D01*
X157316500Y-94138134D01*
X157323255Y-94200316D01*
X157374385Y-94336705D01*
X157391327Y-94359311D01*
X157416174Y-94425815D01*
X157416500Y-94434874D01*
X157416500Y-96075500D01*
X157396498Y-96143621D01*
X157342842Y-96190114D01*
X157290500Y-96201500D01*
X157151866Y-96201500D01*
X157089684Y-96208255D01*
X156953295Y-96259385D01*
X156836739Y-96346739D01*
X156749385Y-96463295D01*
X156698255Y-96599684D01*
X156691500Y-96661866D01*
X156691500Y-98458134D01*
X137853030Y-98458134D01*
X137888215Y-98160855D01*
X137921535Y-97879335D01*
X137922162Y-97874760D01*
X138076126Y-96885921D01*
X138076920Y-96881372D01*
X138267016Y-95898836D01*
X138267976Y-95894319D01*
X138378699Y-95416628D01*
X138493952Y-94919391D01*
X138495074Y-94914925D01*
X138566463Y-94651263D01*
X138756621Y-93948944D01*
X138757907Y-93944516D01*
X138775183Y-93888880D01*
X138869520Y-93585062D01*
X139054674Y-92988770D01*
X139056124Y-92984386D01*
X139387718Y-92040141D01*
X139389316Y-92035844D01*
X139755297Y-91104366D01*
X139757059Y-91100112D01*
X139777077Y-91054185D01*
X139994821Y-90554600D01*
X140156918Y-90182690D01*
X140158841Y-90178491D01*
X140592040Y-89276355D01*
X140594115Y-89272230D01*
X141060070Y-88386595D01*
X141062294Y-88382548D01*
X141214179Y-88117879D01*
X141296633Y-87974197D01*
X155327173Y-87974197D01*
X155351088Y-88117879D01*
X155354273Y-88125099D01*
X155354274Y-88125104D01*
X155357990Y-88133528D01*
X155376329Y-88175107D01*
X155378036Y-88178063D01*
X156622758Y-90333987D01*
X156622764Y-90333996D01*
X156624463Y-90336939D01*
X156626469Y-90339680D01*
X156626473Y-90339686D01*
X156656737Y-90381036D01*
X156661404Y-90387412D01*
X156773878Y-90479964D01*
X156907807Y-90537227D01*
X156916716Y-90538297D01*
X156916719Y-90538298D01*
X157008169Y-90549284D01*
X157052424Y-90554600D01*
X157061279Y-90553126D01*
X157061282Y-90553126D01*
X157188315Y-90531982D01*
X157188317Y-90531981D01*
X157196106Y-90530685D01*
X157204690Y-90526899D01*
X157239652Y-90511479D01*
X157310052Y-90502289D01*
X157374243Y-90532619D01*
X157411847Y-90592839D01*
X157416500Y-90626763D01*
X157416500Y-91045126D01*
X157396498Y-91113247D01*
X157391339Y-91120673D01*
X157374385Y-91143295D01*
X157323255Y-91279684D01*
X157316500Y-91341866D01*
X157316500Y-92038134D01*
X157323255Y-92100316D01*
X157374385Y-92236705D01*
X157461739Y-92353261D01*
X157578295Y-92440615D01*
X157714684Y-92491745D01*
X157776866Y-92498500D01*
X158323134Y-92498500D01*
X158385316Y-92491745D01*
X158521705Y-92440615D01*
X158638261Y-92353261D01*
X158725615Y-92236705D01*
X158776745Y-92100316D01*
X158783500Y-92038134D01*
X158783500Y-91341866D01*
X158776745Y-91279684D01*
X158725615Y-91143295D01*
X158708673Y-91120689D01*
X158683826Y-91054185D01*
X158683500Y-91045126D01*
X158683500Y-89752483D01*
X158703502Y-89684362D01*
X158746500Y-89643364D01*
X159020254Y-89485312D01*
X159415166Y-89257310D01*
X159417907Y-89255304D01*
X159417913Y-89255300D01*
X159459263Y-89225036D01*
X159459265Y-89225034D01*
X159465639Y-89220369D01*
X159558191Y-89107895D01*
X159615454Y-88973966D01*
X159632827Y-88829349D01*
X159630529Y-88815538D01*
X159610209Y-88693458D01*
X159610208Y-88693456D01*
X159608912Y-88685667D01*
X159605727Y-88678447D01*
X159605726Y-88678442D01*
X159585047Y-88631559D01*
X159583671Y-88628439D01*
X158977494Y-87578510D01*
X158337242Y-86469559D01*
X158337236Y-86469550D01*
X158335537Y-86466607D01*
X158333531Y-86463866D01*
X158333527Y-86463860D01*
X158303263Y-86422510D01*
X158303261Y-86422508D01*
X158298596Y-86416134D01*
X158186122Y-86323582D01*
X158052193Y-86266319D01*
X158043284Y-86265249D01*
X158043281Y-86265248D01*
X157951831Y-86254262D01*
X157907576Y-86248946D01*
X157898721Y-86250420D01*
X157898718Y-86250420D01*
X157771685Y-86271564D01*
X157771683Y-86271565D01*
X157763894Y-86272861D01*
X157756674Y-86276046D01*
X157756669Y-86276047D01*
X157716382Y-86293816D01*
X157706666Y-86298102D01*
X156954214Y-86732531D01*
X155547786Y-87544531D01*
X155547777Y-87544537D01*
X155544834Y-87546236D01*
X155542093Y-87548242D01*
X155542087Y-87548246D01*
X155500737Y-87578510D01*
X155500735Y-87578512D01*
X155494361Y-87583177D01*
X155401809Y-87695651D01*
X155344546Y-87829580D01*
X155327173Y-87974197D01*
X141296633Y-87974197D01*
X141379623Y-87829580D01*
X141560417Y-87514535D01*
X141562789Y-87510572D01*
X142092373Y-86661412D01*
X142094888Y-86657540D01*
X142655212Y-85828387D01*
X142657867Y-85824608D01*
X143248232Y-85016497D01*
X143251024Y-85012819D01*
X143263876Y-84996517D01*
X143870593Y-84226899D01*
X143873517Y-84223328D01*
X144521459Y-83460652D01*
X144524513Y-83457188D01*
X144686646Y-83279941D01*
X152721386Y-83279941D01*
X152730099Y-83291461D01*
X152818586Y-83356342D01*
X152826505Y-83361290D01*
X153042877Y-83475129D01*
X153051451Y-83478857D01*
X153282282Y-83559467D01*
X153291291Y-83561881D01*
X153531518Y-83607490D01*
X153540775Y-83608544D01*
X153785107Y-83618145D01*
X153794420Y-83617819D01*
X154037478Y-83591200D01*
X154046655Y-83589499D01*
X154283107Y-83527247D01*
X154291926Y-83524210D01*
X154516584Y-83427689D01*
X154524856Y-83423382D01*
X154732777Y-83294717D01*
X154734620Y-83293378D01*
X154742038Y-83282123D01*
X154735974Y-83271766D01*
X153742812Y-82278604D01*
X153728868Y-82270990D01*
X153727035Y-82271121D01*
X153720420Y-82275372D01*
X152728044Y-83267748D01*
X152721386Y-83279941D01*
X144686646Y-83279941D01*
X145199971Y-82718762D01*
X145203150Y-82715412D01*
X145905210Y-82002236D01*
X145908509Y-81999005D01*
X146048962Y-81866417D01*
X152018022Y-81866417D01*
X152029754Y-82110646D01*
X152030891Y-82119906D01*
X152078593Y-82359725D01*
X152081082Y-82368700D01*
X152163708Y-82598832D01*
X152167505Y-82607360D01*
X152283234Y-82822742D01*
X152288245Y-82830609D01*
X152345173Y-82906845D01*
X152356431Y-82915294D01*
X152368850Y-82908522D01*
X153357978Y-81919394D01*
X153364356Y-81907714D01*
X154094408Y-81907714D01*
X154094539Y-81909547D01*
X154098790Y-81916162D01*
X155093732Y-82911104D01*
X155106112Y-82917864D01*
X155114453Y-82911620D01*
X155232700Y-82727784D01*
X155237147Y-82719593D01*
X155337572Y-82496658D01*
X155340767Y-82487880D01*
X155407135Y-82252555D01*
X155408993Y-82243426D01*
X155440044Y-81999352D01*
X155440525Y-81993065D01*
X155442706Y-81909742D01*
X155442555Y-81903433D01*
X155424321Y-81658068D01*
X155422944Y-81648862D01*
X155368979Y-81410368D01*
X155366255Y-81401457D01*
X155277633Y-81173565D01*
X155273619Y-81165149D01*
X155152284Y-80952858D01*
X155147074Y-80945135D01*
X155115787Y-80905447D01*
X155103863Y-80896977D01*
X155092328Y-80903464D01*
X154102022Y-81893770D01*
X154094408Y-81907714D01*
X153364356Y-81907714D01*
X153365592Y-81905450D01*
X153365461Y-81903617D01*
X153361210Y-81897002D01*
X152366828Y-80902620D01*
X152353520Y-80895353D01*
X152343481Y-80902475D01*
X152338581Y-80908366D01*
X152333168Y-80915955D01*
X152206322Y-81124991D01*
X152202084Y-81133308D01*
X152107529Y-81358796D01*
X152104572Y-81367634D01*
X152044384Y-81604624D01*
X152042763Y-81613814D01*
X152018267Y-81857092D01*
X152018022Y-81866417D01*
X146048962Y-81866417D01*
X146397082Y-81537792D01*
X146636247Y-81312020D01*
X146639634Y-81308938D01*
X147392090Y-80649051D01*
X147395618Y-80646071D01*
X147536348Y-80531499D01*
X152719330Y-80531499D01*
X152723903Y-80541275D01*
X153717188Y-81534560D01*
X153731132Y-81542174D01*
X153732965Y-81542043D01*
X153739580Y-81537792D01*
X154732488Y-80544884D01*
X154738872Y-80533194D01*
X154729460Y-80521084D01*
X154603144Y-80433455D01*
X154595116Y-80428727D01*
X154375810Y-80320577D01*
X154367177Y-80317089D01*
X154134288Y-80242540D01*
X154125238Y-80240367D01*
X153883891Y-80201062D01*
X153874602Y-80200250D01*
X153630114Y-80197049D01*
X153620803Y-80197619D01*
X153378522Y-80230592D01*
X153369403Y-80232530D01*
X153134668Y-80300949D01*
X153125915Y-80304221D01*
X152903869Y-80406586D01*
X152895714Y-80411106D01*
X152728468Y-80520757D01*
X152719330Y-80531499D01*
X147536348Y-80531499D01*
X147893947Y-80240367D01*
X148171679Y-80014258D01*
X148175305Y-80011414D01*
X148408523Y-79835353D01*
X148974026Y-79408442D01*
X148977761Y-79405728D01*
X149798037Y-78832430D01*
X149801870Y-78829854D01*
X150044112Y-78673441D01*
X150642621Y-78286989D01*
X150646546Y-78284556D01*
X151506590Y-77772883D01*
X151510601Y-77770595D01*
X152155920Y-77418024D01*
X152388839Y-77290769D01*
X152392924Y-77288633D01*
X152473942Y-77248151D01*
X153045423Y-76962598D01*
X153288155Y-76841312D01*
X153292323Y-76839324D01*
X154203336Y-76425111D01*
X154207574Y-76423277D01*
X154417420Y-76336999D01*
X155133179Y-76042715D01*
X155137449Y-76041050D01*
X156076374Y-75694662D01*
X156080697Y-75693157D01*
X157031700Y-75381403D01*
X157036093Y-75380051D01*
X157997869Y-75103358D01*
X158002326Y-75102164D01*
X158048828Y-75090613D01*
X158291073Y-75030439D01*
X158973559Y-74860909D01*
X158978060Y-74859878D01*
X159957504Y-74654369D01*
X159962040Y-74653504D01*
X160707312Y-74525443D01*
X160948333Y-74484028D01*
X160952882Y-74483331D01*
X161354816Y-74429345D01*
X161944775Y-74350103D01*
X161949362Y-74349573D01*
X162574846Y-74288795D01*
X162945401Y-74252788D01*
X162949990Y-74252427D01*
X163948991Y-74192200D01*
X163953565Y-74192009D01*
X164954079Y-74168430D01*
X164958665Y-74168406D01*
X165495099Y-74175428D01*
G37*
%TD.AperFunction*%
%TA.AperFunction,Conductor*%
G36*
X169476349Y-99573502D02*
G01*
X169522842Y-99627158D01*
X169531145Y-99651799D01*
X169539222Y-99687639D01*
X169590297Y-99813423D01*
X169617265Y-99879836D01*
X169623266Y-99894616D01*
X169625965Y-99899020D01*
X169723782Y-100058643D01*
X169739987Y-100085088D01*
X169886250Y-100253938D01*
X170058126Y-100396632D01*
X170104259Y-100423590D01*
X170131445Y-100439476D01*
X170180169Y-100491114D01*
X170193240Y-100560897D01*
X170166509Y-100626669D01*
X170126055Y-100660027D01*
X170113607Y-100666507D01*
X170109474Y-100669610D01*
X170109471Y-100669612D01*
X169939100Y-100797530D01*
X169934965Y-100800635D01*
X169931393Y-100804373D01*
X169831697Y-100908699D01*
X169780629Y-100962138D01*
X169777720Y-100966403D01*
X169777714Y-100966411D01*
X169762798Y-100988277D01*
X169654743Y-101146680D01*
X169621252Y-101218831D01*
X169569311Y-101330729D01*
X169560688Y-101349305D01*
X169500989Y-101564570D01*
X169477251Y-101786695D01*
X169477548Y-101791848D01*
X169477548Y-101791851D01*
X169483182Y-101889561D01*
X169490110Y-102009715D01*
X169491247Y-102014761D01*
X169491248Y-102014767D01*
X169511119Y-102102939D01*
X169539222Y-102227639D01*
X169623266Y-102434616D01*
X169673236Y-102516160D01*
X169737291Y-102620688D01*
X169739987Y-102625088D01*
X169886250Y-102793938D01*
X170058126Y-102936632D01*
X170085194Y-102952449D01*
X170131955Y-102979774D01*
X170180679Y-103031412D01*
X170193750Y-103101195D01*
X170167019Y-103166967D01*
X170126562Y-103200327D01*
X170118457Y-103204546D01*
X170109738Y-103210036D01*
X169939433Y-103337905D01*
X169931726Y-103344748D01*
X169784590Y-103498717D01*
X169778104Y-103506727D01*
X169658098Y-103682649D01*
X169653000Y-103691623D01*
X169563338Y-103884783D01*
X169559775Y-103894470D01*
X169504389Y-104094183D01*
X169505912Y-104102607D01*
X169518292Y-104106000D01*
X170968000Y-104106000D01*
X171036121Y-104126002D01*
X171082614Y-104179658D01*
X171094000Y-104232000D01*
X171094000Y-104488000D01*
X171073998Y-104556121D01*
X171020342Y-104602614D01*
X170968000Y-104614000D01*
X169505110Y-104614000D01*
X169505110Y-104609580D01*
X169467260Y-104609574D01*
X169413684Y-104577779D01*
X166618200Y-101782295D01*
X166584174Y-101719983D01*
X166589239Y-101649168D01*
X166631786Y-101592332D01*
X166652946Y-101580062D01*
X166656101Y-101579145D01*
X166680746Y-101564570D01*
X166792480Y-101498491D01*
X166792483Y-101498489D01*
X166799307Y-101494453D01*
X166916953Y-101376807D01*
X166920989Y-101369983D01*
X166920991Y-101369980D01*
X166997608Y-101240427D01*
X167001645Y-101233601D01*
X167007655Y-101212916D01*
X167028391Y-101141538D01*
X167048062Y-101073831D01*
X167049764Y-101052214D01*
X167050807Y-101038958D01*
X167050807Y-101038950D01*
X167051000Y-101036502D01*
X167051000Y-100603498D01*
X167050807Y-100601042D01*
X167048567Y-100572579D01*
X167048566Y-100572574D01*
X167048062Y-100566169D01*
X167015297Y-100453391D01*
X167003857Y-100414012D01*
X167003856Y-100414010D01*
X167001645Y-100406399D01*
X166997611Y-100399577D01*
X166995372Y-100394404D01*
X166986676Y-100323942D01*
X166995372Y-100294326D01*
X167003393Y-100275790D01*
X167042439Y-100141395D01*
X167042399Y-100127294D01*
X167035130Y-100124000D01*
X166797342Y-100124000D01*
X166733203Y-100106453D01*
X166689129Y-100080388D01*
X166656101Y-100060855D01*
X166648490Y-100058644D01*
X166648488Y-100058643D01*
X166558594Y-100032527D01*
X166496331Y-100014438D01*
X166489926Y-100013934D01*
X166489921Y-100013933D01*
X166461458Y-100011693D01*
X166461450Y-100011693D01*
X166459002Y-100011500D01*
X165752000Y-100011500D01*
X165683879Y-99991498D01*
X165637386Y-99937842D01*
X165626000Y-99885500D01*
X165626000Y-99854500D01*
X165646002Y-99786379D01*
X165699658Y-99739886D01*
X165752000Y-99728500D01*
X166459002Y-99728500D01*
X166461450Y-99728307D01*
X166461458Y-99728307D01*
X166489921Y-99726067D01*
X166489926Y-99726066D01*
X166496331Y-99725562D01*
X166596269Y-99696528D01*
X166648488Y-99681357D01*
X166648490Y-99681356D01*
X166656101Y-99679145D01*
X166733203Y-99633547D01*
X166797342Y-99616000D01*
X167029378Y-99616000D01*
X167044617Y-99611525D01*
X167057215Y-99596987D01*
X167116941Y-99558604D01*
X167152439Y-99553500D01*
X169408228Y-99553500D01*
X169476349Y-99573502D01*
G37*
%TD.AperFunction*%
%TA.AperFunction,Conductor*%
G36*
X172192338Y-99954678D02*
G01*
X172220166Y-99986511D01*
X172277694Y-100080388D01*
X172283777Y-100088699D01*
X172423213Y-100249667D01*
X172430580Y-100256883D01*
X172594434Y-100392916D01*
X172602881Y-100398831D01*
X172671969Y-100439203D01*
X172720693Y-100490842D01*
X172733764Y-100560625D01*
X172707033Y-100626396D01*
X172666584Y-100659752D01*
X172653607Y-100666507D01*
X172649474Y-100669610D01*
X172649471Y-100669612D01*
X172479100Y-100797530D01*
X172474965Y-100800635D01*
X172471393Y-100804373D01*
X172371697Y-100908699D01*
X172320629Y-100962138D01*
X172213201Y-101119621D01*
X172158293Y-101164621D01*
X172087768Y-101172792D01*
X172024021Y-101141538D01*
X172003324Y-101117054D01*
X171922822Y-100992617D01*
X171922820Y-100992614D01*
X171920014Y-100988277D01*
X171769670Y-100823051D01*
X171765619Y-100819852D01*
X171765615Y-100819848D01*
X171598414Y-100687800D01*
X171598410Y-100687798D01*
X171594359Y-100684598D01*
X171553053Y-100661796D01*
X171503084Y-100611364D01*
X171488312Y-100541921D01*
X171513428Y-100475516D01*
X171540780Y-100448909D01*
X171600377Y-100406399D01*
X171719860Y-100321173D01*
X171773607Y-100267614D01*
X171826904Y-100214502D01*
X171878096Y-100163489D01*
X171888934Y-100148407D01*
X172008453Y-99982077D01*
X172009640Y-99982930D01*
X172056960Y-99939362D01*
X172126897Y-99927145D01*
X172192338Y-99954678D01*
G37*
%TD.AperFunction*%
%TD*%
M02*
