%TF.GenerationSoftware,KiCad,Pcbnew,(6.0.1)*%
%TF.CreationDate,2022-02-17T14:59:17+10:00*%
%TF.ProjectId,blinker,626c696e-6b65-4722-9e6b-696361645f70,rev?*%
%TF.SameCoordinates,Original*%
%TF.FileFunction,Legend,Top*%
%TF.FilePolarity,Positive*%
%FSLAX46Y46*%
G04 Gerber Fmt 4.6, Leading zero omitted, Abs format (unit mm)*
G04 Created by KiCad (PCBNEW (6.0.1)) date 2022-02-17 14:59:17*
%MOMM*%
%LPD*%
G01*
G04 APERTURE LIST*
%ADD10C,0.300000*%
%ADD11C,0.150000*%
%ADD12C,0.120000*%
G04 APERTURE END LIST*
D10*
X159605714Y-121705357D02*
X159820000Y-121776785D01*
X159891428Y-121848214D01*
X159962857Y-121991071D01*
X159962857Y-122205357D01*
X159891428Y-122348214D01*
X159820000Y-122419642D01*
X159677142Y-122491071D01*
X159105714Y-122491071D01*
X159105714Y-120991071D01*
X159605714Y-120991071D01*
X159748571Y-121062500D01*
X159820000Y-121133928D01*
X159891428Y-121276785D01*
X159891428Y-121419642D01*
X159820000Y-121562500D01*
X159748571Y-121633928D01*
X159605714Y-121705357D01*
X159105714Y-121705357D01*
X160820000Y-122491071D02*
X160677142Y-122419642D01*
X160605714Y-122276785D01*
X160605714Y-120991071D01*
X161391428Y-122491071D02*
X161391428Y-121491071D01*
X161391428Y-120991071D02*
X161320000Y-121062500D01*
X161391428Y-121133928D01*
X161462857Y-121062500D01*
X161391428Y-120991071D01*
X161391428Y-121133928D01*
X162105714Y-121491071D02*
X162105714Y-122491071D01*
X162105714Y-121633928D02*
X162177142Y-121562500D01*
X162320000Y-121491071D01*
X162534285Y-121491071D01*
X162677142Y-121562500D01*
X162748571Y-121705357D01*
X162748571Y-122491071D01*
X163462857Y-122491071D02*
X163462857Y-120991071D01*
X163605714Y-121919642D02*
X164034285Y-122491071D01*
X164034285Y-121491071D02*
X163462857Y-122062500D01*
X165248571Y-122419642D02*
X165105714Y-122491071D01*
X164820000Y-122491071D01*
X164677142Y-122419642D01*
X164605714Y-122276785D01*
X164605714Y-121705357D01*
X164677142Y-121562500D01*
X164820000Y-121491071D01*
X165105714Y-121491071D01*
X165248571Y-121562500D01*
X165320000Y-121705357D01*
X165320000Y-121848214D01*
X164605714Y-121991071D01*
X165962857Y-122491071D02*
X165962857Y-121491071D01*
X165962857Y-121776785D02*
X166034285Y-121633928D01*
X166105714Y-121562500D01*
X166248571Y-121491071D01*
X166391428Y-121491071D01*
X167891428Y-121491071D02*
X168248571Y-122491071D01*
X168605714Y-121491071D01*
X169962857Y-122491071D02*
X169105714Y-122491071D01*
X169534285Y-122491071D02*
X169534285Y-120991071D01*
X169391428Y-121205357D01*
X169248571Y-121348214D01*
X169105714Y-121419642D01*
X170605714Y-122348214D02*
X170677142Y-122419642D01*
X170605714Y-122491071D01*
X170534285Y-122419642D01*
X170605714Y-122348214D01*
X170605714Y-122491071D01*
X171605714Y-120991071D02*
X171748571Y-120991071D01*
X171891428Y-121062500D01*
X171962857Y-121133928D01*
X172034285Y-121276785D01*
X172105714Y-121562500D01*
X172105714Y-121919642D01*
X172034285Y-122205357D01*
X171962857Y-122348214D01*
X171891428Y-122419642D01*
X171748571Y-122491071D01*
X171605714Y-122491071D01*
X171462857Y-122419642D01*
X171391428Y-122348214D01*
X171320000Y-122205357D01*
X171248571Y-121919642D01*
X171248571Y-121562500D01*
X171320000Y-121276785D01*
X171391428Y-121133928D01*
X171462857Y-121062500D01*
X171605714Y-120991071D01*
X156534285Y-124763214D02*
X156462857Y-124834642D01*
X156248571Y-124906071D01*
X156105714Y-124906071D01*
X155891428Y-124834642D01*
X155748571Y-124691785D01*
X155677142Y-124548928D01*
X155605714Y-124263214D01*
X155605714Y-124048928D01*
X155677142Y-123763214D01*
X155748571Y-123620357D01*
X155891428Y-123477500D01*
X156105714Y-123406071D01*
X156248571Y-123406071D01*
X156462857Y-123477500D01*
X156534285Y-123548928D01*
X158034285Y-124763214D02*
X157962857Y-124834642D01*
X157748571Y-124906071D01*
X157605714Y-124906071D01*
X157391428Y-124834642D01*
X157248571Y-124691785D01*
X157177142Y-124548928D01*
X157105714Y-124263214D01*
X157105714Y-124048928D01*
X157177142Y-123763214D01*
X157248571Y-123620357D01*
X157391428Y-123477500D01*
X157605714Y-123406071D01*
X157748571Y-123406071D01*
X157962857Y-123477500D01*
X158034285Y-123548928D01*
X158962857Y-123406071D02*
X159105714Y-123406071D01*
X159248571Y-123477500D01*
X159320000Y-123548928D01*
X159391428Y-123691785D01*
X159462857Y-123977500D01*
X159462857Y-124334642D01*
X159391428Y-124620357D01*
X159320000Y-124763214D01*
X159248571Y-124834642D01*
X159105714Y-124906071D01*
X158962857Y-124906071D01*
X158820000Y-124834642D01*
X158748571Y-124763214D01*
X158677142Y-124620357D01*
X158605714Y-124334642D01*
X158605714Y-123977500D01*
X158677142Y-123691785D01*
X158748571Y-123548928D01*
X158820000Y-123477500D01*
X158962857Y-123406071D01*
X160105714Y-124334642D02*
X161248571Y-124334642D01*
X162748571Y-124906071D02*
X161891428Y-124906071D01*
X162320000Y-124906071D02*
X162320000Y-123406071D01*
X162177142Y-123620357D01*
X162034285Y-123763214D01*
X161891428Y-123834642D01*
X163391428Y-124763214D02*
X163462857Y-124834642D01*
X163391428Y-124906071D01*
X163320000Y-124834642D01*
X163391428Y-124763214D01*
X163391428Y-124906071D01*
X164391428Y-123406071D02*
X164534285Y-123406071D01*
X164677142Y-123477500D01*
X164748571Y-123548928D01*
X164820000Y-123691785D01*
X164891428Y-123977500D01*
X164891428Y-124334642D01*
X164820000Y-124620357D01*
X164748571Y-124763214D01*
X164677142Y-124834642D01*
X164534285Y-124906071D01*
X164391428Y-124906071D01*
X164248571Y-124834642D01*
X164177142Y-124763214D01*
X164105714Y-124620357D01*
X164034285Y-124334642D01*
X164034285Y-123977500D01*
X164105714Y-123691785D01*
X164177142Y-123548928D01*
X164248571Y-123477500D01*
X164391428Y-123406071D01*
X167391428Y-124906071D02*
X166677142Y-124906071D01*
X166677142Y-123406071D01*
X167891428Y-124906071D02*
X167891428Y-123906071D01*
X167891428Y-123406071D02*
X167820000Y-123477500D01*
X167891428Y-123548928D01*
X167962857Y-123477500D01*
X167891428Y-123406071D01*
X167891428Y-123548928D01*
X169248571Y-124834642D02*
X169105714Y-124906071D01*
X168820000Y-124906071D01*
X168677142Y-124834642D01*
X168605714Y-124763214D01*
X168534285Y-124620357D01*
X168534285Y-124191785D01*
X168605714Y-124048928D01*
X168677142Y-123977500D01*
X168820000Y-123906071D01*
X169105714Y-123906071D01*
X169248571Y-123977500D01*
X170462857Y-124834642D02*
X170320000Y-124906071D01*
X170034285Y-124906071D01*
X169891428Y-124834642D01*
X169820000Y-124691785D01*
X169820000Y-124120357D01*
X169891428Y-123977500D01*
X170034285Y-123906071D01*
X170320000Y-123906071D01*
X170462857Y-123977500D01*
X170534285Y-124120357D01*
X170534285Y-124263214D01*
X169820000Y-124406071D01*
X171177142Y-123906071D02*
X171177142Y-124906071D01*
X171177142Y-124048928D02*
X171248571Y-123977500D01*
X171391428Y-123906071D01*
X171605714Y-123906071D01*
X171748571Y-123977500D01*
X171820000Y-124120357D01*
X171820000Y-124906071D01*
X172462857Y-124834642D02*
X172605714Y-124906071D01*
X172891428Y-124906071D01*
X173034285Y-124834642D01*
X173105714Y-124691785D01*
X173105714Y-124620357D01*
X173034285Y-124477500D01*
X172891428Y-124406071D01*
X172677142Y-124406071D01*
X172534285Y-124334642D01*
X172462857Y-124191785D01*
X172462857Y-124120357D01*
X172534285Y-123977500D01*
X172677142Y-123906071D01*
X172891428Y-123906071D01*
X173034285Y-123977500D01*
X174320000Y-124834642D02*
X174177142Y-124906071D01*
X173891428Y-124906071D01*
X173748571Y-124834642D01*
X173677142Y-124691785D01*
X173677142Y-124120357D01*
X173748571Y-123977500D01*
X173891428Y-123906071D01*
X174177142Y-123906071D01*
X174320000Y-123977500D01*
X174391428Y-124120357D01*
X174391428Y-124263214D01*
X173677142Y-124406071D01*
X161821428Y-78898571D02*
X161821428Y-77398571D01*
X162321428Y-78470000D01*
X162821428Y-77398571D01*
X162821428Y-78898571D01*
X163821428Y-77398571D02*
X164107142Y-77398571D01*
X164250000Y-77470000D01*
X164392857Y-77612857D01*
X164464285Y-77898571D01*
X164464285Y-78398571D01*
X164392857Y-78684285D01*
X164250000Y-78827142D01*
X164107142Y-78898571D01*
X163821428Y-78898571D01*
X163678571Y-78827142D01*
X163535714Y-78684285D01*
X163464285Y-78398571D01*
X163464285Y-77898571D01*
X163535714Y-77612857D01*
X163678571Y-77470000D01*
X163821428Y-77398571D01*
X165964285Y-78898571D02*
X165464285Y-78184285D01*
X165107142Y-78898571D02*
X165107142Y-77398571D01*
X165678571Y-77398571D01*
X165821428Y-77470000D01*
X165892857Y-77541428D01*
X165964285Y-77684285D01*
X165964285Y-77898571D01*
X165892857Y-78041428D01*
X165821428Y-78112857D01*
X165678571Y-78184285D01*
X165107142Y-78184285D01*
X166535714Y-78827142D02*
X166750000Y-78898571D01*
X167107142Y-78898571D01*
X167250000Y-78827142D01*
X167321428Y-78755714D01*
X167392857Y-78612857D01*
X167392857Y-78470000D01*
X167321428Y-78327142D01*
X167250000Y-78255714D01*
X167107142Y-78184285D01*
X166821428Y-78112857D01*
X166678571Y-78041428D01*
X166607142Y-77970000D01*
X166535714Y-77827142D01*
X166535714Y-77684285D01*
X166607142Y-77541428D01*
X166678571Y-77470000D01*
X166821428Y-77398571D01*
X167178571Y-77398571D01*
X167392857Y-77470000D01*
X168035714Y-78112857D02*
X168535714Y-78112857D01*
X168750000Y-78898571D02*
X168035714Y-78898571D01*
X168035714Y-77398571D01*
X168750000Y-77398571D01*
X148598571Y-111538571D02*
X147884285Y-111538571D01*
X147884285Y-110038571D01*
X149312857Y-111538571D02*
X149170000Y-111467142D01*
X149098571Y-111395714D01*
X149027142Y-111252857D01*
X149027142Y-110824285D01*
X149098571Y-110681428D01*
X149170000Y-110610000D01*
X149312857Y-110538571D01*
X149527142Y-110538571D01*
X149670000Y-110610000D01*
X149741428Y-110681428D01*
X149812857Y-110824285D01*
X149812857Y-111252857D01*
X149741428Y-111395714D01*
X149670000Y-111467142D01*
X149527142Y-111538571D01*
X149312857Y-111538571D01*
X150312857Y-110538571D02*
X150670000Y-111538571D01*
X151027142Y-110538571D01*
X152170000Y-111467142D02*
X152027142Y-111538571D01*
X151741428Y-111538571D01*
X151598571Y-111467142D01*
X151527142Y-111324285D01*
X151527142Y-110752857D01*
X151598571Y-110610000D01*
X151741428Y-110538571D01*
X152027142Y-110538571D01*
X152170000Y-110610000D01*
X152241428Y-110752857D01*
X152241428Y-110895714D01*
X151527142Y-111038571D01*
X153812857Y-110538571D02*
X154384285Y-110538571D01*
X154027142Y-110038571D02*
X154027142Y-111324285D01*
X154098571Y-111467142D01*
X154241428Y-111538571D01*
X154384285Y-111538571D01*
X155098571Y-111538571D02*
X154955714Y-111467142D01*
X154884285Y-111395714D01*
X154812857Y-111252857D01*
X154812857Y-110824285D01*
X154884285Y-110681428D01*
X154955714Y-110610000D01*
X155098571Y-110538571D01*
X155312857Y-110538571D01*
X155455714Y-110610000D01*
X155527142Y-110681428D01*
X155598571Y-110824285D01*
X155598571Y-111252857D01*
X155527142Y-111395714D01*
X155455714Y-111467142D01*
X155312857Y-111538571D01*
X155098571Y-111538571D01*
X157384285Y-111538571D02*
X157384285Y-110038571D01*
X157884285Y-111110000D01*
X158384285Y-110038571D01*
X158384285Y-111538571D01*
X159098571Y-111538571D02*
X159098571Y-110538571D01*
X159098571Y-110038571D02*
X159027142Y-110110000D01*
X159098571Y-110181428D01*
X159170000Y-110110000D01*
X159098571Y-110038571D01*
X159098571Y-110181428D01*
X160455714Y-111467142D02*
X160312857Y-111538571D01*
X160027142Y-111538571D01*
X159884285Y-111467142D01*
X159812857Y-111395714D01*
X159741428Y-111252857D01*
X159741428Y-110824285D01*
X159812857Y-110681428D01*
X159884285Y-110610000D01*
X160027142Y-110538571D01*
X160312857Y-110538571D01*
X160455714Y-110610000D01*
X161098571Y-111538571D02*
X161098571Y-110038571D01*
X161741428Y-111538571D02*
X161741428Y-110752857D01*
X161670000Y-110610000D01*
X161527142Y-110538571D01*
X161312857Y-110538571D01*
X161170000Y-110610000D01*
X161098571Y-110681428D01*
X163027142Y-111467142D02*
X162884285Y-111538571D01*
X162598571Y-111538571D01*
X162455714Y-111467142D01*
X162384285Y-111324285D01*
X162384285Y-110752857D01*
X162455714Y-110610000D01*
X162598571Y-110538571D01*
X162884285Y-110538571D01*
X163027142Y-110610000D01*
X163098571Y-110752857D01*
X163098571Y-110895714D01*
X162384285Y-111038571D01*
X163955714Y-111538571D02*
X163812857Y-111467142D01*
X163741428Y-111324285D01*
X163741428Y-110038571D01*
X164741428Y-111538571D02*
X164598571Y-111467142D01*
X164527142Y-111324285D01*
X164527142Y-110038571D01*
X165884285Y-111467142D02*
X165741428Y-111538571D01*
X165455714Y-111538571D01*
X165312857Y-111467142D01*
X165241428Y-111324285D01*
X165241428Y-110752857D01*
X165312857Y-110610000D01*
X165455714Y-110538571D01*
X165741428Y-110538571D01*
X165884285Y-110610000D01*
X165955714Y-110752857D01*
X165955714Y-110895714D01*
X165241428Y-111038571D01*
X166670000Y-111467142D02*
X166670000Y-111538571D01*
X166598571Y-111681428D01*
X166527142Y-111752857D01*
X168384285Y-111110000D02*
X169098571Y-111110000D01*
X168241428Y-111538571D02*
X168741428Y-110038571D01*
X169241428Y-111538571D01*
X169955714Y-111538571D02*
X169812857Y-111467142D01*
X169741428Y-111324285D01*
X169741428Y-110038571D01*
X171098571Y-111467142D02*
X170955714Y-111538571D01*
X170670000Y-111538571D01*
X170527142Y-111467142D01*
X170455714Y-111324285D01*
X170455714Y-110752857D01*
X170527142Y-110610000D01*
X170670000Y-110538571D01*
X170955714Y-110538571D01*
X171098571Y-110610000D01*
X171170000Y-110752857D01*
X171170000Y-110895714D01*
X170455714Y-111038571D01*
X171670000Y-111538571D02*
X172455714Y-110538571D01*
X171670000Y-110538571D02*
X172455714Y-111538571D01*
X174812857Y-111538571D02*
X174812857Y-110752857D01*
X174741428Y-110610000D01*
X174598571Y-110538571D01*
X174312857Y-110538571D01*
X174170000Y-110610000D01*
X174812857Y-111467142D02*
X174670000Y-111538571D01*
X174312857Y-111538571D01*
X174170000Y-111467142D01*
X174098571Y-111324285D01*
X174098571Y-111181428D01*
X174170000Y-111038571D01*
X174312857Y-110967142D01*
X174670000Y-110967142D01*
X174812857Y-110895714D01*
X175527142Y-110538571D02*
X175527142Y-111538571D01*
X175527142Y-110681428D02*
X175598571Y-110610000D01*
X175741428Y-110538571D01*
X175955714Y-110538571D01*
X176098571Y-110610000D01*
X176170000Y-110752857D01*
X176170000Y-111538571D01*
X177527142Y-111538571D02*
X177527142Y-110038571D01*
X177527142Y-111467142D02*
X177384285Y-111538571D01*
X177098571Y-111538571D01*
X176955714Y-111467142D01*
X176884285Y-111395714D01*
X176812857Y-111252857D01*
X176812857Y-110824285D01*
X176884285Y-110681428D01*
X176955714Y-110610000D01*
X177098571Y-110538571D01*
X177384285Y-110538571D01*
X177527142Y-110610000D01*
X179312857Y-111467142D02*
X179527142Y-111538571D01*
X179884285Y-111538571D01*
X180027142Y-111467142D01*
X180098571Y-111395714D01*
X180170000Y-111252857D01*
X180170000Y-111110000D01*
X180098571Y-110967142D01*
X180027142Y-110895714D01*
X179884285Y-110824285D01*
X179598571Y-110752857D01*
X179455714Y-110681428D01*
X179384285Y-110610000D01*
X179312857Y-110467142D01*
X179312857Y-110324285D01*
X179384285Y-110181428D01*
X179455714Y-110110000D01*
X179598571Y-110038571D01*
X179955714Y-110038571D01*
X180170000Y-110110000D01*
X181455714Y-111538571D02*
X181455714Y-110752857D01*
X181384285Y-110610000D01*
X181241428Y-110538571D01*
X180955714Y-110538571D01*
X180812857Y-110610000D01*
X181455714Y-111467142D02*
X181312857Y-111538571D01*
X180955714Y-111538571D01*
X180812857Y-111467142D01*
X180741428Y-111324285D01*
X180741428Y-111181428D01*
X180812857Y-111038571D01*
X180955714Y-110967142D01*
X181312857Y-110967142D01*
X181455714Y-110895714D01*
X182170000Y-111538571D02*
X182170000Y-110538571D01*
X182170000Y-110681428D02*
X182241428Y-110610000D01*
X182384285Y-110538571D01*
X182598571Y-110538571D01*
X182741428Y-110610000D01*
X182812857Y-110752857D01*
X182812857Y-111538571D01*
X182812857Y-110752857D02*
X182884285Y-110610000D01*
X183027142Y-110538571D01*
X183241428Y-110538571D01*
X183384285Y-110610000D01*
X183455714Y-110752857D01*
X183455714Y-111538571D01*
D11*
%TO.C,D2*%
X145961904Y-107972380D02*
X145961904Y-106972380D01*
X146200000Y-106972380D01*
X146342857Y-107020000D01*
X146438095Y-107115238D01*
X146485714Y-107210476D01*
X146533333Y-107400952D01*
X146533333Y-107543809D01*
X146485714Y-107734285D01*
X146438095Y-107829523D01*
X146342857Y-107924761D01*
X146200000Y-107972380D01*
X145961904Y-107972380D01*
X146914285Y-107067619D02*
X146961904Y-107020000D01*
X147057142Y-106972380D01*
X147295238Y-106972380D01*
X147390476Y-107020000D01*
X147438095Y-107067619D01*
X147485714Y-107162857D01*
X147485714Y-107258095D01*
X147438095Y-107400952D01*
X146866666Y-107972380D01*
X147485714Y-107972380D01*
%TO.C,D3*%
X164361904Y-75222380D02*
X164361904Y-74222380D01*
X164600000Y-74222380D01*
X164742857Y-74270000D01*
X164838095Y-74365238D01*
X164885714Y-74460476D01*
X164933333Y-74650952D01*
X164933333Y-74793809D01*
X164885714Y-74984285D01*
X164838095Y-75079523D01*
X164742857Y-75174761D01*
X164600000Y-75222380D01*
X164361904Y-75222380D01*
X165266666Y-74222380D02*
X165885714Y-74222380D01*
X165552380Y-74603333D01*
X165695238Y-74603333D01*
X165790476Y-74650952D01*
X165838095Y-74698571D01*
X165885714Y-74793809D01*
X165885714Y-75031904D01*
X165838095Y-75127142D01*
X165790476Y-75174761D01*
X165695238Y-75222380D01*
X165409523Y-75222380D01*
X165314285Y-75174761D01*
X165266666Y-75127142D01*
%TO.C,R1*%
X163507380Y-94246666D02*
X163031190Y-94580000D01*
X163507380Y-94818095D02*
X162507380Y-94818095D01*
X162507380Y-94437142D01*
X162555000Y-94341904D01*
X162602619Y-94294285D01*
X162697857Y-94246666D01*
X162840714Y-94246666D01*
X162935952Y-94294285D01*
X162983571Y-94341904D01*
X163031190Y-94437142D01*
X163031190Y-94818095D01*
X163507380Y-93294285D02*
X163507380Y-93865714D01*
X163507380Y-93580000D02*
X162507380Y-93580000D01*
X162650238Y-93675238D01*
X162745476Y-93770476D01*
X162793095Y-93865714D01*
%TO.C,D1*%
X160352380Y-93478095D02*
X159352380Y-93478095D01*
X159352380Y-93240000D01*
X159400000Y-93097142D01*
X159495238Y-93001904D01*
X159590476Y-92954285D01*
X159780952Y-92906666D01*
X159923809Y-92906666D01*
X160114285Y-92954285D01*
X160209523Y-93001904D01*
X160304761Y-93097142D01*
X160352380Y-93240000D01*
X160352380Y-93478095D01*
X160352380Y-91954285D02*
X160352380Y-92525714D01*
X160352380Y-92240000D02*
X159352380Y-92240000D01*
X159495238Y-92335238D01*
X159590476Y-92430476D01*
X159638095Y-92525714D01*
%TO.C,U1*%
X163980595Y-101722380D02*
X163980595Y-102531904D01*
X164028214Y-102627142D01*
X164075833Y-102674761D01*
X164171071Y-102722380D01*
X164361547Y-102722380D01*
X164456785Y-102674761D01*
X164504404Y-102627142D01*
X164552023Y-102531904D01*
X164552023Y-101722380D01*
X165552023Y-102722380D02*
X164980595Y-102722380D01*
X165266309Y-102722380D02*
X165266309Y-101722380D01*
X165171071Y-101865238D01*
X165075833Y-101960476D01*
X164980595Y-102008095D01*
D12*
%TO.C,D2*%
X148950000Y-104520000D02*
X145050000Y-104520000D01*
X148950000Y-106520000D02*
X148950000Y-104520000D01*
X148950000Y-106520000D02*
X145050000Y-106520000D01*
%TO.C,D3*%
X163615000Y-76935000D02*
X165900000Y-76935000D01*
X165900000Y-75465000D02*
X163615000Y-75465000D01*
X163615000Y-75465000D02*
X163615000Y-76935000D01*
%TO.C,R1*%
X163962500Y-94317258D02*
X163962500Y-93842742D01*
X165007500Y-94317258D02*
X165007500Y-93842742D01*
%TO.C,D1*%
X157200000Y-91240000D02*
X157200000Y-93790000D01*
X158900000Y-91240000D02*
X157200000Y-91240000D01*
X158900000Y-91240000D02*
X158900000Y-93790000D01*
%TO.C,U1*%
X164742500Y-98310000D02*
X163942500Y-98310000D01*
X164742500Y-101430000D02*
X163942500Y-101430000D01*
X164742500Y-101430000D02*
X166542500Y-101430000D01*
X164742500Y-98310000D02*
X165542500Y-98310000D01*
%TD*%
M02*
