M48
; DRILL file {KiCad (6.0.1)} date Thu Jan 27 12:03:53 2022
; FORMAT={-:-/ absolute / inch / decimal}
; #@! TF.CreationDate,2022-01-27T12:03:53+10:00
; #@! TF.GenerationSoftware,Kicad,Pcbnew,(6.0.1)
; #@! TF.FileFunction,Plated,1,2,PTH
FMAT,2
INCH
; #@! TA.AperFunction,Plated,PTH,ViaDrill
T1C0.0157
; #@! TA.AperFunction,Plated,PTH,ComponentDrill
T2C0.0394
; #@! TA.AperFunction,Plated,PTH,ComponentDrill
T3C0.0472
%
G90
G05
T1
X5.9311Y-4.1543
X6.5276Y-4.0669
X6.5748Y-3.6059
T2
X6.2224Y-3.8409
X6.2224Y-3.9409
X6.4256Y-4.228
X6.5256Y-4.228
X6.726Y-3.8087
X6.726Y-3.9087
X6.726Y-4.0087
X6.726Y-4.1087
X6.726Y-4.2087
X6.826Y-3.8087
X6.826Y-3.9087
X6.826Y-4.0087
X6.826Y-4.1087
X6.826Y-4.2087
T3
X5.6047Y-4.0
X5.9Y-4.0
X6.0524Y-3.2247
X6.0524Y-4.7753
X6.2Y-3.4804
X6.2Y-4.5196
X6.8Y-3.4804
X6.8Y-4.5196
X6.9476Y-3.2247
X6.9476Y-4.7753
X7.1Y-4.0
X7.3953Y-4.0
T0
M30
