%TF.GenerationSoftware,KiCad,Pcbnew,(6.0.1)*%
%TF.CreationDate,2023-04-16T16:50:23+10:00*%
%TF.ProjectId,blinker,626c696e-6b65-4722-9e6b-696361645f70,rev?*%
%TF.SameCoordinates,Original*%
%TF.FileFunction,Legend,Top*%
%TF.FilePolarity,Positive*%
%FSLAX46Y46*%
G04 Gerber Fmt 4.6, Leading zero omitted, Abs format (unit mm)*
G04 Created by KiCad (PCBNEW (6.0.1)) date 2023-04-16 16:50:23*
%MOMM*%
%LPD*%
G01*
G04 APERTURE LIST*
%ADD10C,0.300000*%
%ADD11C,0.150000*%
%ADD12C,0.120000*%
G04 APERTURE END LIST*
D10*
X156017142Y-112488571D02*
X156374285Y-113488571D01*
X156731428Y-112488571D01*
X158088571Y-113488571D02*
X157231428Y-113488571D01*
X157660000Y-113488571D02*
X157660000Y-111988571D01*
X157517142Y-112202857D01*
X157374285Y-112345714D01*
X157231428Y-112417142D01*
X158731428Y-113345714D02*
X158802857Y-113417142D01*
X158731428Y-113488571D01*
X158660000Y-113417142D01*
X158731428Y-113345714D01*
X158731428Y-113488571D01*
X159374285Y-112131428D02*
X159445714Y-112060000D01*
X159588571Y-111988571D01*
X159945714Y-111988571D01*
X160088571Y-112060000D01*
X160160000Y-112131428D01*
X160231428Y-112274285D01*
X160231428Y-112417142D01*
X160160000Y-112631428D01*
X159302857Y-113488571D01*
X160231428Y-113488571D01*
X166209642Y-113241428D02*
X166209642Y-112098571D01*
X166781071Y-112670000D02*
X165638214Y-112670000D01*
X168624642Y-113241428D02*
X168624642Y-112098571D01*
D11*
%TO.C,D3*%
X168491904Y-124382380D02*
X168491904Y-123382380D01*
X168730000Y-123382380D01*
X168872857Y-123430000D01*
X168968095Y-123525238D01*
X169015714Y-123620476D01*
X169063333Y-123810952D01*
X169063333Y-123953809D01*
X169015714Y-124144285D01*
X168968095Y-124239523D01*
X168872857Y-124334761D01*
X168730000Y-124382380D01*
X168491904Y-124382380D01*
X169396666Y-123382380D02*
X170015714Y-123382380D01*
X169682380Y-123763333D01*
X169825238Y-123763333D01*
X169920476Y-123810952D01*
X169968095Y-123858571D01*
X170015714Y-123953809D01*
X170015714Y-124191904D01*
X169968095Y-124287142D01*
X169920476Y-124334761D01*
X169825238Y-124382380D01*
X169539523Y-124382380D01*
X169444285Y-124334761D01*
X169396666Y-124287142D01*
%TO.C,R1*%
X166863333Y-121122380D02*
X166530000Y-120646190D01*
X166291904Y-121122380D02*
X166291904Y-120122380D01*
X166672857Y-120122380D01*
X166768095Y-120170000D01*
X166815714Y-120217619D01*
X166863333Y-120312857D01*
X166863333Y-120455714D01*
X166815714Y-120550952D01*
X166768095Y-120598571D01*
X166672857Y-120646190D01*
X166291904Y-120646190D01*
X167815714Y-121122380D02*
X167244285Y-121122380D01*
X167530000Y-121122380D02*
X167530000Y-120122380D01*
X167434761Y-120265238D01*
X167339523Y-120360476D01*
X167244285Y-120408095D01*
%TO.C,J1*%
X178997380Y-112498333D02*
X179711666Y-112498333D01*
X179854523Y-112545952D01*
X179949761Y-112641190D01*
X179997380Y-112784047D01*
X179997380Y-112879285D01*
X179997380Y-111498333D02*
X179997380Y-112069761D01*
X179997380Y-111784047D02*
X178997380Y-111784047D01*
X179140238Y-111879285D01*
X179235476Y-111974523D01*
X179283095Y-112069761D01*
%TO.C,D1*%
X165512380Y-116728095D02*
X164512380Y-116728095D01*
X164512380Y-116490000D01*
X164560000Y-116347142D01*
X164655238Y-116251904D01*
X164750476Y-116204285D01*
X164940952Y-116156666D01*
X165083809Y-116156666D01*
X165274285Y-116204285D01*
X165369523Y-116251904D01*
X165464761Y-116347142D01*
X165512380Y-116490000D01*
X165512380Y-116728095D01*
X165512380Y-115204285D02*
X165512380Y-115775714D01*
X165512380Y-115490000D02*
X164512380Y-115490000D01*
X164655238Y-115585238D01*
X164750476Y-115680476D01*
X164798095Y-115775714D01*
%TO.C,U1*%
X177818095Y-120872380D02*
X177818095Y-121681904D01*
X177865714Y-121777142D01*
X177913333Y-121824761D01*
X178008571Y-121872380D01*
X178199047Y-121872380D01*
X178294285Y-121824761D01*
X178341904Y-121777142D01*
X178389523Y-121681904D01*
X178389523Y-120872380D01*
X179389523Y-121872380D02*
X178818095Y-121872380D01*
X179103809Y-121872380D02*
X179103809Y-120872380D01*
X179008571Y-121015238D01*
X178913333Y-121110476D01*
X178818095Y-121158095D01*
%TO.C,JP1*%
X160572380Y-122423333D02*
X161286666Y-122423333D01*
X161429523Y-122470952D01*
X161524761Y-122566190D01*
X161572380Y-122709047D01*
X161572380Y-122804285D01*
X161572380Y-121947142D02*
X160572380Y-121947142D01*
X160572380Y-121566190D01*
X160620000Y-121470952D01*
X160667619Y-121423333D01*
X160762857Y-121375714D01*
X160905714Y-121375714D01*
X161000952Y-121423333D01*
X161048571Y-121470952D01*
X161096190Y-121566190D01*
X161096190Y-121947142D01*
X161572380Y-120423333D02*
X161572380Y-120994761D01*
X161572380Y-120709047D02*
X160572380Y-120709047D01*
X160715238Y-120804285D01*
X160810476Y-120899523D01*
X160858095Y-120994761D01*
%TO.C,SC1*%
X163784761Y-113531904D02*
X163832380Y-113389047D01*
X163832380Y-113150952D01*
X163784761Y-113055714D01*
X163737142Y-113008095D01*
X163641904Y-112960476D01*
X163546666Y-112960476D01*
X163451428Y-113008095D01*
X163403809Y-113055714D01*
X163356190Y-113150952D01*
X163308571Y-113341428D01*
X163260952Y-113436666D01*
X163213333Y-113484285D01*
X163118095Y-113531904D01*
X163022857Y-113531904D01*
X162927619Y-113484285D01*
X162880000Y-113436666D01*
X162832380Y-113341428D01*
X162832380Y-113103333D01*
X162880000Y-112960476D01*
X163737142Y-111960476D02*
X163784761Y-112008095D01*
X163832380Y-112150952D01*
X163832380Y-112246190D01*
X163784761Y-112389047D01*
X163689523Y-112484285D01*
X163594285Y-112531904D01*
X163403809Y-112579523D01*
X163260952Y-112579523D01*
X163070476Y-112531904D01*
X162975238Y-112484285D01*
X162880000Y-112389047D01*
X162832380Y-112246190D01*
X162832380Y-112150952D01*
X162880000Y-112008095D01*
X162927619Y-111960476D01*
X163832380Y-111008095D02*
X163832380Y-111579523D01*
X163832380Y-111293809D02*
X162832380Y-111293809D01*
X162975238Y-111389047D01*
X163070476Y-111484285D01*
X163118095Y-111579523D01*
D12*
%TO.C,D3*%
X165345000Y-124585000D02*
X167630000Y-124585000D01*
X167630000Y-123115000D02*
X165345000Y-123115000D01*
X165345000Y-123115000D02*
X165345000Y-124585000D01*
%TO.C,R1*%
X167047258Y-122682500D02*
X166572742Y-122682500D01*
X167047258Y-121637500D02*
X166572742Y-121637500D01*
%TO.C,J1*%
X170805000Y-109565000D02*
X170805000Y-114765000D01*
X175945000Y-112165000D02*
X178545000Y-112165000D01*
X178545000Y-112165000D02*
X178545000Y-114765000D01*
X177215000Y-109565000D02*
X178545000Y-109565000D01*
X178545000Y-109565000D02*
X178545000Y-110895000D01*
X175945000Y-109565000D02*
X170805000Y-109565000D01*
X178545000Y-114765000D02*
X170805000Y-114765000D01*
X175945000Y-109565000D02*
X175945000Y-112165000D01*
%TO.C,D1*%
X167760000Y-117490000D02*
X167760000Y-114940000D01*
X166060000Y-117490000D02*
X167760000Y-117490000D01*
X166060000Y-117490000D02*
X166060000Y-114940000D01*
%TO.C,U1*%
X175162500Y-120000000D02*
X174362500Y-120000000D01*
X175162500Y-123120000D02*
X174362500Y-123120000D01*
X175162500Y-123120000D02*
X176962500Y-123120000D01*
X175162500Y-120000000D02*
X175962500Y-120000000D01*
%TO.C,JP1*%
X159770000Y-120240000D02*
X159770000Y-123040000D01*
X157770000Y-120240000D02*
X159770000Y-120240000D01*
X159770000Y-123040000D02*
X157770000Y-123040000D01*
X157770000Y-123040000D02*
X157770000Y-120240000D01*
%TO.C,SC1*%
X167180000Y-111570000D02*
X167180000Y-108910000D01*
X167180000Y-111570000D02*
X169780000Y-111570000D01*
X169780000Y-111570000D02*
X169780000Y-108910000D01*
X164580000Y-111570000D02*
X164580000Y-110240000D01*
X167180000Y-108910000D02*
X169780000Y-108910000D01*
X165910000Y-111570000D02*
X164580000Y-111570000D01*
%TD*%
M02*
