%TF.GenerationSoftware,KiCad,Pcbnew,(6.0.1)*%
%TF.CreationDate,2022-01-26T23:07:26+10:00*%
%TF.ProjectId,blinker,626c696e-6b65-4722-9e6b-696361645f70,rev?*%
%TF.SameCoordinates,Original*%
%TF.FileFunction,Soldermask,Top*%
%TF.FilePolarity,Negative*%
%FSLAX46Y46*%
G04 Gerber Fmt 4.6, Leading zero omitted, Abs format (unit mm)*
G04 Created by KiCad (PCBNEW (6.0.1)) date 2022-01-26 23:07:26*
%MOMM*%
%LPD*%
G01*
G04 APERTURE LIST*
G04 Aperture macros list*
%AMRoundRect*
0 Rectangle with rounded corners*
0 $1 Rounding radius*
0 $2 $3 $4 $5 $6 $7 $8 $9 X,Y pos of 4 corners*
0 Add a 4 corners polygon primitive as box body*
4,1,4,$2,$3,$4,$5,$6,$7,$8,$9,$2,$3,0*
0 Add four circle primitives for the rounded corners*
1,1,$1+$1,$2,$3*
1,1,$1+$1,$4,$5*
1,1,$1+$1,$6,$7*
1,1,$1+$1,$8,$9*
0 Add four rect primitives between the rounded corners*
20,1,$1+$1,$2,$3,$4,$5,0*
20,1,$1+$1,$4,$5,$6,$7,0*
20,1,$1+$1,$6,$7,$8,$9,0*
20,1,$1+$1,$8,$9,$2,$3,0*%
%AMRotRect*
0 Rectangle, with rotation*
0 The origin of the aperture is its center*
0 $1 length*
0 $2 width*
0 $3 Rotation angle, in degrees counterclockwise*
0 Add horizontal line*
21,1,$1,$2,0,0,$3*%
G04 Aperture macros list end*
%ADD10R,1.100000X1.100000*%
%ADD11RoundRect,0.243750X-0.243750X-0.456250X0.243750X-0.456250X0.243750X0.456250X-0.243750X0.456250X0*%
%ADD12RoundRect,0.200000X0.275000X-0.200000X0.275000X0.200000X-0.275000X0.200000X-0.275000X-0.200000X0*%
%ADD13R,0.450000X0.600000*%
%ADD14RoundRect,0.150000X0.512500X0.150000X-0.512500X0.150000X-0.512500X-0.150000X0.512500X-0.150000X0*%
%ADD15RotRect,2.400000X2.400000X240.000000*%
%ADD16C,2.400000*%
%ADD17R,2.400000X2.400000*%
%ADD18RotRect,2.400000X2.400000X60.000000*%
%ADD19RotRect,2.400000X2.400000X300.000000*%
%ADD20R,1.700000X1.700000*%
%ADD21O,1.700000X1.700000*%
%ADD22RotRect,2.400000X2.400000X120.000000*%
G04 APERTURE END LIST*
D10*
%TO.C,D2*%
X148100000Y-105520000D03*
X145300000Y-105520000D03*
%TD*%
D11*
%TO.C,D3*%
X166037500Y-76200000D03*
X164162500Y-76200000D03*
%TD*%
D12*
%TO.C,R1*%
X164485000Y-94905000D03*
X164485000Y-93255000D03*
%TD*%
D13*
%TO.C,D1*%
X158050000Y-91690000D03*
X158050000Y-93790000D03*
%TD*%
D14*
%TO.C,U1*%
X165880000Y-100820000D03*
X165880000Y-99870000D03*
X165880000Y-98920000D03*
X163605000Y-98920000D03*
X163605000Y-99870000D03*
X163605000Y-100820000D03*
%TD*%
D15*
%TO.C,C3*%
X157480000Y-114798227D03*
D16*
X153730000Y-121293418D03*
%TD*%
%TO.C,C1*%
X187840000Y-101600000D03*
D17*
X180340000Y-101600000D03*
%TD*%
D18*
%TO.C,C6*%
X172720000Y-88401773D03*
D16*
X176470000Y-81906582D03*
%TD*%
D19*
%TO.C,C2*%
X172720000Y-114798227D03*
D16*
X176470000Y-121293418D03*
%TD*%
D20*
%TO.C,J1*%
X170840000Y-106900000D03*
D21*
X173380000Y-106900000D03*
X170840000Y-104360000D03*
X173380000Y-104360000D03*
X170840000Y-101820000D03*
X173380000Y-101820000D03*
X170840000Y-99280000D03*
X173380000Y-99280000D03*
X170840000Y-96740000D03*
X173380000Y-96740000D03*
%TD*%
D20*
%TO.C,JP1*%
X163210000Y-107390000D03*
D21*
X165750000Y-107390000D03*
%TD*%
D22*
%TO.C,C5*%
X157480000Y-88401773D03*
D16*
X153730000Y-81906582D03*
%TD*%
D20*
%TO.C,SC1*%
X158050000Y-97560000D03*
D21*
X158050000Y-100100000D03*
%TD*%
D17*
%TO.C,C4*%
X149860000Y-101600000D03*
D16*
X142360000Y-101600000D03*
%TD*%
M02*
