%TF.GenerationSoftware,KiCad,Pcbnew,(6.0.1)*%
%TF.CreationDate,2022-04-26T22:35:41+10:00*%
%TF.ProjectId,blinker,626c696e-6b65-4722-9e6b-696361645f70,rev?*%
%TF.SameCoordinates,Original*%
%TF.FileFunction,Legend,Top*%
%TF.FilePolarity,Positive*%
%FSLAX46Y46*%
G04 Gerber Fmt 4.6, Leading zero omitted, Abs format (unit mm)*
G04 Created by KiCad (PCBNEW (6.0.1)) date 2022-04-26 22:35:41*
%MOMM*%
%LPD*%
G01*
G04 APERTURE LIST*
%ADD10C,0.300000*%
%ADD11C,0.127000*%
%ADD12C,0.150000*%
%ADD13C,0.120000*%
G04 APERTURE END LIST*
D10*
X154808571Y-97729642D02*
X155951428Y-97729642D01*
X155380000Y-98301071D02*
X155380000Y-97158214D01*
X154808571Y-100144642D02*
X155951428Y-100144642D01*
D11*
X168441000Y-75912142D02*
X168404714Y-75948428D01*
X168295857Y-75984714D01*
X168223285Y-75984714D01*
X168114428Y-75948428D01*
X168041857Y-75875857D01*
X168005571Y-75803285D01*
X167969285Y-75658142D01*
X167969285Y-75549285D01*
X168005571Y-75404142D01*
X168041857Y-75331571D01*
X168114428Y-75259000D01*
X168223285Y-75222714D01*
X168295857Y-75222714D01*
X168404714Y-75259000D01*
X168441000Y-75295285D01*
X168912714Y-75222714D02*
X169057857Y-75222714D01*
X169130428Y-75259000D01*
X169203000Y-75331571D01*
X169239285Y-75476714D01*
X169239285Y-75730714D01*
X169203000Y-75875857D01*
X169130428Y-75948428D01*
X169057857Y-75984714D01*
X168912714Y-75984714D01*
X168840142Y-75948428D01*
X168767571Y-75875857D01*
X168731285Y-75730714D01*
X168731285Y-75476714D01*
X168767571Y-75331571D01*
X168840142Y-75259000D01*
X168912714Y-75222714D01*
X169565857Y-75984714D02*
X169565857Y-75222714D01*
X169747285Y-75222714D01*
X169856142Y-75259000D01*
X169928714Y-75331571D01*
X169965000Y-75404142D01*
X170001285Y-75549285D01*
X170001285Y-75658142D01*
X169965000Y-75803285D01*
X169928714Y-75875857D01*
X169856142Y-75948428D01*
X169747285Y-75984714D01*
X169565857Y-75984714D01*
X170327857Y-75585571D02*
X170581857Y-75585571D01*
X170690714Y-75984714D02*
X170327857Y-75984714D01*
X170327857Y-75222714D01*
X170690714Y-75222714D01*
D10*
X165415714Y-109338571D02*
X165415714Y-107838571D01*
X166058571Y-109267142D02*
X166272857Y-109338571D01*
X166630000Y-109338571D01*
X166772857Y-109267142D01*
X166844285Y-109195714D01*
X166915714Y-109052857D01*
X166915714Y-108910000D01*
X166844285Y-108767142D01*
X166772857Y-108695714D01*
X166630000Y-108624285D01*
X166344285Y-108552857D01*
X166201428Y-108481428D01*
X166130000Y-108410000D01*
X166058571Y-108267142D01*
X166058571Y-108124285D01*
X166130000Y-107981428D01*
X166201428Y-107910000D01*
X166344285Y-107838571D01*
X166701428Y-107838571D01*
X166915714Y-107910000D01*
X167558571Y-109338571D02*
X167558571Y-107838571D01*
X168130000Y-107838571D01*
X168272857Y-107910000D01*
X168344285Y-107981428D01*
X168415714Y-108124285D01*
X168415714Y-108338571D01*
X168344285Y-108481428D01*
X168272857Y-108552857D01*
X168130000Y-108624285D01*
X167558571Y-108624285D01*
X159605714Y-121705357D02*
X159820000Y-121776785D01*
X159891428Y-121848214D01*
X159962857Y-121991071D01*
X159962857Y-122205357D01*
X159891428Y-122348214D01*
X159820000Y-122419642D01*
X159677142Y-122491071D01*
X159105714Y-122491071D01*
X159105714Y-120991071D01*
X159605714Y-120991071D01*
X159748571Y-121062500D01*
X159820000Y-121133928D01*
X159891428Y-121276785D01*
X159891428Y-121419642D01*
X159820000Y-121562500D01*
X159748571Y-121633928D01*
X159605714Y-121705357D01*
X159105714Y-121705357D01*
X160820000Y-122491071D02*
X160677142Y-122419642D01*
X160605714Y-122276785D01*
X160605714Y-120991071D01*
X161391428Y-122491071D02*
X161391428Y-121491071D01*
X161391428Y-120991071D02*
X161320000Y-121062500D01*
X161391428Y-121133928D01*
X161462857Y-121062500D01*
X161391428Y-120991071D01*
X161391428Y-121133928D01*
X162105714Y-121491071D02*
X162105714Y-122491071D01*
X162105714Y-121633928D02*
X162177142Y-121562500D01*
X162320000Y-121491071D01*
X162534285Y-121491071D01*
X162677142Y-121562500D01*
X162748571Y-121705357D01*
X162748571Y-122491071D01*
X163462857Y-122491071D02*
X163462857Y-120991071D01*
X163605714Y-121919642D02*
X164034285Y-122491071D01*
X164034285Y-121491071D02*
X163462857Y-122062500D01*
X165248571Y-122419642D02*
X165105714Y-122491071D01*
X164820000Y-122491071D01*
X164677142Y-122419642D01*
X164605714Y-122276785D01*
X164605714Y-121705357D01*
X164677142Y-121562500D01*
X164820000Y-121491071D01*
X165105714Y-121491071D01*
X165248571Y-121562500D01*
X165320000Y-121705357D01*
X165320000Y-121848214D01*
X164605714Y-121991071D01*
X165962857Y-122491071D02*
X165962857Y-121491071D01*
X165962857Y-121776785D02*
X166034285Y-121633928D01*
X166105714Y-121562500D01*
X166248571Y-121491071D01*
X166391428Y-121491071D01*
X167891428Y-121491071D02*
X168248571Y-122491071D01*
X168605714Y-121491071D01*
X169962857Y-122491071D02*
X169105714Y-122491071D01*
X169534285Y-122491071D02*
X169534285Y-120991071D01*
X169391428Y-121205357D01*
X169248571Y-121348214D01*
X169105714Y-121419642D01*
X170605714Y-122348214D02*
X170677142Y-122419642D01*
X170605714Y-122491071D01*
X170534285Y-122419642D01*
X170605714Y-122348214D01*
X170605714Y-122491071D01*
X172105714Y-122491071D02*
X171248571Y-122491071D01*
X171677142Y-122491071D02*
X171677142Y-120991071D01*
X171534285Y-121205357D01*
X171391428Y-121348214D01*
X171248571Y-121419642D01*
X156534285Y-124763214D02*
X156462857Y-124834642D01*
X156248571Y-124906071D01*
X156105714Y-124906071D01*
X155891428Y-124834642D01*
X155748571Y-124691785D01*
X155677142Y-124548928D01*
X155605714Y-124263214D01*
X155605714Y-124048928D01*
X155677142Y-123763214D01*
X155748571Y-123620357D01*
X155891428Y-123477500D01*
X156105714Y-123406071D01*
X156248571Y-123406071D01*
X156462857Y-123477500D01*
X156534285Y-123548928D01*
X158034285Y-124763214D02*
X157962857Y-124834642D01*
X157748571Y-124906071D01*
X157605714Y-124906071D01*
X157391428Y-124834642D01*
X157248571Y-124691785D01*
X157177142Y-124548928D01*
X157105714Y-124263214D01*
X157105714Y-124048928D01*
X157177142Y-123763214D01*
X157248571Y-123620357D01*
X157391428Y-123477500D01*
X157605714Y-123406071D01*
X157748571Y-123406071D01*
X157962857Y-123477500D01*
X158034285Y-123548928D01*
X158962857Y-123406071D02*
X159105714Y-123406071D01*
X159248571Y-123477500D01*
X159320000Y-123548928D01*
X159391428Y-123691785D01*
X159462857Y-123977500D01*
X159462857Y-124334642D01*
X159391428Y-124620357D01*
X159320000Y-124763214D01*
X159248571Y-124834642D01*
X159105714Y-124906071D01*
X158962857Y-124906071D01*
X158820000Y-124834642D01*
X158748571Y-124763214D01*
X158677142Y-124620357D01*
X158605714Y-124334642D01*
X158605714Y-123977500D01*
X158677142Y-123691785D01*
X158748571Y-123548928D01*
X158820000Y-123477500D01*
X158962857Y-123406071D01*
X160105714Y-124334642D02*
X161248571Y-124334642D01*
X162748571Y-124906071D02*
X161891428Y-124906071D01*
X162320000Y-124906071D02*
X162320000Y-123406071D01*
X162177142Y-123620357D01*
X162034285Y-123763214D01*
X161891428Y-123834642D01*
X163391428Y-124763214D02*
X163462857Y-124834642D01*
X163391428Y-124906071D01*
X163320000Y-124834642D01*
X163391428Y-124763214D01*
X163391428Y-124906071D01*
X164391428Y-123406071D02*
X164534285Y-123406071D01*
X164677142Y-123477500D01*
X164748571Y-123548928D01*
X164820000Y-123691785D01*
X164891428Y-123977500D01*
X164891428Y-124334642D01*
X164820000Y-124620357D01*
X164748571Y-124763214D01*
X164677142Y-124834642D01*
X164534285Y-124906071D01*
X164391428Y-124906071D01*
X164248571Y-124834642D01*
X164177142Y-124763214D01*
X164105714Y-124620357D01*
X164034285Y-124334642D01*
X164034285Y-123977500D01*
X164105714Y-123691785D01*
X164177142Y-123548928D01*
X164248571Y-123477500D01*
X164391428Y-123406071D01*
X167391428Y-124906071D02*
X166677142Y-124906071D01*
X166677142Y-123406071D01*
X167891428Y-124906071D02*
X167891428Y-123906071D01*
X167891428Y-123406071D02*
X167820000Y-123477500D01*
X167891428Y-123548928D01*
X167962857Y-123477500D01*
X167891428Y-123406071D01*
X167891428Y-123548928D01*
X169248571Y-124834642D02*
X169105714Y-124906071D01*
X168820000Y-124906071D01*
X168677142Y-124834642D01*
X168605714Y-124763214D01*
X168534285Y-124620357D01*
X168534285Y-124191785D01*
X168605714Y-124048928D01*
X168677142Y-123977500D01*
X168820000Y-123906071D01*
X169105714Y-123906071D01*
X169248571Y-123977500D01*
X170462857Y-124834642D02*
X170320000Y-124906071D01*
X170034285Y-124906071D01*
X169891428Y-124834642D01*
X169820000Y-124691785D01*
X169820000Y-124120357D01*
X169891428Y-123977500D01*
X170034285Y-123906071D01*
X170320000Y-123906071D01*
X170462857Y-123977500D01*
X170534285Y-124120357D01*
X170534285Y-124263214D01*
X169820000Y-124406071D01*
X171177142Y-123906071D02*
X171177142Y-124906071D01*
X171177142Y-124048928D02*
X171248571Y-123977500D01*
X171391428Y-123906071D01*
X171605714Y-123906071D01*
X171748571Y-123977500D01*
X171820000Y-124120357D01*
X171820000Y-124906071D01*
X172462857Y-124834642D02*
X172605714Y-124906071D01*
X172891428Y-124906071D01*
X173034285Y-124834642D01*
X173105714Y-124691785D01*
X173105714Y-124620357D01*
X173034285Y-124477500D01*
X172891428Y-124406071D01*
X172677142Y-124406071D01*
X172534285Y-124334642D01*
X172462857Y-124191785D01*
X172462857Y-124120357D01*
X172534285Y-123977500D01*
X172677142Y-123906071D01*
X172891428Y-123906071D01*
X173034285Y-123977500D01*
X174320000Y-124834642D02*
X174177142Y-124906071D01*
X173891428Y-124906071D01*
X173748571Y-124834642D01*
X173677142Y-124691785D01*
X173677142Y-124120357D01*
X173748571Y-123977500D01*
X173891428Y-123906071D01*
X174177142Y-123906071D01*
X174320000Y-123977500D01*
X174391428Y-124120357D01*
X174391428Y-124263214D01*
X173677142Y-124406071D01*
D11*
X160328285Y-76014714D02*
X160328285Y-75252714D01*
X160582285Y-75797000D01*
X160836285Y-75252714D01*
X160836285Y-76014714D01*
X161344285Y-75252714D02*
X161489428Y-75252714D01*
X161562000Y-75289000D01*
X161634571Y-75361571D01*
X161670857Y-75506714D01*
X161670857Y-75760714D01*
X161634571Y-75905857D01*
X161562000Y-75978428D01*
X161489428Y-76014714D01*
X161344285Y-76014714D01*
X161271714Y-75978428D01*
X161199142Y-75905857D01*
X161162857Y-75760714D01*
X161162857Y-75506714D01*
X161199142Y-75361571D01*
X161271714Y-75289000D01*
X161344285Y-75252714D01*
X162432857Y-76014714D02*
X162178857Y-75651857D01*
X161997428Y-76014714D02*
X161997428Y-75252714D01*
X162287714Y-75252714D01*
X162360285Y-75289000D01*
X162396571Y-75325285D01*
X162432857Y-75397857D01*
X162432857Y-75506714D01*
X162396571Y-75579285D01*
X162360285Y-75615571D01*
X162287714Y-75651857D01*
X161997428Y-75651857D01*
X162723142Y-75978428D02*
X162832000Y-76014714D01*
X163013428Y-76014714D01*
X163086000Y-75978428D01*
X163122285Y-75942142D01*
X163158571Y-75869571D01*
X163158571Y-75797000D01*
X163122285Y-75724428D01*
X163086000Y-75688142D01*
X163013428Y-75651857D01*
X162868285Y-75615571D01*
X162795714Y-75579285D01*
X162759428Y-75543000D01*
X162723142Y-75470428D01*
X162723142Y-75397857D01*
X162759428Y-75325285D01*
X162795714Y-75289000D01*
X162868285Y-75252714D01*
X163049714Y-75252714D01*
X163158571Y-75289000D01*
X163485142Y-75615571D02*
X163739142Y-75615571D01*
X163848000Y-76014714D02*
X163485142Y-76014714D01*
X163485142Y-75252714D01*
X163848000Y-75252714D01*
D10*
X148598571Y-111538571D02*
X147884285Y-111538571D01*
X147884285Y-110038571D01*
X149312857Y-111538571D02*
X149170000Y-111467142D01*
X149098571Y-111395714D01*
X149027142Y-111252857D01*
X149027142Y-110824285D01*
X149098571Y-110681428D01*
X149170000Y-110610000D01*
X149312857Y-110538571D01*
X149527142Y-110538571D01*
X149670000Y-110610000D01*
X149741428Y-110681428D01*
X149812857Y-110824285D01*
X149812857Y-111252857D01*
X149741428Y-111395714D01*
X149670000Y-111467142D01*
X149527142Y-111538571D01*
X149312857Y-111538571D01*
X150312857Y-110538571D02*
X150670000Y-111538571D01*
X151027142Y-110538571D01*
X152170000Y-111467142D02*
X152027142Y-111538571D01*
X151741428Y-111538571D01*
X151598571Y-111467142D01*
X151527142Y-111324285D01*
X151527142Y-110752857D01*
X151598571Y-110610000D01*
X151741428Y-110538571D01*
X152027142Y-110538571D01*
X152170000Y-110610000D01*
X152241428Y-110752857D01*
X152241428Y-110895714D01*
X151527142Y-111038571D01*
X153812857Y-110538571D02*
X154384285Y-110538571D01*
X154027142Y-110038571D02*
X154027142Y-111324285D01*
X154098571Y-111467142D01*
X154241428Y-111538571D01*
X154384285Y-111538571D01*
X155098571Y-111538571D02*
X154955714Y-111467142D01*
X154884285Y-111395714D01*
X154812857Y-111252857D01*
X154812857Y-110824285D01*
X154884285Y-110681428D01*
X154955714Y-110610000D01*
X155098571Y-110538571D01*
X155312857Y-110538571D01*
X155455714Y-110610000D01*
X155527142Y-110681428D01*
X155598571Y-110824285D01*
X155598571Y-111252857D01*
X155527142Y-111395714D01*
X155455714Y-111467142D01*
X155312857Y-111538571D01*
X155098571Y-111538571D01*
X157384285Y-111538571D02*
X157384285Y-110038571D01*
X157884285Y-111110000D01*
X158384285Y-110038571D01*
X158384285Y-111538571D01*
X159098571Y-111538571D02*
X159098571Y-110538571D01*
X159098571Y-110038571D02*
X159027142Y-110110000D01*
X159098571Y-110181428D01*
X159170000Y-110110000D01*
X159098571Y-110038571D01*
X159098571Y-110181428D01*
X160455714Y-111467142D02*
X160312857Y-111538571D01*
X160027142Y-111538571D01*
X159884285Y-111467142D01*
X159812857Y-111395714D01*
X159741428Y-111252857D01*
X159741428Y-110824285D01*
X159812857Y-110681428D01*
X159884285Y-110610000D01*
X160027142Y-110538571D01*
X160312857Y-110538571D01*
X160455714Y-110610000D01*
X161098571Y-111538571D02*
X161098571Y-110038571D01*
X161741428Y-111538571D02*
X161741428Y-110752857D01*
X161670000Y-110610000D01*
X161527142Y-110538571D01*
X161312857Y-110538571D01*
X161170000Y-110610000D01*
X161098571Y-110681428D01*
X163027142Y-111467142D02*
X162884285Y-111538571D01*
X162598571Y-111538571D01*
X162455714Y-111467142D01*
X162384285Y-111324285D01*
X162384285Y-110752857D01*
X162455714Y-110610000D01*
X162598571Y-110538571D01*
X162884285Y-110538571D01*
X163027142Y-110610000D01*
X163098571Y-110752857D01*
X163098571Y-110895714D01*
X162384285Y-111038571D01*
X163955714Y-111538571D02*
X163812857Y-111467142D01*
X163741428Y-111324285D01*
X163741428Y-110038571D01*
X164741428Y-111538571D02*
X164598571Y-111467142D01*
X164527142Y-111324285D01*
X164527142Y-110038571D01*
X165884285Y-111467142D02*
X165741428Y-111538571D01*
X165455714Y-111538571D01*
X165312857Y-111467142D01*
X165241428Y-111324285D01*
X165241428Y-110752857D01*
X165312857Y-110610000D01*
X165455714Y-110538571D01*
X165741428Y-110538571D01*
X165884285Y-110610000D01*
X165955714Y-110752857D01*
X165955714Y-110895714D01*
X165241428Y-111038571D01*
X166670000Y-111467142D02*
X166670000Y-111538571D01*
X166598571Y-111681428D01*
X166527142Y-111752857D01*
X168384285Y-111110000D02*
X169098571Y-111110000D01*
X168241428Y-111538571D02*
X168741428Y-110038571D01*
X169241428Y-111538571D01*
X169955714Y-111538571D02*
X169812857Y-111467142D01*
X169741428Y-111324285D01*
X169741428Y-110038571D01*
X171098571Y-111467142D02*
X170955714Y-111538571D01*
X170670000Y-111538571D01*
X170527142Y-111467142D01*
X170455714Y-111324285D01*
X170455714Y-110752857D01*
X170527142Y-110610000D01*
X170670000Y-110538571D01*
X170955714Y-110538571D01*
X171098571Y-110610000D01*
X171170000Y-110752857D01*
X171170000Y-110895714D01*
X170455714Y-111038571D01*
X171670000Y-111538571D02*
X172455714Y-110538571D01*
X171670000Y-110538571D02*
X172455714Y-111538571D01*
X174812857Y-111538571D02*
X174812857Y-110752857D01*
X174741428Y-110610000D01*
X174598571Y-110538571D01*
X174312857Y-110538571D01*
X174170000Y-110610000D01*
X174812857Y-111467142D02*
X174670000Y-111538571D01*
X174312857Y-111538571D01*
X174170000Y-111467142D01*
X174098571Y-111324285D01*
X174098571Y-111181428D01*
X174170000Y-111038571D01*
X174312857Y-110967142D01*
X174670000Y-110967142D01*
X174812857Y-110895714D01*
X175527142Y-110538571D02*
X175527142Y-111538571D01*
X175527142Y-110681428D02*
X175598571Y-110610000D01*
X175741428Y-110538571D01*
X175955714Y-110538571D01*
X176098571Y-110610000D01*
X176170000Y-110752857D01*
X176170000Y-111538571D01*
X177527142Y-111538571D02*
X177527142Y-110038571D01*
X177527142Y-111467142D02*
X177384285Y-111538571D01*
X177098571Y-111538571D01*
X176955714Y-111467142D01*
X176884285Y-111395714D01*
X176812857Y-111252857D01*
X176812857Y-110824285D01*
X176884285Y-110681428D01*
X176955714Y-110610000D01*
X177098571Y-110538571D01*
X177384285Y-110538571D01*
X177527142Y-110610000D01*
X179312857Y-111467142D02*
X179527142Y-111538571D01*
X179884285Y-111538571D01*
X180027142Y-111467142D01*
X180098571Y-111395714D01*
X180170000Y-111252857D01*
X180170000Y-111110000D01*
X180098571Y-110967142D01*
X180027142Y-110895714D01*
X179884285Y-110824285D01*
X179598571Y-110752857D01*
X179455714Y-110681428D01*
X179384285Y-110610000D01*
X179312857Y-110467142D01*
X179312857Y-110324285D01*
X179384285Y-110181428D01*
X179455714Y-110110000D01*
X179598571Y-110038571D01*
X179955714Y-110038571D01*
X180170000Y-110110000D01*
X181455714Y-111538571D02*
X181455714Y-110752857D01*
X181384285Y-110610000D01*
X181241428Y-110538571D01*
X180955714Y-110538571D01*
X180812857Y-110610000D01*
X181455714Y-111467142D02*
X181312857Y-111538571D01*
X180955714Y-111538571D01*
X180812857Y-111467142D01*
X180741428Y-111324285D01*
X180741428Y-111181428D01*
X180812857Y-111038571D01*
X180955714Y-110967142D01*
X181312857Y-110967142D01*
X181455714Y-110895714D01*
X182170000Y-111538571D02*
X182170000Y-110538571D01*
X182170000Y-110681428D02*
X182241428Y-110610000D01*
X182384285Y-110538571D01*
X182598571Y-110538571D01*
X182741428Y-110610000D01*
X182812857Y-110752857D01*
X182812857Y-111538571D01*
X182812857Y-110752857D02*
X182884285Y-110610000D01*
X183027142Y-110538571D01*
X183241428Y-110538571D01*
X183384285Y-110610000D01*
X183455714Y-110752857D01*
X183455714Y-111538571D01*
D12*
%TO.C,J1*%
X171322380Y-105073333D02*
X172036666Y-105073333D01*
X172179523Y-105120952D01*
X172274761Y-105216190D01*
X172322380Y-105359047D01*
X172322380Y-105454285D01*
X172322380Y-104073333D02*
X172322380Y-104644761D01*
X172322380Y-104359047D02*
X171322380Y-104359047D01*
X171465238Y-104454285D01*
X171560476Y-104549523D01*
X171608095Y-104644761D01*
%TO.C,JP1*%
X159712380Y-108593333D02*
X160426666Y-108593333D01*
X160569523Y-108640952D01*
X160664761Y-108736190D01*
X160712380Y-108879047D01*
X160712380Y-108974285D01*
X160712380Y-108117142D02*
X159712380Y-108117142D01*
X159712380Y-107736190D01*
X159760000Y-107640952D01*
X159807619Y-107593333D01*
X159902857Y-107545714D01*
X160045714Y-107545714D01*
X160140952Y-107593333D01*
X160188571Y-107640952D01*
X160236190Y-107736190D01*
X160236190Y-108117142D01*
X160712380Y-106593333D02*
X160712380Y-107164761D01*
X160712380Y-106879047D02*
X159712380Y-106879047D01*
X159855238Y-106974285D01*
X159950476Y-107069523D01*
X159998095Y-107164761D01*
%TO.C,D2*%
X154892380Y-106468095D02*
X153892380Y-106468095D01*
X153892380Y-106230000D01*
X153940000Y-106087142D01*
X154035238Y-105991904D01*
X154130476Y-105944285D01*
X154320952Y-105896666D01*
X154463809Y-105896666D01*
X154654285Y-105944285D01*
X154749523Y-105991904D01*
X154844761Y-106087142D01*
X154892380Y-106230000D01*
X154892380Y-106468095D01*
X153987619Y-105515714D02*
X153940000Y-105468095D01*
X153892380Y-105372857D01*
X153892380Y-105134761D01*
X153940000Y-105039523D01*
X153987619Y-104991904D01*
X154082857Y-104944285D01*
X154178095Y-104944285D01*
X154320952Y-104991904D01*
X154892380Y-105563333D01*
X154892380Y-104944285D01*
%TO.C,D3*%
X169451904Y-77422380D02*
X169451904Y-76422380D01*
X169690000Y-76422380D01*
X169832857Y-76470000D01*
X169928095Y-76565238D01*
X169975714Y-76660476D01*
X170023333Y-76850952D01*
X170023333Y-76993809D01*
X169975714Y-77184285D01*
X169928095Y-77279523D01*
X169832857Y-77374761D01*
X169690000Y-77422380D01*
X169451904Y-77422380D01*
X170356666Y-76422380D02*
X170975714Y-76422380D01*
X170642380Y-76803333D01*
X170785238Y-76803333D01*
X170880476Y-76850952D01*
X170928095Y-76898571D01*
X170975714Y-76993809D01*
X170975714Y-77231904D01*
X170928095Y-77327142D01*
X170880476Y-77374761D01*
X170785238Y-77422380D01*
X170499523Y-77422380D01*
X170404285Y-77374761D01*
X170356666Y-77327142D01*
%TO.C,R1*%
X163507380Y-94246666D02*
X163031190Y-94580000D01*
X163507380Y-94818095D02*
X162507380Y-94818095D01*
X162507380Y-94437142D01*
X162555000Y-94341904D01*
X162602619Y-94294285D01*
X162697857Y-94246666D01*
X162840714Y-94246666D01*
X162935952Y-94294285D01*
X162983571Y-94341904D01*
X163031190Y-94437142D01*
X163031190Y-94818095D01*
X163507380Y-93294285D02*
X163507380Y-93865714D01*
X163507380Y-93580000D02*
X162507380Y-93580000D01*
X162650238Y-93675238D01*
X162745476Y-93770476D01*
X162793095Y-93865714D01*
%TO.C,D1*%
X160352380Y-93478095D02*
X159352380Y-93478095D01*
X159352380Y-93240000D01*
X159400000Y-93097142D01*
X159495238Y-93001904D01*
X159590476Y-92954285D01*
X159780952Y-92906666D01*
X159923809Y-92906666D01*
X160114285Y-92954285D01*
X160209523Y-93001904D01*
X160304761Y-93097142D01*
X160352380Y-93240000D01*
X160352380Y-93478095D01*
X160352380Y-91954285D02*
X160352380Y-92525714D01*
X160352380Y-92240000D02*
X159352380Y-92240000D01*
X159495238Y-92335238D01*
X159590476Y-92430476D01*
X159638095Y-92525714D01*
%TO.C,U1*%
X167398095Y-99182380D02*
X167398095Y-99991904D01*
X167445714Y-100087142D01*
X167493333Y-100134761D01*
X167588571Y-100182380D01*
X167779047Y-100182380D01*
X167874285Y-100134761D01*
X167921904Y-100087142D01*
X167969523Y-99991904D01*
X167969523Y-99182380D01*
X168969523Y-100182380D02*
X168398095Y-100182380D01*
X168683809Y-100182380D02*
X168683809Y-99182380D01*
X168588571Y-99325238D01*
X168493333Y-99420476D01*
X168398095Y-99468095D01*
%TO.C,D4*%
X164621904Y-81442380D02*
X164621904Y-80442380D01*
X164860000Y-80442380D01*
X165002857Y-80490000D01*
X165098095Y-80585238D01*
X165145714Y-80680476D01*
X165193333Y-80870952D01*
X165193333Y-81013809D01*
X165145714Y-81204285D01*
X165098095Y-81299523D01*
X165002857Y-81394761D01*
X164860000Y-81442380D01*
X164621904Y-81442380D01*
X166050476Y-80775714D02*
X166050476Y-81442380D01*
X165812380Y-80394761D02*
X165574285Y-81109047D01*
X166193333Y-81109047D01*
D13*
%TO.C,J1*%
X168270000Y-104740000D02*
X170870000Y-104740000D01*
X163130000Y-102140000D02*
X163130000Y-107340000D01*
X170870000Y-107340000D02*
X163130000Y-107340000D01*
X170870000Y-102140000D02*
X170870000Y-103470000D01*
X168270000Y-102140000D02*
X163130000Y-102140000D01*
X168270000Y-102140000D02*
X168270000Y-104740000D01*
X169540000Y-102140000D02*
X170870000Y-102140000D01*
X170870000Y-104740000D02*
X170870000Y-107340000D01*
%TO.C,JP1*%
X161320000Y-103320000D02*
X161320000Y-106120000D01*
X161320000Y-106120000D02*
X159320000Y-106120000D01*
X159320000Y-106120000D02*
X159320000Y-103320000D01*
X159320000Y-103320000D02*
X161320000Y-103320000D01*
%TO.C,D2*%
X155650000Y-102570000D02*
X155650000Y-106470000D01*
X157650000Y-102570000D02*
X155650000Y-102570000D01*
X157650000Y-102570000D02*
X157650000Y-106470000D01*
%TO.C,D3*%
X167185000Y-74875000D02*
X164900000Y-74875000D01*
X164900000Y-76345000D02*
X167185000Y-76345000D01*
X167185000Y-76345000D02*
X167185000Y-74875000D01*
%TO.C,R1*%
X163962500Y-94317258D02*
X163962500Y-93842742D01*
X165007500Y-94317258D02*
X165007500Y-93842742D01*
%TO.C,D1*%
X157200000Y-91240000D02*
X157200000Y-93790000D01*
X158900000Y-91240000D02*
X157200000Y-91240000D01*
X158900000Y-91240000D02*
X158900000Y-93790000D01*
%TO.C,U1*%
X164742500Y-98310000D02*
X163942500Y-98310000D01*
X164742500Y-101430000D02*
X163942500Y-101430000D01*
X164742500Y-101430000D02*
X166542500Y-101430000D01*
X164742500Y-98310000D02*
X165542500Y-98310000D01*
%TO.C,D4*%
X168390000Y-76980000D02*
X168390000Y-78310000D01*
X163190000Y-76980000D02*
X163190000Y-79640000D01*
X165790000Y-79640000D02*
X163190000Y-79640000D01*
X165790000Y-76980000D02*
X163190000Y-76980000D01*
X167060000Y-76980000D02*
X168390000Y-76980000D01*
X165790000Y-76980000D02*
X165790000Y-79640000D01*
%TD*%
M02*
