%TF.GenerationSoftware,KiCad,Pcbnew,(6.0.1)*%
%TF.CreationDate,2023-04-16T16:50:23+10:00*%
%TF.ProjectId,blinker,626c696e-6b65-4722-9e6b-696361645f70,rev?*%
%TF.SameCoordinates,Original*%
%TF.FileFunction,Legend,Bot*%
%TF.FilePolarity,Positive*%
%FSLAX46Y46*%
G04 Gerber Fmt 4.6, Leading zero omitted, Abs format (unit mm)*
G04 Created by KiCad (PCBNEW (6.0.1)) date 2023-04-16 16:50:23*
%MOMM*%
%LPD*%
G01*
G04 APERTURE LIST*
%ADD10C,0.150000*%
%ADD11C,0.120000*%
G04 APERTURE END LIST*
D10*
%TO.C,C1*%
X168756666Y-117187142D02*
X168804285Y-117234761D01*
X168947142Y-117282380D01*
X169042380Y-117282380D01*
X169185238Y-117234761D01*
X169280476Y-117139523D01*
X169328095Y-117044285D01*
X169375714Y-116853809D01*
X169375714Y-116710952D01*
X169328095Y-116520476D01*
X169280476Y-116425238D01*
X169185238Y-116330000D01*
X169042380Y-116282380D01*
X168947142Y-116282380D01*
X168804285Y-116330000D01*
X168756666Y-116377619D01*
X167804285Y-117282380D02*
X168375714Y-117282380D01*
X168090000Y-117282380D02*
X168090000Y-116282380D01*
X168185238Y-116425238D01*
X168280476Y-116520476D01*
X168375714Y-116568095D01*
%TO.C,C2*%
X165536666Y-116997142D02*
X165584285Y-117044761D01*
X165727142Y-117092380D01*
X165822380Y-117092380D01*
X165965238Y-117044761D01*
X166060476Y-116949523D01*
X166108095Y-116854285D01*
X166155714Y-116663809D01*
X166155714Y-116520952D01*
X166108095Y-116330476D01*
X166060476Y-116235238D01*
X165965238Y-116140000D01*
X165822380Y-116092380D01*
X165727142Y-116092380D01*
X165584285Y-116140000D01*
X165536666Y-116187619D01*
X165155714Y-116187619D02*
X165108095Y-116140000D01*
X165012857Y-116092380D01*
X164774761Y-116092380D01*
X164679523Y-116140000D01*
X164631904Y-116187619D01*
X164584285Y-116282857D01*
X164584285Y-116378095D01*
X164631904Y-116520952D01*
X165203333Y-117092380D01*
X164584285Y-117092380D01*
D11*
%TO.C,C1*%
X179218246Y-115250000D02*
X179218246Y-109575000D01*
X178898246Y-115250000D02*
X178898246Y-109412000D01*
X181138246Y-122374000D02*
X181138246Y-111006000D01*
X176218246Y-124727000D02*
X176218246Y-108653000D01*
X182538246Y-120480000D02*
X182538246Y-112900000D01*
X176138246Y-124735000D02*
X176138246Y-108645000D01*
X177858246Y-115250000D02*
X177858246Y-108997000D01*
X178098246Y-115250000D02*
X178098246Y-109079000D01*
X180898246Y-122606000D02*
X180898246Y-110774000D01*
X179978246Y-115250000D02*
X179978246Y-110038000D01*
X181578246Y-121894000D02*
X181578246Y-111486000D01*
X181218246Y-122292000D02*
X181218246Y-111088000D01*
X179098246Y-123868000D02*
X179098246Y-118130000D01*
X181338246Y-122165000D02*
X181338246Y-111215000D01*
X181298246Y-122208000D02*
X181298246Y-111172000D01*
X175577246Y-124768000D02*
X175577246Y-108612000D01*
X177938246Y-124356000D02*
X177938246Y-118130000D01*
X178498246Y-124147000D02*
X178498246Y-118130000D01*
X181858246Y-121544000D02*
X181858246Y-111836000D01*
X177458246Y-124500000D02*
X177458246Y-108880000D01*
X182058246Y-121267000D02*
X182058246Y-112113000D01*
X179418246Y-115250000D02*
X179418246Y-109686000D01*
X178778246Y-124024000D02*
X178778246Y-118130000D01*
X179298246Y-115250000D02*
X179298246Y-109618000D01*
X178978246Y-123929000D02*
X178978246Y-118130000D01*
X176978246Y-124611000D02*
X176978246Y-108769000D01*
X183218246Y-118764000D02*
X183218246Y-114616000D01*
X183338246Y-118254000D02*
X183338246Y-115126000D01*
X180778246Y-122715000D02*
X180778246Y-110665000D01*
X176338246Y-124714000D02*
X176338246Y-108666000D01*
X177898246Y-115250000D02*
X177898246Y-109010000D01*
X180498246Y-122953000D02*
X180498246Y-118130000D01*
X180178246Y-115250000D02*
X180178246Y-110180000D01*
X177218246Y-124559000D02*
X177218246Y-108821000D01*
X180178246Y-123200000D02*
X180178246Y-118130000D01*
X182498246Y-120554000D02*
X182498246Y-112826000D01*
X181538246Y-121941000D02*
X181538246Y-111439000D01*
X178178246Y-124272000D02*
X178178246Y-118130000D01*
X175497246Y-124770000D02*
X175497246Y-108610000D01*
X179338246Y-115250000D02*
X179338246Y-109641000D01*
X177778246Y-124408000D02*
X177778246Y-118130000D01*
X178338246Y-115250000D02*
X178338246Y-109168000D01*
X183138246Y-119041000D02*
X183138246Y-114339000D01*
X180418246Y-123017000D02*
X180418246Y-118130000D01*
X179778246Y-123475000D02*
X179778246Y-118130000D01*
X180298246Y-115250000D02*
X180298246Y-110270000D01*
X177938246Y-115250000D02*
X177938246Y-109024000D01*
X179818246Y-123449000D02*
X179818246Y-118130000D01*
X182298246Y-120899000D02*
X182298246Y-112481000D01*
X179818246Y-115250000D02*
X179818246Y-109931000D01*
X179738246Y-115250000D02*
X179738246Y-109879000D01*
X182818246Y-119903000D02*
X182818246Y-113477000D01*
X180258246Y-115250000D02*
X180258246Y-110240000D01*
X178418246Y-115250000D02*
X178418246Y-109200000D01*
X179138246Y-115250000D02*
X179138246Y-109533000D01*
X175897246Y-124754000D02*
X175897246Y-108626000D01*
X182898246Y-119714000D02*
X182898246Y-113666000D01*
X179538246Y-123624000D02*
X179538246Y-118130000D01*
X178298246Y-115250000D02*
X178298246Y-109153000D01*
X177058246Y-124595000D02*
X177058246Y-108785000D01*
X181738246Y-121699000D02*
X181738246Y-111681000D01*
X182978246Y-119510000D02*
X182978246Y-113870000D01*
X175737246Y-124763000D02*
X175737246Y-108617000D01*
X179418246Y-123694000D02*
X179418246Y-118130000D01*
X182578246Y-120405000D02*
X182578246Y-112975000D01*
X179138246Y-123847000D02*
X179138246Y-118130000D01*
X179258246Y-123784000D02*
X179258246Y-118130000D01*
X180938246Y-122568000D02*
X180938246Y-110812000D01*
X179698246Y-123526000D02*
X179698246Y-118130000D01*
X180138246Y-115250000D02*
X180138246Y-110151000D01*
X178458246Y-124164000D02*
X178458246Y-118130000D01*
X182658246Y-120247000D02*
X182658246Y-113133000D01*
X182458246Y-120626000D02*
X182458246Y-112754000D01*
X176098246Y-124739000D02*
X176098246Y-108641000D01*
X178178246Y-115250000D02*
X178178246Y-109108000D01*
X178618246Y-124096000D02*
X178618246Y-118130000D01*
X178058246Y-124315000D02*
X178058246Y-118130000D01*
X178978246Y-115250000D02*
X178978246Y-109451000D01*
X178778246Y-115250000D02*
X178778246Y-109356000D01*
X177178246Y-124568000D02*
X177178246Y-108812000D01*
X176778246Y-124649000D02*
X176778246Y-108731000D01*
X175617246Y-124767000D02*
X175617246Y-108613000D01*
X176378246Y-124709000D02*
X176378246Y-108671000D01*
X181458246Y-122033000D02*
X181458246Y-111347000D01*
X175377246Y-124771000D02*
X175377246Y-108609000D01*
X181618246Y-121846000D02*
X181618246Y-111534000D01*
X181938246Y-121436000D02*
X181938246Y-111944000D01*
X181378246Y-122122000D02*
X181378246Y-111258000D01*
X176458246Y-124698000D02*
X176458246Y-108682000D01*
X181978246Y-121381000D02*
X181978246Y-111999000D01*
X179018246Y-123909000D02*
X179018246Y-118130000D01*
X175857246Y-124756000D02*
X175857246Y-108624000D01*
X183098246Y-119168000D02*
X183098246Y-114212000D01*
X179898246Y-123396000D02*
X179898246Y-118130000D01*
X175777246Y-124761000D02*
X175777246Y-108619000D01*
X179218246Y-123805000D02*
X179218246Y-118130000D01*
X181898246Y-121490000D02*
X181898246Y-111890000D01*
X179938246Y-115250000D02*
X179938246Y-110011000D01*
X178578246Y-124113000D02*
X178578246Y-118130000D01*
X180858246Y-122642000D02*
X180858246Y-110738000D01*
X180538246Y-115250000D02*
X180538246Y-110460000D01*
X182738246Y-120080000D02*
X182738246Y-113300000D01*
X178098246Y-124301000D02*
X178098246Y-118130000D01*
X167487755Y-122045000D02*
X167487755Y-120445000D01*
X176178246Y-124731000D02*
X176178246Y-108649000D01*
X179858246Y-123423000D02*
X179858246Y-118130000D01*
X181058246Y-122453000D02*
X181058246Y-110927000D01*
X176618246Y-124675000D02*
X176618246Y-108705000D01*
X176818246Y-124642000D02*
X176818246Y-108738000D01*
X176057246Y-124742000D02*
X176057246Y-108638000D01*
X176858246Y-124634000D02*
X176858246Y-108746000D01*
X177898246Y-124370000D02*
X177898246Y-118130000D01*
X175457246Y-124770000D02*
X175457246Y-108610000D01*
X178138246Y-115250000D02*
X178138246Y-109093000D01*
X176738246Y-124656000D02*
X176738246Y-108724000D01*
X176538246Y-124687000D02*
X176538246Y-108693000D01*
X179298246Y-123762000D02*
X179298246Y-118130000D01*
X181698246Y-121749000D02*
X181698246Y-111631000D01*
X179578246Y-115250000D02*
X179578246Y-109780000D01*
X183378246Y-118041000D02*
X183378246Y-115339000D01*
X177698246Y-124432000D02*
X177698246Y-118130000D01*
X178818246Y-124006000D02*
X178818246Y-118130000D01*
X180978246Y-122530000D02*
X180978246Y-110850000D01*
X181018246Y-122492000D02*
X181018246Y-110888000D01*
X181258246Y-122250000D02*
X181258246Y-111130000D01*
X176938246Y-124619000D02*
X176938246Y-108761000D01*
X175657246Y-124766000D02*
X175657246Y-108614000D01*
X179738246Y-123501000D02*
X179738246Y-118130000D01*
X183058246Y-119287000D02*
X183058246Y-114093000D01*
X177578246Y-124467000D02*
X177578246Y-108913000D01*
X180458246Y-122985000D02*
X180458246Y-118130000D01*
X182218246Y-121026000D02*
X182218246Y-112354000D01*
X178858246Y-123987000D02*
X178858246Y-118130000D01*
X179458246Y-123671000D02*
X179458246Y-118130000D01*
X180338246Y-123080000D02*
X180338246Y-118130000D01*
X180298246Y-123110000D02*
X180298246Y-118130000D01*
X178578246Y-115250000D02*
X178578246Y-109267000D01*
X177298246Y-124540000D02*
X177298246Y-108840000D01*
X179058246Y-123889000D02*
X179058246Y-118130000D01*
X178618246Y-115250000D02*
X178618246Y-109284000D01*
X178378246Y-124196000D02*
X178378246Y-118130000D01*
X175417246Y-124770000D02*
X175417246Y-108610000D01*
X180538246Y-122920000D02*
X180538246Y-118130000D01*
X180218246Y-123170000D02*
X180218246Y-118130000D01*
X182858246Y-119810000D02*
X182858246Y-113570000D01*
X180738246Y-122750000D02*
X180738246Y-110630000D01*
X176658246Y-124669000D02*
X176658246Y-108711000D01*
X179698246Y-115250000D02*
X179698246Y-109854000D01*
X178258246Y-124243000D02*
X178258246Y-118130000D01*
X181658246Y-121798000D02*
X181658246Y-111582000D01*
X179538246Y-115250000D02*
X179538246Y-109756000D01*
X177858246Y-124383000D02*
X177858246Y-118130000D01*
X177258246Y-124550000D02*
X177258246Y-108830000D01*
X182018246Y-121324000D02*
X182018246Y-112056000D01*
X181178246Y-122333000D02*
X181178246Y-111047000D01*
X176017246Y-124745000D02*
X176017246Y-108635000D01*
X180338246Y-115250000D02*
X180338246Y-110300000D01*
X179498246Y-115250000D02*
X179498246Y-109732000D01*
X180098246Y-115250000D02*
X180098246Y-110122000D01*
X177618246Y-124455000D02*
X177618246Y-108925000D01*
X180658246Y-122819000D02*
X180658246Y-110561000D01*
X177098246Y-124586000D02*
X177098246Y-108794000D01*
X178738246Y-124043000D02*
X178738246Y-118130000D01*
X181498246Y-121987000D02*
X181498246Y-111393000D01*
X182938246Y-119614000D02*
X182938246Y-113766000D01*
X178738246Y-115250000D02*
X178738246Y-109337000D01*
X177338246Y-124530000D02*
X177338246Y-108850000D01*
X181778246Y-121648000D02*
X181778246Y-111732000D01*
X182418246Y-120697000D02*
X182418246Y-112683000D01*
X178898246Y-123968000D02*
X178898246Y-118130000D01*
X180818246Y-122679000D02*
X180818246Y-110701000D01*
X178818246Y-115250000D02*
X178818246Y-109374000D01*
X178658246Y-115250000D02*
X178658246Y-109301000D01*
X180258246Y-123140000D02*
X180258246Y-118130000D01*
X176498246Y-124693000D02*
X176498246Y-108687000D01*
X180498246Y-115250000D02*
X180498246Y-110427000D01*
X178698246Y-124061000D02*
X178698246Y-118130000D01*
X175697246Y-124764000D02*
X175697246Y-108616000D01*
X178258246Y-115250000D02*
X178258246Y-109137000D01*
X178458246Y-115250000D02*
X178458246Y-109216000D01*
X178018246Y-115250000D02*
X178018246Y-109051000D01*
X175937246Y-124751000D02*
X175937246Y-108629000D01*
X181418246Y-122078000D02*
X181418246Y-111302000D01*
X179898246Y-115250000D02*
X179898246Y-109984000D01*
X178538246Y-115250000D02*
X178538246Y-109250000D01*
X182178246Y-121088000D02*
X182178246Y-112292000D01*
X179378246Y-123717000D02*
X179378246Y-118130000D01*
X177978246Y-124343000D02*
X177978246Y-118130000D01*
X182698246Y-120165000D02*
X182698246Y-113215000D01*
X178538246Y-124130000D02*
X178538246Y-118130000D01*
X177498246Y-124489000D02*
X177498246Y-108891000D01*
X177378246Y-124520000D02*
X177378246Y-108860000D01*
X180698246Y-122785000D02*
X180698246Y-110595000D01*
X179498246Y-123648000D02*
X179498246Y-118130000D01*
X179458246Y-115250000D02*
X179458246Y-109709000D01*
X179058246Y-115250000D02*
X179058246Y-109491000D01*
X179098246Y-115250000D02*
X179098246Y-109512000D01*
X175537246Y-124769000D02*
X175537246Y-108611000D01*
X179618246Y-115250000D02*
X179618246Y-109804000D01*
X179858246Y-115250000D02*
X179858246Y-109957000D01*
X180018246Y-123314000D02*
X180018246Y-118130000D01*
X176898246Y-124627000D02*
X176898246Y-108753000D01*
X176258246Y-124723000D02*
X176258246Y-108657000D01*
X179018246Y-115250000D02*
X179018246Y-109471000D01*
X180618246Y-122853000D02*
X180618246Y-110527000D01*
X182778246Y-119993000D02*
X182778246Y-113387000D01*
X183458246Y-117455000D02*
X183458246Y-115925000D01*
X181818246Y-121596000D02*
X181818246Y-111784000D01*
X180578246Y-122887000D02*
X180578246Y-110493000D01*
X179258246Y-115250000D02*
X179258246Y-109596000D01*
X177538246Y-124478000D02*
X177538246Y-108902000D01*
X179658246Y-123551000D02*
X179658246Y-118130000D01*
X178218246Y-115250000D02*
X178218246Y-109122000D01*
X182258246Y-120963000D02*
X182258246Y-112417000D01*
X180378246Y-123048000D02*
X180378246Y-118130000D01*
X180378246Y-115250000D02*
X180378246Y-110332000D01*
X178058246Y-115250000D02*
X178058246Y-109065000D01*
X180058246Y-123286000D02*
X180058246Y-118130000D01*
X182338246Y-120833000D02*
X182338246Y-112547000D01*
X180098246Y-123258000D02*
X180098246Y-118130000D01*
X180458246Y-115250000D02*
X180458246Y-110395000D01*
X175817246Y-124759000D02*
X175817246Y-108621000D01*
X177138246Y-124577000D02*
X177138246Y-108803000D01*
X178338246Y-124212000D02*
X178338246Y-118130000D01*
X179338246Y-123739000D02*
X179338246Y-118130000D01*
X179178246Y-123826000D02*
X179178246Y-118130000D01*
X182618246Y-120327000D02*
X182618246Y-113053000D01*
X183178246Y-118908000D02*
X183178246Y-114472000D01*
X178498246Y-115250000D02*
X178498246Y-109233000D01*
X179378246Y-115250000D02*
X179378246Y-109663000D01*
X183418246Y-117788000D02*
X183418246Y-115592000D01*
X176298246Y-124718000D02*
X176298246Y-108662000D01*
X179658246Y-115250000D02*
X179658246Y-109829000D01*
X176578246Y-124681000D02*
X176578246Y-108699000D01*
X175977246Y-124748000D02*
X175977246Y-108632000D01*
X177778246Y-115250000D02*
X177778246Y-108972000D01*
X180058246Y-115250000D02*
X180058246Y-110094000D01*
X178218246Y-124258000D02*
X178218246Y-118130000D01*
X178698246Y-115250000D02*
X178698246Y-109319000D01*
X177418246Y-124510000D02*
X177418246Y-108870000D01*
X177818246Y-115250000D02*
X177818246Y-108985000D01*
X183018246Y-119401000D02*
X183018246Y-113979000D01*
X179938246Y-123369000D02*
X179938246Y-118130000D01*
X177658246Y-124444000D02*
X177658246Y-108936000D01*
X182378246Y-120766000D02*
X182378246Y-112614000D01*
X177738246Y-124420000D02*
X177738246Y-118130000D01*
X179578246Y-123600000D02*
X179578246Y-118130000D01*
X179778246Y-115250000D02*
X179778246Y-109905000D01*
X183298246Y-118442000D02*
X183298246Y-114938000D01*
X176698246Y-124662000D02*
X176698246Y-108718000D01*
X177698246Y-115250000D02*
X177698246Y-108948000D01*
X182138246Y-121149000D02*
X182138246Y-112231000D01*
X179618246Y-123576000D02*
X179618246Y-118130000D01*
X177818246Y-124395000D02*
X177818246Y-118130000D01*
X178378246Y-115250000D02*
X178378246Y-109184000D01*
X178138246Y-124287000D02*
X178138246Y-118130000D01*
X178298246Y-124227000D02*
X178298246Y-118130000D01*
X178658246Y-124079000D02*
X178658246Y-118130000D01*
X179178246Y-115250000D02*
X179178246Y-109554000D01*
X178018246Y-124329000D02*
X178018246Y-118130000D01*
X178858246Y-115250000D02*
X178858246Y-109393000D01*
X181098246Y-122414000D02*
X181098246Y-110966000D01*
X177018246Y-124603000D02*
X177018246Y-108777000D01*
X180138246Y-123229000D02*
X180138246Y-118130000D01*
X176418246Y-124704000D02*
X176418246Y-108676000D01*
X177738246Y-115250000D02*
X177738246Y-108960000D01*
X180018246Y-115250000D02*
X180018246Y-110066000D01*
X179978246Y-123342000D02*
X179978246Y-118130000D01*
X180218246Y-115250000D02*
X180218246Y-110210000D01*
X183258246Y-118610000D02*
X183258246Y-114770000D01*
X177978246Y-115250000D02*
X177978246Y-109037000D01*
X180418246Y-115250000D02*
X180418246Y-110363000D01*
X178938246Y-123948000D02*
X178938246Y-118130000D01*
X178938246Y-115250000D02*
X178938246Y-109432000D01*
X166687755Y-121245000D02*
X168287755Y-121245000D01*
X182098246Y-121209000D02*
X182098246Y-112171000D01*
X178418246Y-124180000D02*
X178418246Y-118130000D01*
X183497246Y-116690000D02*
G75*
G03*
X183497246Y-116690000I-8120000J0D01*
G01*
%TO.C,C2*%
X152531755Y-111302000D02*
X152531755Y-122078000D01*
X166462246Y-111335000D02*
X166462246Y-112935000D01*
X151331755Y-113053000D02*
X151331755Y-120327000D01*
X156491755Y-108880000D02*
X156491755Y-124500000D01*
X155011755Y-118130000D02*
X155011755Y-123948000D01*
X155131755Y-109374000D02*
X155131755Y-115250000D01*
X153931755Y-110066000D02*
X153931755Y-115250000D01*
X153971755Y-118130000D02*
X153971755Y-123342000D01*
X158212755Y-108617000D02*
X158212755Y-124763000D01*
X154291755Y-109829000D02*
X154291755Y-115250000D01*
X153891755Y-118130000D02*
X153891755Y-123286000D01*
X156851755Y-108794000D02*
X156851755Y-124586000D01*
X157211755Y-108724000D02*
X157211755Y-124656000D01*
X155971755Y-109037000D02*
X155971755Y-115250000D01*
X158332755Y-108613000D02*
X158332755Y-124767000D01*
X150531755Y-115592000D02*
X150531755Y-117788000D01*
X150691755Y-114770000D02*
X150691755Y-118610000D01*
X157291755Y-108711000D02*
X157291755Y-124669000D01*
X154451755Y-109732000D02*
X154451755Y-115250000D01*
X153171755Y-110665000D02*
X153171755Y-122715000D01*
X153651755Y-118130000D02*
X153651755Y-123110000D01*
X157851755Y-108641000D02*
X157851755Y-124739000D01*
X153851755Y-110122000D02*
X153851755Y-115250000D01*
X155771755Y-118130000D02*
X155771755Y-124272000D01*
X156011755Y-118130000D02*
X156011755Y-124356000D01*
X154651755Y-109618000D02*
X154651755Y-115250000D01*
X151011755Y-113766000D02*
X151011755Y-119614000D01*
X150731755Y-114616000D02*
X150731755Y-118764000D01*
X151531755Y-112683000D02*
X151531755Y-120697000D01*
X153451755Y-118130000D02*
X153451755Y-122953000D01*
X155331755Y-118130000D02*
X155331755Y-124096000D01*
X154491755Y-118130000D02*
X154491755Y-123671000D01*
X154211755Y-118130000D02*
X154211755Y-123501000D01*
X154611755Y-118130000D02*
X154611755Y-123739000D01*
X156131755Y-118130000D02*
X156131755Y-124395000D01*
X156811755Y-108803000D02*
X156811755Y-124577000D01*
X155251755Y-109319000D02*
X155251755Y-115250000D01*
X156531755Y-108870000D02*
X156531755Y-124510000D01*
X158012755Y-108629000D02*
X158012755Y-124751000D01*
X151971755Y-111999000D02*
X151971755Y-121381000D01*
X153531755Y-118130000D02*
X153531755Y-123017000D01*
X154171755Y-109905000D02*
X154171755Y-115250000D01*
X155811755Y-118130000D02*
X155811755Y-124287000D01*
X155571755Y-118130000D02*
X155571755Y-124196000D01*
X155531755Y-109200000D02*
X155531755Y-115250000D01*
X154931755Y-118130000D02*
X154931755Y-123909000D01*
X155571755Y-109184000D02*
X155571755Y-115250000D01*
X151371755Y-112975000D02*
X151371755Y-120405000D01*
X150811755Y-114339000D02*
X150811755Y-119041000D01*
X150891755Y-114093000D02*
X150891755Y-119287000D01*
X151611755Y-112547000D02*
X151611755Y-120833000D01*
X156091755Y-118130000D02*
X156091755Y-124383000D01*
X153331755Y-110527000D02*
X153331755Y-122853000D01*
X156051755Y-118130000D02*
X156051755Y-124370000D01*
X153611755Y-118130000D02*
X153611755Y-123080000D01*
X157892755Y-108638000D02*
X157892755Y-124742000D01*
X154611755Y-109641000D02*
X154611755Y-115250000D01*
X153411755Y-118130000D02*
X153411755Y-122920000D01*
X154931755Y-109471000D02*
X154931755Y-115250000D01*
X154211755Y-109879000D02*
X154211755Y-115250000D01*
X151451755Y-112826000D02*
X151451755Y-120554000D01*
X156411755Y-108902000D02*
X156411755Y-124478000D01*
X153411755Y-110460000D02*
X153411755Y-115250000D01*
X157051755Y-108753000D02*
X157051755Y-124627000D01*
X150571755Y-115339000D02*
X150571755Y-118041000D01*
X150851755Y-114212000D02*
X150851755Y-119168000D01*
X156251755Y-108948000D02*
X156251755Y-115250000D01*
X157531755Y-108676000D02*
X157531755Y-124704000D01*
X151891755Y-112113000D02*
X151891755Y-121267000D01*
X157771755Y-108649000D02*
X157771755Y-124731000D01*
X154731755Y-109575000D02*
X154731755Y-115250000D01*
X155491755Y-109216000D02*
X155491755Y-115250000D01*
X158532755Y-108610000D02*
X158532755Y-124770000D01*
X155451755Y-118130000D02*
X155451755Y-124147000D01*
X155771755Y-109108000D02*
X155771755Y-115250000D01*
X151731755Y-112354000D02*
X151731755Y-121026000D01*
X150611755Y-115126000D02*
X150611755Y-118254000D01*
X156731755Y-108821000D02*
X156731755Y-124559000D01*
X154371755Y-118130000D02*
X154371755Y-123600000D01*
X151091755Y-113570000D02*
X151091755Y-119810000D01*
X152371755Y-111486000D02*
X152371755Y-121894000D01*
X152171755Y-111732000D02*
X152171755Y-121648000D01*
X151651755Y-112481000D02*
X151651755Y-120899000D01*
X158412755Y-108611000D02*
X158412755Y-124769000D01*
X157411755Y-108693000D02*
X157411755Y-124687000D01*
X157491755Y-108682000D02*
X157491755Y-124698000D01*
X154411755Y-109756000D02*
X154411755Y-115250000D01*
X154491755Y-109709000D02*
X154491755Y-115250000D01*
X152291755Y-111582000D02*
X152291755Y-121798000D01*
X154251755Y-118130000D02*
X154251755Y-123526000D01*
X154011755Y-118130000D02*
X154011755Y-123369000D01*
X156891755Y-108785000D02*
X156891755Y-124595000D01*
X154971755Y-118130000D02*
X154971755Y-123929000D01*
X154051755Y-118130000D02*
X154051755Y-123396000D01*
X151171755Y-113387000D02*
X151171755Y-119993000D01*
X153771755Y-110180000D02*
X153771755Y-115250000D01*
X153811755Y-118130000D02*
X153811755Y-123229000D01*
X155891755Y-109065000D02*
X155891755Y-115250000D01*
X152491755Y-111347000D02*
X152491755Y-122033000D01*
X152771755Y-111047000D02*
X152771755Y-122333000D01*
X152331755Y-111534000D02*
X152331755Y-121846000D01*
X156931755Y-108777000D02*
X156931755Y-124603000D01*
X153851755Y-118130000D02*
X153851755Y-123258000D01*
X154291755Y-118130000D02*
X154291755Y-123551000D01*
X152851755Y-110966000D02*
X152851755Y-122414000D01*
X154651755Y-118130000D02*
X154651755Y-123762000D01*
X154531755Y-118130000D02*
X154531755Y-123694000D01*
X153491755Y-118130000D02*
X153491755Y-122985000D01*
X154371755Y-109780000D02*
X154371755Y-115250000D01*
X156611755Y-108850000D02*
X156611755Y-124530000D01*
X156451755Y-108891000D02*
X156451755Y-124489000D01*
X151131755Y-113477000D02*
X151131755Y-119903000D01*
X157011755Y-108761000D02*
X157011755Y-124619000D01*
X152451755Y-111393000D02*
X152451755Y-121987000D01*
X158572755Y-108609000D02*
X158572755Y-124771000D01*
X167262246Y-112135000D02*
X165662246Y-112135000D01*
X151571755Y-112614000D02*
X151571755Y-120766000D01*
X153691755Y-110240000D02*
X153691755Y-115250000D01*
X155291755Y-118130000D02*
X155291755Y-124079000D01*
X155171755Y-118130000D02*
X155171755Y-124024000D01*
X158052755Y-108626000D02*
X158052755Y-124754000D01*
X153571755Y-118130000D02*
X153571755Y-123048000D01*
X156331755Y-108925000D02*
X156331755Y-124455000D01*
X153531755Y-110363000D02*
X153531755Y-115250000D01*
X157811755Y-108645000D02*
X157811755Y-124735000D01*
X154571755Y-118130000D02*
X154571755Y-123717000D01*
X152051755Y-111890000D02*
X152051755Y-121490000D01*
X152571755Y-111258000D02*
X152571755Y-122122000D01*
X156091755Y-108997000D02*
X156091755Y-115250000D01*
X156691755Y-108830000D02*
X156691755Y-124550000D01*
X157571755Y-108671000D02*
X157571755Y-124709000D01*
X151251755Y-113215000D02*
X151251755Y-120165000D01*
X152651755Y-111172000D02*
X152651755Y-122208000D01*
X155331755Y-109284000D02*
X155331755Y-115250000D01*
X153691755Y-118130000D02*
X153691755Y-123140000D01*
X152731755Y-111088000D02*
X152731755Y-122292000D01*
X157331755Y-108705000D02*
X157331755Y-124675000D01*
X154971755Y-109451000D02*
X154971755Y-115250000D01*
X155731755Y-109122000D02*
X155731755Y-115250000D01*
X155211755Y-118130000D02*
X155211755Y-124043000D01*
X155411755Y-118130000D02*
X155411755Y-124130000D01*
X154771755Y-109554000D02*
X154771755Y-115250000D01*
X155731755Y-118130000D02*
X155731755Y-124258000D01*
X155931755Y-109051000D02*
X155931755Y-115250000D01*
X154891755Y-118130000D02*
X154891755Y-123889000D01*
X155611755Y-118130000D02*
X155611755Y-124212000D01*
X155451755Y-109233000D02*
X155451755Y-115250000D01*
X153251755Y-110595000D02*
X153251755Y-122785000D01*
X158132755Y-108621000D02*
X158132755Y-124759000D01*
X157131755Y-108738000D02*
X157131755Y-124642000D01*
X150491755Y-115925000D02*
X150491755Y-117455000D01*
X153491755Y-110395000D02*
X153491755Y-115250000D01*
X158292755Y-108614000D02*
X158292755Y-124766000D01*
X153571755Y-110332000D02*
X153571755Y-115250000D01*
X152691755Y-111130000D02*
X152691755Y-122250000D01*
X153971755Y-110038000D02*
X153971755Y-115250000D01*
X153371755Y-110493000D02*
X153371755Y-122887000D01*
X157731755Y-108653000D02*
X157731755Y-124727000D01*
X151051755Y-113666000D02*
X151051755Y-119714000D01*
X158372755Y-108612000D02*
X158372755Y-124768000D01*
X158252755Y-108616000D02*
X158252755Y-124764000D01*
X157451755Y-108687000D02*
X157451755Y-124693000D01*
X158092755Y-108624000D02*
X158092755Y-124756000D01*
X155691755Y-109137000D02*
X155691755Y-115250000D01*
X154011755Y-110011000D02*
X154011755Y-115250000D01*
X150931755Y-113979000D02*
X150931755Y-119401000D01*
X153611755Y-110300000D02*
X153611755Y-115250000D01*
X156771755Y-108812000D02*
X156771755Y-124568000D01*
X154811755Y-118130000D02*
X154811755Y-123847000D01*
X155851755Y-109079000D02*
X155851755Y-115250000D01*
X153731755Y-110210000D02*
X153731755Y-115250000D01*
X155171755Y-109356000D02*
X155171755Y-115250000D01*
X156171755Y-108972000D02*
X156171755Y-115250000D01*
X151211755Y-113300000D02*
X151211755Y-120080000D01*
X153131755Y-110701000D02*
X153131755Y-122679000D01*
X154531755Y-109686000D02*
X154531755Y-115250000D01*
X155251755Y-118130000D02*
X155251755Y-124061000D01*
X151771755Y-112292000D02*
X151771755Y-121088000D01*
X153451755Y-110427000D02*
X153451755Y-115250000D01*
X154451755Y-118130000D02*
X154451755Y-123648000D01*
X155291755Y-109301000D02*
X155291755Y-115250000D01*
X156011755Y-109024000D02*
X156011755Y-115250000D01*
X155531755Y-118130000D02*
X155531755Y-124180000D01*
X153771755Y-118130000D02*
X153771755Y-123200000D01*
X154571755Y-109663000D02*
X154571755Y-115250000D01*
X155611755Y-109168000D02*
X155611755Y-115250000D01*
X156291755Y-108936000D02*
X156291755Y-124444000D01*
X153731755Y-118130000D02*
X153731755Y-123170000D01*
X152891755Y-110927000D02*
X152891755Y-122453000D01*
X154891755Y-109491000D02*
X154891755Y-115250000D01*
X155371755Y-118130000D02*
X155371755Y-124113000D01*
X155891755Y-118130000D02*
X155891755Y-124315000D01*
X155131755Y-118130000D02*
X155131755Y-124006000D01*
X152971755Y-110850000D02*
X152971755Y-122530000D01*
X154131755Y-109931000D02*
X154131755Y-115250000D01*
X154331755Y-118130000D02*
X154331755Y-123576000D01*
X157251755Y-108718000D02*
X157251755Y-124662000D01*
X158172755Y-108619000D02*
X158172755Y-124761000D01*
X155811755Y-109093000D02*
X155811755Y-115250000D01*
X157171755Y-108731000D02*
X157171755Y-124649000D01*
X155211755Y-109337000D02*
X155211755Y-115250000D01*
X156131755Y-108985000D02*
X156131755Y-115250000D01*
X151851755Y-112171000D02*
X151851755Y-121209000D01*
X157611755Y-108666000D02*
X157611755Y-124714000D01*
X154811755Y-109533000D02*
X154811755Y-115250000D01*
X155011755Y-109432000D02*
X155011755Y-115250000D01*
X152131755Y-111784000D02*
X152131755Y-121596000D01*
X156371755Y-108913000D02*
X156371755Y-124467000D01*
X152091755Y-111836000D02*
X152091755Y-121544000D01*
X158452755Y-108610000D02*
X158452755Y-124770000D01*
X154131755Y-118130000D02*
X154131755Y-123449000D01*
X153931755Y-118130000D02*
X153931755Y-123314000D01*
X152611755Y-111215000D02*
X152611755Y-122165000D01*
X155491755Y-118130000D02*
X155491755Y-124164000D01*
X151931755Y-112056000D02*
X151931755Y-121324000D01*
X156211755Y-108960000D02*
X156211755Y-115250000D01*
X153091755Y-110738000D02*
X153091755Y-122642000D01*
X155851755Y-118130000D02*
X155851755Y-124301000D01*
X155651755Y-118130000D02*
X155651755Y-124227000D01*
X151491755Y-112754000D02*
X151491755Y-120626000D01*
X152411755Y-111439000D02*
X152411755Y-121941000D01*
X155651755Y-109153000D02*
X155651755Y-115250000D01*
X156251755Y-118130000D02*
X156251755Y-124432000D01*
X155051755Y-109412000D02*
X155051755Y-115250000D01*
X151811755Y-112231000D02*
X151811755Y-121149000D01*
X151691755Y-112417000D02*
X151691755Y-120963000D01*
X155371755Y-109267000D02*
X155371755Y-115250000D01*
X153211755Y-110630000D02*
X153211755Y-122750000D01*
X155051755Y-118130000D02*
X155051755Y-123968000D01*
X150771755Y-114472000D02*
X150771755Y-118908000D01*
X150971755Y-113870000D02*
X150971755Y-119510000D01*
X154771755Y-118130000D02*
X154771755Y-123826000D01*
X153051755Y-110774000D02*
X153051755Y-122606000D01*
X154171755Y-118130000D02*
X154171755Y-123475000D01*
X156651755Y-108840000D02*
X156651755Y-124540000D01*
X157932755Y-108635000D02*
X157932755Y-124745000D01*
X151411755Y-112900000D02*
X151411755Y-120480000D01*
X157972755Y-108632000D02*
X157972755Y-124748000D01*
X152211755Y-111681000D02*
X152211755Y-121699000D01*
X156571755Y-108860000D02*
X156571755Y-124520000D01*
X153011755Y-110812000D02*
X153011755Y-122568000D01*
X157371755Y-108699000D02*
X157371755Y-124681000D01*
X154051755Y-109984000D02*
X154051755Y-115250000D01*
X154851755Y-118130000D02*
X154851755Y-123868000D01*
X153291755Y-110561000D02*
X153291755Y-122819000D01*
X157091755Y-108746000D02*
X157091755Y-124634000D01*
X153891755Y-110094000D02*
X153891755Y-115250000D01*
X154691755Y-109596000D02*
X154691755Y-115250000D01*
X150651755Y-114938000D02*
X150651755Y-118442000D01*
X154691755Y-118130000D02*
X154691755Y-123784000D01*
X156211755Y-118130000D02*
X156211755Y-124420000D01*
X152011755Y-111944000D02*
X152011755Y-121436000D01*
X154091755Y-118130000D02*
X154091755Y-123423000D01*
X155091755Y-109393000D02*
X155091755Y-115250000D01*
X158492755Y-108610000D02*
X158492755Y-124770000D01*
X152251755Y-111631000D02*
X152251755Y-121749000D01*
X154251755Y-109854000D02*
X154251755Y-115250000D01*
X156971755Y-108769000D02*
X156971755Y-124611000D01*
X155971755Y-118130000D02*
X155971755Y-124343000D01*
X156171755Y-118130000D02*
X156171755Y-124408000D01*
X154331755Y-109804000D02*
X154331755Y-115250000D01*
X155091755Y-118130000D02*
X155091755Y-123987000D01*
X153651755Y-110270000D02*
X153651755Y-115250000D01*
X154091755Y-109957000D02*
X154091755Y-115250000D01*
X154851755Y-109512000D02*
X154851755Y-115250000D01*
X152811755Y-111006000D02*
X152811755Y-122374000D01*
X156051755Y-109010000D02*
X156051755Y-115250000D01*
X157691755Y-108657000D02*
X157691755Y-124723000D01*
X154731755Y-118130000D02*
X154731755Y-123805000D01*
X151291755Y-113133000D02*
X151291755Y-120247000D01*
X153811755Y-110151000D02*
X153811755Y-115250000D01*
X152931755Y-110888000D02*
X152931755Y-122492000D01*
X155691755Y-118130000D02*
X155691755Y-124243000D01*
X155411755Y-109250000D02*
X155411755Y-115250000D01*
X155931755Y-118130000D02*
X155931755Y-124329000D01*
X157651755Y-108662000D02*
X157651755Y-124718000D01*
X154411755Y-118130000D02*
X154411755Y-123624000D01*
X166692755Y-116690000D02*
G75*
G03*
X166692755Y-116690000I-8120000J0D01*
G01*
%TD*%
M02*
