%TF.GenerationSoftware,KiCad,Pcbnew,(6.0.1)*%
%TF.CreationDate,2023-04-16T16:50:23+10:00*%
%TF.ProjectId,blinker,626c696e-6b65-4722-9e6b-696361645f70,rev?*%
%TF.SameCoordinates,Original*%
%TF.FileFunction,Copper,L1,Top*%
%TF.FilePolarity,Positive*%
%FSLAX46Y46*%
G04 Gerber Fmt 4.6, Leading zero omitted, Abs format (unit mm)*
G04 Created by KiCad (PCBNEW (6.0.1)) date 2023-04-16 16:50:23*
%MOMM*%
%LPD*%
G01*
G04 APERTURE LIST*
G04 Aperture macros list*
%AMRoundRect*
0 Rectangle with rounded corners*
0 $1 Rounding radius*
0 $2 $3 $4 $5 $6 $7 $8 $9 X,Y pos of 4 corners*
0 Add a 4 corners polygon primitive as box body*
4,1,4,$2,$3,$4,$5,$6,$7,$8,$9,$2,$3,0*
0 Add four circle primitives for the rounded corners*
1,1,$1+$1,$2,$3*
1,1,$1+$1,$4,$5*
1,1,$1+$1,$6,$7*
1,1,$1+$1,$8,$9*
0 Add four rect primitives between the rounded corners*
20,1,$1+$1,$2,$3,$4,$5,0*
20,1,$1+$1,$4,$5,$6,$7,0*
20,1,$1+$1,$6,$7,$8,$9,0*
20,1,$1+$1,$8,$9,$2,$3,0*%
%AMFreePoly0*
4,1,6,1.000000,0.000000,0.500000,-0.750000,-0.500000,-0.750000,-0.500000,0.750000,0.500000,0.750000,1.000000,0.000000,1.000000,0.000000,$1*%
%AMFreePoly1*
4,1,6,0.500000,-0.750000,-0.650000,-0.750000,-0.150000,0.000000,-0.650000,0.750000,0.500000,0.750000,0.500000,-0.750000,0.500000,-0.750000,$1*%
G04 Aperture macros list end*
%TA.AperFunction,NonConductor*%
%ADD10C,0.200000*%
%TD*%
%TA.AperFunction,SMDPad,CuDef*%
%ADD11RoundRect,0.218750X-0.218750X-0.256250X0.218750X-0.256250X0.218750X0.256250X-0.218750X0.256250X0*%
%TD*%
%TA.AperFunction,SMDPad,CuDef*%
%ADD12RoundRect,0.200000X0.200000X0.275000X-0.200000X0.275000X-0.200000X-0.275000X0.200000X-0.275000X0*%
%TD*%
%TA.AperFunction,SMDPad,CuDef*%
%ADD13R,1.700000X1.700000*%
%TD*%
%TA.AperFunction,SMDPad,CuDef*%
%ADD14O,1.700000X1.700000*%
%TD*%
%TA.AperFunction,SMDPad,CuDef*%
%ADD15R,0.450000X0.600000*%
%TD*%
%TA.AperFunction,SMDPad,CuDef*%
%ADD16RoundRect,0.150000X0.512500X0.150000X-0.512500X0.150000X-0.512500X-0.150000X0.512500X-0.150000X0*%
%TD*%
%TA.AperFunction,SMDPad,CuDef*%
%ADD17FreePoly0,270.000000*%
%TD*%
%TA.AperFunction,SMDPad,CuDef*%
%ADD18FreePoly1,270.000000*%
%TD*%
%TA.AperFunction,ComponentPad*%
%ADD19R,1.700000X1.700000*%
%TD*%
%TA.AperFunction,ComponentPad*%
%ADD20O,1.700000X1.700000*%
%TD*%
%TA.AperFunction,ComponentPad*%
%ADD21R,2.400000X2.400000*%
%TD*%
%TA.AperFunction,ComponentPad*%
%ADD22C,2.400000*%
%TD*%
%TA.AperFunction,ViaPad*%
%ADD23C,0.800000*%
%TD*%
%TA.AperFunction,Conductor*%
%ADD24C,0.250000*%
%TD*%
G04 APERTURE END LIST*
D10*
X125660001Y-42170000D02*
G75*
G03*
X125660001Y-42170000I-1J0D01*
G01*
D11*
%TO.P,D3,1,K*%
%TO.N,Net-(D3-Pad1)*%
X166042500Y-123850000D03*
%TO.P,D3,2,A*%
%TO.N,5VCC*%
X167617500Y-123850000D03*
%TD*%
D12*
%TO.P,R1,1*%
%TO.N,LED*%
X167635000Y-122160000D03*
%TO.P,R1,2*%
%TO.N,Net-(D3-Pad1)*%
X165985000Y-122160000D03*
%TD*%
D13*
%TO.P,J1,1,Pin_1*%
%TO.N,unconnected-(J1-Pad1)*%
X177215000Y-110895000D03*
D14*
%TO.P,J1,2,Pin_2*%
%TO.N,5VCC*%
X177215000Y-113435000D03*
%TO.P,J1,3,Pin_3*%
%TO.N,TPICLK*%
X174675000Y-110895000D03*
%TO.P,J1,4,Pin_4*%
%TO.N,TPIDATA*%
X174675000Y-113435000D03*
%TO.P,J1,5,Pin_5*%
%TO.N,RESET*%
X172135000Y-110895000D03*
%TO.P,J1,6,Pin_6*%
%TO.N,GND*%
X172135000Y-113435000D03*
%TD*%
D15*
%TO.P,D1,1,K*%
%TO.N,2.7VCC*%
X166910000Y-117040000D03*
%TO.P,D1,2,A*%
%TO.N,/SLR_IN*%
X166910000Y-114940000D03*
%TD*%
D16*
%TO.P,U1,1,PB0*%
%TO.N,TPIDATA*%
X176300000Y-122510000D03*
%TO.P,U1,2,GND*%
%TO.N,GND*%
X176300000Y-121560000D03*
%TO.P,U1,3,PB1*%
%TO.N,TPICLK*%
X176300000Y-120610000D03*
%TO.P,U1,4,PB2*%
%TO.N,LED*%
X174025000Y-120610000D03*
%TO.P,U1,5,VCC*%
%TO.N,5VCC*%
X174025000Y-121560000D03*
%TO.P,U1,6,~{RESET}/PB3*%
%TO.N,RESET*%
X174025000Y-122510000D03*
%TD*%
D17*
%TO.P,JP1,1,A*%
%TO.N,2.7VCC*%
X158770000Y-120915000D03*
D18*
%TO.P,JP1,2,B*%
%TO.N,5VCC*%
X158770000Y-122365000D03*
%TD*%
D19*
%TO.P,SC1,1,+*%
%TO.N,/SLR_IN*%
X165910000Y-110240000D03*
D20*
%TO.P,SC1,2,-*%
%TO.N,GND*%
X168450000Y-110240000D03*
%TD*%
D21*
%TO.P,C1,1*%
%TO.N,2.7VCC*%
X171627246Y-116690000D03*
D22*
%TO.P,C1,2*%
%TO.N,GND*%
X179127246Y-116690000D03*
%TD*%
D21*
%TO.P,C2,1*%
%TO.N,2.7VCC*%
X162322755Y-116690000D03*
D22*
%TO.P,C2,2*%
%TO.N,GND*%
X154822755Y-116690000D03*
%TD*%
D23*
%TO.N,GND*%
X169560000Y-113430000D03*
X172630000Y-119160000D03*
%TD*%
D24*
%TO.N,/SLR_IN*%
X166910000Y-111240000D02*
X165910000Y-110240000D01*
X166910000Y-114940000D02*
X166910000Y-111240000D01*
%TO.N,GND*%
X176300000Y-121560000D02*
X175916428Y-121560000D01*
X173908572Y-119160000D02*
X172630000Y-119160000D01*
X175012020Y-120655592D02*
X175012020Y-120263448D01*
X175916428Y-121560000D02*
X175012020Y-120655592D01*
X172135000Y-113435000D02*
X169565000Y-113435000D01*
X175012020Y-120263448D02*
X173908572Y-119160000D01*
X169565000Y-113435000D02*
X169560000Y-113430000D01*
%TO.N,TPIDATA*%
X174675000Y-113435000D02*
X177287020Y-116047020D01*
X177287020Y-121906552D02*
X176683572Y-122510000D01*
X176683572Y-122510000D02*
X176300000Y-122510000D01*
X177287020Y-116047020D02*
X177287020Y-121906552D01*
%TO.N,RESET*%
X174025000Y-122510000D02*
X175099040Y-123584040D01*
X181101277Y-112621277D02*
X178200489Y-109720489D01*
X181101277Y-119688723D02*
X181101277Y-112621277D01*
X178200489Y-109720489D02*
X173309511Y-109720489D01*
X175099040Y-123584040D02*
X177205960Y-123584040D01*
X173309511Y-109720489D02*
X172135000Y-110895000D01*
X177205960Y-123584040D02*
X181101277Y-119688723D01*
%TO.N,TPICLK*%
X174675000Y-110895000D02*
X173500489Y-112069511D01*
X173500489Y-117810489D02*
X176300000Y-120610000D01*
X173500489Y-112069511D02*
X173500489Y-117810489D01*
%TO.N,2.7VCC*%
X162322755Y-116690000D02*
X166560000Y-116690000D01*
X166560000Y-116690000D02*
X166910000Y-117040000D01*
X171627246Y-116690000D02*
X167260000Y-116690000D01*
X158770000Y-120242755D02*
X162322755Y-116690000D01*
X167260000Y-116690000D02*
X166910000Y-117040000D01*
X158770000Y-120915000D02*
X158770000Y-120242755D01*
%TO.N,Net-(D3-Pad1)*%
X165985000Y-122160000D02*
X165985000Y-123792500D01*
X165985000Y-123792500D02*
X166042500Y-123850000D01*
%TO.N,5VCC*%
X161054520Y-124649520D02*
X166817980Y-124649520D01*
X178417081Y-113435000D02*
X180651757Y-115669676D01*
X180651757Y-115669676D02*
X180651757Y-119491815D01*
X166817980Y-124649520D02*
X167617500Y-123850000D01*
X180651757Y-119491815D02*
X177009052Y-123134520D01*
X174408572Y-121560000D02*
X174025000Y-121560000D01*
X177009052Y-123134520D02*
X175586540Y-123134520D01*
X175012020Y-122163448D02*
X174408572Y-121560000D01*
X158770000Y-122365000D02*
X161054520Y-124649520D01*
X174025000Y-121560000D02*
X169907500Y-121560000D01*
X169907500Y-121560000D02*
X167617500Y-123850000D01*
X177215000Y-113435000D02*
X178417081Y-113435000D01*
X175012020Y-122560000D02*
X175012020Y-122163448D01*
X175586540Y-123134520D02*
X175012020Y-122560000D01*
%TO.N,LED*%
X174025000Y-120610000D02*
X169185000Y-120610000D01*
X169185000Y-120610000D02*
X167635000Y-122160000D01*
%TD*%
M02*
